<ttFont>
<head>
    <!-- Most of this table will be recalculated by the compiler -->
    <tableVersion value="1.0"/>
    <fontRevision value="0.2"/>
    <checkSumAdjustment value="0xc11e505d"/>
    <magicNumber value="0x5f0f3cf5"/>
    <flags value="00000000 00000011"/>
    <unitsPerEm value="1000"/>
    <created value="Mon Aug  2 21:35:27 2021"/>
    <modified value="Mon Aug  2 21:35:27 2021"/>
    <xMin value="-576"/>
    <yMin value="-602"/>
    <xMax value="2430"/>
    <yMax value="970"/>
    <macStyle value="00000000 00000000"/>
    <lowestRecPPEM value="3"/>
    <fontDirectionHint value="2"/>
    <indexToLocFormat value="0"/>
    <glyphDataFormat value="0"/>
  </head>
          <CharString index="0">
            500 rmoveto
            return
          </CharString>
          <CharString index="1">
            hhcurveto
            -97 callgsubr
            hvcurveto
            -94 callgsubr
            return
          </CharString>
          <CharString index="2">
            hvcurveto
            -96 callsubr
          </CharString>
          <CharString index="3">
            164 callsubr
            endchar
          </CharString>
          <CharString index="4">
            270 -99 callgsubr
            return
          </CharString>
          <CharString index="5">
            -33 77 -22 80 55 vvcurveto
            48 28 18 60 return
          </CharString>
          <CharString index="6">
            -60 -21 -18 -75 110 callgsubr
            hvcurveto
            return
          </CharString>
          <CharString index="7">
            235 callsubr
            4 return
          </CharString>
          <CharString index="8">
            44 callsubr
            endchar
          </CharString>
          <CharString index="9">
            -4 166 vlineto
            return
          </CharString>
          <CharString index="10">
            rmoveto
            203 163 -260 vlineto
            -8 -20 -25 -4 -28 hhcurveto
            -71 -19 19 50 hvcurveto
            return
          </CharString>
          <CharString index="11">
            -100 41 callgsubr
            -100 hlineto
            endchar
          </CharString>
          <CharString index="12">
            185 callsubr
            hlineto
            endchar
          </CharString>
          <CharString index="13">
            hhcurveto
            -75 -33 20 63 hvcurveto
            return
          </CharString>
          <CharString index="14">
            rmoveto
            217 -67 hlineto
            -8 callgsubr
            return
          </CharString>
          <CharString index="15">
            -85 -15 -12 -93 vhcurveto
            -48 -55 hlineto
            return
          </CharString>
          <CharString index="16">
            -116 30 hlineto
            27 callgsubr
            endchar
          </CharString>
          <CharString index="17">
            -107 154 -202 vlineto
            -31 callgsubr
            endchar
          </CharString>
          <CharString index="18">
            216 14 -48 callgsubr
            return
          </CharString>
          <CharString index="19">
            -107 182 vlineto
            endchar
          </CharString>
          <CharString index="20">
            -82 -21 -11 -82 return
          </CharString>
          <CharString index="21">
            151 callgsubr
            145 244 hlineto
            202 -78 46 -191 vhcurveto
            return
          </CharString>
          <CharString index="22">
            268 callgsubr
            114 -281 rmoveto
            148 callsubr
            -194 96 -57 173 90 67 11 14 38 vhcurveto
            return
          </CharString>
          <CharString index="23">
            hhcurveto
            -56 -24 10 48 39 15 12 61 27 25 -3 -3 19 hvcurveto
            2 1 rlineto
            92 vlineto
            7 -30 -39 5 -41 hhcurveto
            -81 callsubr
            -25 -28 -50 -13 -123 hhcurveto
            -137 -53 41 69 hvcurveto
            27 -56 callgsubr
            93 return
          </CharString>
          <CharString index="24">
            106 40 326 rmoveto
            -243 69 -83 242 242 68 83 243 226 callsubr
            311 -186 rmoveto
            -127 -24 39 147 143 24 42 127 128 22 -42 -143 -147 -22 -39 -128 hvcurveto
            return
          </CharString>
          <CharString index="25">
            -45 60 9 rmoveto
            470 130 88 callgsubr
            hlineto
            return
          </CharString>
          <CharString index="26">
            -126 -47 -38 -107 -115 51 -53 150 15 hvcurveto
            1 -2 rlineto
            return
          </CharString>
          <CharString index="27">
            rmoveto
            -304 -100 304 hlineto
            endchar
          </CharString>
          <CharString index="28">
            80 37 52 69 hvcurveto
            257 return
          </CharString>
          <CharString index="29">
            -139 69 -49 165 return
          </CharString>
          <CharString index="30">
            -107 100 vlineto
            endchar
          </CharString>
          <CharString index="31">
            hhcurveto
            7 callsubr
            return
          </CharString>
          <CharString index="32">
            rmoveto
            -90 callgsubr
            return
          </CharString>
          <CharString index="33">
            hhcurveto
            45 39 6 12 33 hvcurveto
            3 -1 rlineto
            -107 -27 callgsubr
            return
          </CharString>
          <CharString index="34">
            rmoveto
            195 168 -261 -42 callsubr
            -23 17 63 hvcurveto
            return
          </CharString>
          <CharString index="35">
            57 callsubr
            endchar
          </CharString>
          <CharString index="36">
            69 callgsubr
            -128 -60 -54 -134 return
          </CharString>
          <CharString index="37">
            1 16 16 vvcurveto
            16 -1 15 -2 22 vhcurveto
            return
          </CharString>
          <CharString index="38">
            -1 callgsubr
            153 -20 callsubr
            return
          </CharString>
          <CharString index="39">
            -142 51 -46 165 -82 callgsubr
            return
          </CharString>
          <CharString index="40">
            -173 57 callgsubr
          </CharString>
          <CharString index="41">
            -55 callgsubr
            107 callgsubr
            return
          </CharString>
          <CharString index="42">
            238 callsubr
            4 return
          </CharString>
          <CharString index="43">
            236 callsubr
            vlineto
            return
          </CharString>
          <CharString index="44">
            -2 -2 rlineto
            17 -15 -25 9 -31 hhcurveto
            -86 -34 -36 -57 -60 callsubr
            -47 37 -105 hhcurveto
            return
          </CharString>
          <CharString index="45">
            81 24 12 62 4 hvcurveto
            return
          </CharString>
          <CharString index="46">
            208 622 rmoveto
            67 return
          </CharString>
          <CharString index="47">
            -10 hvcurveto
            -3 hlineto
            57 -9 return
          </CharString>
          <CharString index="48">
            -77 15 -77 32 -73 return
          </CharString>
          <CharString index="49">
            2 hlineto
            188 callsubr
            -51 -9 -44 -39 -84 145 callgsubr
            return
          </CharString>
          <CharString index="50">
            hhcurveto
            -40 callsubr
            hvcurveto
            -56 callsubr
            return
          </CharString>
          <CharString index="51">
            2 -1 rlineto
            -113 111 callsubr
            return
          </CharString>
          <CharString index="52">
            hhcurveto
            -84 -40 -39 200 callgsubr
            -67 132 67 vlineto
            81 25 20 52 return
          </CharString>
          <CharString index="53">
            hhcurveto
            -94 -55 21 48 124 callsubr
            return
          </CharString>
          <CharString index="54">
            rmoveto
            -81 callsubr
            -31 -28 -89 -7 -84 hhcurveto
            -137 -53 41 69 hvcurveto
            27 -56 callgsubr
            93 212 callgsubr
            return
          </CharString>
          <CharString index="55">
            267 callgsubr
            -5 -3 rlineto
            -77 vlineto
            -5 26 24 -2 54 hhcurveto
            91 34 25 74 58 -26 20 -60 6 hvcurveto
            return
          </CharString>
          <CharString index="56">
            rmoveto
            -5 callgsubr
            return
          </CharString>
          <CharString index="57">
            -40 callgsubr
            7 callsubr
            return
          </CharString>
          <CharString index="58">
            134 98 callgsubr
            vvcurveto
            return
          </CharString>
          <CharString index="59">
            -1 -7 0 -7 -8 28 callgsubr
            return
          </CharString>
          <CharString index="60">
            rmoveto
            125 178 -198 -42 callsubr
            -33 17 70 hvcurveto
            return
          </CharString>
          <CharString index="61">
            29 115 -29 190 callsubr
            return
          </CharString>
          <CharString index="62">
            -36 vlineto
            -92 callsubr
            return
          </CharString>
          <CharString index="63">
            247 callsubr
            vlineto
            return
          </CharString>
          <CharString index="64">
            -83 callgsubr
            131 return
          </CharString>
          <CharString index="65">
            vlineto
            -8 -22 -29 -6 -29 hhcurveto
            -65 return
          </CharString>
          <CharString index="66">
            -87 22 -81 37 -90 return
          </CharString>
          <CharString index="67">
            37 38 8 12 26 return
          </CharString>
          <CharString index="68">
            -47 -14 -28 -68 vhcurveto
            -52 return
          </CharString>
          <CharString index="69">
            -16 -34 -41 -7 -48 hhcurveto
            return
          </CharString>
          <CharString index="70">
            297 709 642 rmoveto
            -25 -141 -24 -142 -25 -141 rrcurveto
            -2 hlineto
            -30 141 -30 142 -30 141 rrcurveto
            -194 hlineto
            -35 -141 -26 -122 -29 -161 rrcurveto
            -2 hlineto
            -25 161 -20 122 -29 141 rrcurveto
            -163 hlineto
            134 -633 rlineto
            195 hlineto
            37 142 28 130 31 155 rrcurveto
            2 hlineto
            26 -155 29 -130 41 -142 rrcurveto
            195 hlineto
            134 633 rlineto
            return
          </CharString>
          <CharString index="71">
            308 callgsubr
            -12 58 75 -10 88 hhcurveto
            173 55 38 114 86 -38 34 -81 18 hvcurveto
            -73 14 rlineto
            63 callgsubr
            1 -23 vvcurveto
            -25 -16 -7 -92 -65 -55 7 15 -53 vhcurveto
            return
          </CharString>
          <CharString index="72">
            145 368 272 rmoveto
            2 hlineto
            19 -92 22 -89 22 -82 rrcurveto
            173 hlineto
            124 487 rlineto
            -168 hlineto
            -19 -100 -19 -111 -15 -104 rrcurveto
            -2 hlineto
            -20 104 -24 111 -24 100 rrcurveto
            -140 hlineto
            -24 -100 -24 -111 -20 -104 rrcurveto
            -2 hlineto
            -15 104 -19 111 -19 100 rrcurveto
            -166 hlineto
            124 -487 rlineto
            173 hlineto
            22 82 20 89 19 92 rrcurveto
            return
          </CharString>
          <CharString index="73">
            vlineto
            -295 -67 callsubr
          </CharString>
          <CharString index="74">
            95 470 388 rmoveto
            254 160 -633 -159 vlineto
            -180 268 -42 63 -16 27 -30 60 rlinecurve
            -3 -4 rlineto
            18 -64 2 -54 -52 vvcurveto
            -244 -160 633 159 vlineto
            180 -268 42 -63 16 -27 30 -60 rlinecurve
            3 4 rlineto
            -13 56 -7 52 52 vvcurveto
            return
          </CharString>
          <CharString index="75">
            -58 116 -175 rmoveto
            -2 164 vlineto
            257 670 rlineto
            3 -172 vlineto
            -40 -107 -32 -105 -20 -111 rrcurveto
            -2 hlineto
            -20 112 -35 105 -37 106 rrcurveto
            -179 -2 hlineto
            193 -486 rlineto
            return
          </CharString>
          <CharString index="76">
            rmoveto
            364 -51 -128 182 callgsubr
            return
          </CharString>
          <CharString index="77">
            254 74 callgsubr
            return
          </CharString>
          <CharString index="78">
            -33 -26 -17 -46 -44 -23 callsubr
            -2 3 rlineto
            -4 callgsubr
            29 11 29 17 26 hvcurveto
            return
          </CharString>
          <CharString index="79">
            vlineto
            148 -78 32 callgsubr
            return
          </CharString>
          <CharString index="80">
            rmoveto
            157 -213 hlineto
            -157 -1 rlineto
            return
          </CharString>
          <CharString index="81">
            55 61 11 18 37 hvcurveto
            3 -1 rlineto
            -75 -106 callgsubr
            return
          </CharString>
          <CharString index="82">
            -36 hlineto
            -92 callsubr
            return
          </CharString>
          <CharString index="83">
            220 9 rmoveto
            673 -160 -673 vlineto
            return
          </CharString>
          <CharString index="84">
            vvcurveto
            -66 36 -38 102 14 23 2 1 18 vhcurveto
            1 78 return
          </CharString>
          <CharString index="85">
            vhcurveto
            2 1 rlineto
            90 vlineto
            6 -17 -28 4 -22 hhcurveto
            return
          </CharString>
          <CharString index="86">
            -122 -52 -34 -95 -96 45 -37 117 hvcurveto
            return
          </CharString>
          <CharString index="87">
            1 rlineto
            -220 -105 callgsubr
            return
          </CharString>
          <CharString index="88">
            -83 callgsubr
            121 return
          </CharString>
          <CharString index="89">
            11 -19 -82 vhcurveto
            -13 return
          </CharString>
          <CharString index="90">
            81 23 12 62 4 hvcurveto
            return
          </CharString>
          <CharString index="91">
            -60 -21 -18 -75 -74 23 -19 97 return
          </CharString>
          <CharString index="92">
            -77 22 -78 39 -72 return
          </CharString>
          <CharString index="93">
            208 623 rmoveto
            67 return
          </CharString>
          <CharString index="94">
            rmoveto
            69 56 12 17 44 hvcurveto
            return
          </CharString>
          <CharString index="95">
            vvcurveto
            -142 51 -46 170 -82 callgsubr
            vhcurveto
            20 callgsubr
            return
          </CharString>
          <CharString index="96">
            252 callgsubr
            78 76 6 7 37 vhcurveto
            244 callsubr
            -82 -2 -61 hhcurveto
            16 callgsubr
            return
          </CharString>
          <CharString index="97">
            5 -22 -21 2 -21 hhcurveto
            -22 -21 -2 -5 -22 hvcurveto
            -2 -18 -1 -14 -13 vvcurveto
            -13 1 -16 2 -17 vhcurveto
            -5 22 21 -2 20 hhcurveto
            22 21 2 5 23 hvcurveto
            1 18 1 14 14 vvcurveto
            13 -1 14 -1 18 vhcurveto
            return
          </CharString>
          <CharString index="98">
            -149 434 336 rmoveto
            2 2 rlineto
            156 vlineto
            3 -20 -30 4 -36 hhcurveto
            -90 -42 -31 -74 -12 hvcurveto
            -3 hlineto
            -13 100 rlineto
            -130 -487 160 hlineto
            2 176 rlineto
            135 54 26 75 34 28 -5 -5 21 vhcurveto
            return
          </CharString>
          <CharString index="99">
            -227 13 callgsubr
            endchar
          </CharString>
          <CharString index="100">
            vvcurveto
            306 callgsubr
            vhcurveto
            121 2 callsubr
            return
          </CharString>
          <CharString index="101">
            -1 vlineto
            -3 vlineto
            -46 -30 -37 -33 -33 -43 -73 callgsubr
            72 136 2 1 3 -2 rlineto
            -7 -19 -3 -49 -40 vvcurveto
            144 271 -116 -34 hlineto
            -27 -21 -12 -75 -82 -40 9 60 60 29 15 72 16 callsubr
            return
          </CharString>
          <CharString index="102">
            -81 266 366 rmoveto
            -2 vlineto
            -233 -248 rlineto
            -105 459 129 -232 2 vlineto
            216 238 rlineto
            115 -427 -129 vlineto
            return
          </CharString>
          <CharString index="103">
            -2 callsubr
            endchar
          </CharString>
          <CharString index="104">
            hlineto
            -22 -230 -99 callgsubr
            return
          </CharString>
          <CharString index="105">
            rlineto
            178 2 hlineto
            -76 89 -78 73 -83 55 rrcurveto
            2 vlineto
            2 2 0 3 hhcurveto
            153 75 87 116 124 -56 58 -125 -125 -56 -52 -96 -12 2 -14 2 -9 hvcurveto
            122 hlineto
            return
          </CharString>
          <CharString index="106">
            -166 -47 callgsubr
            return
          </CharString>
          <CharString index="107">
            1 202 callgsubr
            return
          </CharString>
          <CharString index="108">
            vlineto
            158 -182 rlineto
            -65 callsubr
            292 -186 -106 callgsubr
            return
          </CharString>
          <CharString index="109">
            44 callgsubr
            144 180 113 107 return
          </CharString>
          <CharString index="110">
            rmoveto
            -106 callgsubr
            -248 hlineto
            -320 9 callsubr
            -95 return
          </CharString>
          <CharString index="111">
            -54 -60 callsubr
            -50 37 -104 hhcurveto
            -123 -56 -58 -126 return
          </CharString>
          <CharString index="112">
            -21 -14 -64 -47 -38 6 8 -32 hvcurveto
            234 callsubr
            return
          </CharString>
          <CharString index="113">
            -89 -14 17 50 40 156 callsubr
            return
          </CharString>
          <CharString index="114">
            84 22 12 68 4 hvcurveto
            157 1 rlineto
            -166 -105 callgsubr
            return
          </CharString>
          <CharString index="115">
            11 callsubr
            endchar
          </CharString>
          <CharString index="116">
            -173 202 callsubr
            return
          </CharString>
          <CharString index="117">
            -3 hlineto
            52 -21 -38 29 -149 hhcurveto
            -134 -69 -40 -164 return
          </CharString>
          <CharString index="118">
            -107 193 -118 40 callgsubr
            return
          </CharString>
          <CharString index="119">
            -77 -12 -17 -72 -3 vhcurveto
            2 vlineto
            26 -54 -80 17 -72 hhcurveto
            return
          </CharString>
          <CharString index="120">
            -76 20 -17 80 75 24 8 66 3 vhcurveto
            return
          </CharString>
          <CharString index="121">
            rmoveto
            -43 callsubr
            201 -109 hlineto
            2 -17 -19 1 -20 hhcurveto
            204 return
          </CharString>
          <CharString index="122">
            120 callgsubr
            157 -42 48 -162 9 return
          </CharString>
          <CharString index="123">
            vhcurveto
            228 179 100 107 return
          </CharString>
          <CharString index="124">
            -64 vlineto
            -20 -18 0 -16 hhcurveto
            return
          </CharString>
          <CharString index="125">
            100 -186 hlineto
            -160 50 -55 146 return
          </CharString>
          <CharString index="126">
            hhcurveto
            -57 -56 -10 -15 -30 hvcurveto
            -2 91 return
          </CharString>
          <CharString index="127">
            -118 vlineto
            -39 callsubr
            return
          </CharString>
          <CharString index="128">
            vlineto
            14 33 38 6 46 hhcurveto
            return
          </CharString>
          <CharString index="129">
            -64 hlineto
            -20 -18 0 -16 hhcurveto
            return
          </CharString>
          <CharString index="130">
            24 -12 -75 -73 -24 -14 return
          </CharString>
          <CharString index="131">
            -33 14 73 75 33 12 return
          </CharString>
          <CharString index="132">
            -3 0 1 -6 vhcurveto
            endchar
          </CharString>
          <CharString index="133">
            hlineto
            -12 -33 -42 -6 -45 hhcurveto
            return
          </CharString>
          <CharString index="134">
            -18 callsubr
            -124 28 callsubr
          </CharString>
          <CharString index="135">
            -107 109 65 callsubr
            150 107 -50 96 callsubr
          </CharString>
          <CharString index="136">
            50 callgsubr
            -121 -52 -35 -98 -91 43 -38 131 hvcurveto
            8 callgsubr
            -588 hlineto
            endchar
          </CharString>
          <CharString index="137">
            hlineto
            102 callsubr
            return
          </CharString>
          <CharString index="138">
            hlineto
            -2 -1 rlineto
            14 -26 -42 10 -51 hhcurveto
            -146 -67 -71 -203 3 hvcurveto
            -152 2 58 -75 129 hhcurveto
            80 37 26 54 23 hvcurveto
            4 hlineto
            -92 56 rmoveto
            -70 -15 37 78 91 25 22 63 36 26 -5 -10 25 hvcurveto
            -105 vlineto
            -78 -37 -30 -53 vhcurveto
            return
          </CharString>
          <CharString index="139">
            464 rmoveto
            -76 -12 -18 -69 -3 vhcurveto
            19 -29 -36 8 -39 hhcurveto
            -43 callsubr
            330 -3 callsubr
            return
          </CharString>
          <CharString index="140">
            245 callsubr
            25 -68 108 -144 204 callsubr
            return
          </CharString>
          <CharString index="141">
            rmoveto
            7 -29 -31 2 -29 hhcurveto
            -30 -31 -2 -7 -29 hvcurveto
            -5 -26 -1 -20 -19 vvcurveto
            -20 1 -19 5 -24 vhcurveto
            -7 29 29 -3 30 hhcurveto
            30 31 3 7 30 hvcurveto
            4 25 1 20 19 vvcurveto
            20 -1 18 -4 26 vhcurveto
            endchar
          </CharString>
          <CharString index="142">
            hlineto
            -105 274 245 callsubr
            32 -65 91 -147 204 callsubr
            39 -39 126 -105 117 -74 rrcurveto
            return
          </CharString>
          <CharString index="143">
            33 22 callgsubr
            return
          </CharString>
          <CharString index="144">
            54 -29 136 30 32 3 7 28 vhcurveto
            221 callsubr
            36 30 13 10 27 1 hvcurveto
            81 87 -56 hlineto
            -47 -18 return
          </CharString>
          <CharString index="145">
            -107 531 -118 vlineto
            -22 -3 -18 -11 -13 vhcurveto
            58 -61 -76 25 -128 -95 callsubr
          </CharString>
          <CharString index="146">
            hhcurveto
            -49 -47 -9 -12 -30 hvcurveto
            2 -113 299 callgsubr
            -47 -39 273 callgsubr
            return
          </CharString>
          <CharString index="147">
            59 callsubr
            43 vvcurveto
            37 19 10 28 vhcurveto
            80 106 -339 -131 hlineto
            40 37 7 8 23 hvcurveto
            2 -3 return
          </CharString>
          <CharString index="148">
            -240 -1 rlineto
            -12 hlineto
            -90 callgsubr
            153 -20 callsubr
            return
          </CharString>
          <CharString index="149">
            -16 -27 -68 -10 -39 hhcurveto
            -85 -22 13 38 40 22 12 75 hvcurveto
            -46 callsubr
            69 107 return
          </CharString>
          <CharString index="150">
            183 callsubr
            23 -19 97 return
          </CharString>
          <CharString index="151">
            rmoveto
            -115 hlineto
            -15 -23 -25 -36 -7 -25 rrcurveto
            -3 hlineto
            -9 25 -23 36 -15 23 rrcurveto
            -116 hlineto
            107 -145 rlineto
            108 hlineto
            return
          </CharString>
          <CharString index="152">
            45 callgsubr
            -19 -18 208 callsubr
            return
          </CharString>
          <CharString index="153">
            -55 callgsubr
            35 44 -6 -8 30 hvcurveto
            4 1 rlineto
            103 vlineto
            10 -39 -53 7 -58 hhcurveto
            return
          </CharString>
          <CharString index="154">
            148 243 -41 callgsubr
            return
          </CharString>
          <CharString index="155">
            vvcurveto
            -78 callsubr
            74 54 10 17 35 vhcurveto
            2 -1 rlineto
            -81 -42 callgsubr
            return
          </CharString>
          <CharString index="156">
            -107 100 -183 vlineto
            -174 59 -43 161 vhcurveto
            return
          </CharString>
          <CharString index="157">
            -102 callsubr
            47 32 -6 -9 28 vhcurveto
            -81 vlineto
            -29 callgsubr
            return
          </CharString>
          <CharString index="158">
            -1 5 0 8 4 vvcurveto
            32 11 20 return
          </CharString>
          <CharString index="159">
            hhcurveto
            280 callgsubr
            return
          </CharString>
          <CharString index="160">
            rmoveto
            -99 -11 -23 -63 -4 vhcurveto
            -200 -1 rlineto
            163 274 vlineto
            return
          </CharString>
          <CharString index="161">
            -107 154 -202 hlineto
            -31 callgsubr
            endchar
          </CharString>
          <CharString index="162">
            227 callsubr
            -12 hlineto
            return
          </CharString>
          <CharString index="163">
            rmoveto
            114 callgsubr
            9 51 hhcurveto
            return
          </CharString>
          <CharString index="164">
            -107 100 -186 vlineto
            -160 50 -55 146 vhcurveto
            return
          </CharString>
          <CharString index="165">
            -97 -372 -116 30 vlineto
            82 19 -18 -60 -74 return
          </CharString>
          <CharString index="166">
            274 callgsubr
            13 return
          </CharString>
          <CharString index="167">
            65 callsubr
            100 107 return
          </CharString>
          <CharString index="168">
            9 rmoveto
            633 -160 -633 vlineto
            return
          </CharString>
          <CharString index="169">
            hlineto
            29 24 12 35 54 vvcurveto
            return
          </CharString>
          <CharString index="170">
            vlineto
            10 -39 -43 6 -50 hhcurveto
            return
          </CharString>
          <CharString index="171">
            -96 vlineto
            3 -2 rlineto
            5 29 return
          </CharString>
          <CharString index="172">
            -491 -60 callgsubr
            return
          </CharString>
          <CharString index="173">
            -64 hlineto
            309 callgsubr
            return
          </CharString>
          <CharString index="174">
            -1 -15 -14 vvcurveto
            -14 1 return
          </CharString>
          <CharString index="175">
            -1 -22 -20 vvcurveto
            -22 1 -20 return
          </CharString>
          <CharString index="176">
            -107 411 -296 vlineto
            89 callsubr
            -122 -46 -46 -140 -68 callsubr
            hvcurveto
            2 hlineto
            return
          </CharString>
          <CharString index="177">
            172 callsubr
            304 124 rmoveto
            123 vlineto
            1 -11 -12 1 -14 hhcurveto
            -48 -33 -26 -34 -21 hvcurveto
            -5 hlineto
            20 -37 -52 10 -71 hhcurveto
            -171 -61 -57 -107 -54 14 -41 34 -26 hvcurveto
            -3 vlineto
            -35 -16 -22 -29 -37 vvcurveto
            -41 19 -30 44 -18 vhcurveto
            -3 vlineto
            -44 -11 -27 -33 -46 vvcurveto
            -85 72 -46 167 203 77 59 109 111 -61 30 -122 vhcurveto
            -144 hlineto
            -35 -12 15 22 7 1 6 3 6 hvcurveto
            -5 28 33 -3 39 hhcurveto
            168 62 47 115 26 -4 23 -7 20 hvcurveto
            3 12 14 1 14 hhcurveto
            18 13 -1 -3 14 hvcurveto
            -295 -470 rmoveto
            -97 -17 15 30 23 13 15 27 hvcurveto
            153 hlineto
            27 13 -15 -23 -30 -14 -15 -105 hvcurveto
            endchar
          </CharString>
          <CharString index="178">
            rmoveto
            5 -23 -24 2 -23 hhcurveto
            -24 -24 -2 -5 -23 hvcurveto
            -3 -20 -1 -17 -14 vvcurveto
            -15 1 -15 3 -19 vhcurveto
            -5 23 23 -3 23 hhcurveto
            24 24 3 5 24 hvcurveto
            2 20 1 15 15 vvcurveto
            15 -1 15 -2 20 vhcurveto
            -652 167 50 callgsubr
            -128 -45 -25 -105 -99 46 -27 128 hvcurveto
            41 hlineto
            86 8 -5 -32 -32 -18 -9 -96 -87 -72 10 18 -38 hvcurveto
            -5 -3 rlineto
            -107 vlineto
            30 -9 30 -6 38 -3 -64 -119 rcurveline
            -4 143 vlineto
            43 119 rlineto
            1 2 0 1 hhcurveto
            45 -119 rlineto
            143 4 hlineto
            -73 125 rlineto
            78 15 40 36 77 vvcurveto
            106 -44 23 -164 vhcurveto
            -51 hlineto
            -31 -9 6 26 26 9 6 31 hvcurveto
            230 160 208 107 -705 hlineto
            endchar
          </CharString>
          <CharString index="179">
            56 callsubr
            24 20 -1 -3 15 hvcurveto
            -3 -18 -1 -21 -24 -12 callsubr
            -1665 170 callgsubr
            return
          </CharString>
          <CharString index="180">
            -25 500 95 callsubr
            7 48 hhcurveto
            89 14 -17 -50 -50 -14 -17 -62 -36 -27 5 6 -23 hvcurveto
            -4 -1 -2 -114 rlineto
            -11 37 51 -6 47 hhcurveto
            122 231 callsubr
            -165 -83 callgsubr
            91 411 107 -970 hlineto
            return
          </CharString>
          <CharString index="181">
            113 callsubr
            28 47 -4 40 hhcurveto
            -2 vlineto
            -47 -36 -66 -68 -48 -59 rrcurveto
            -98 callsubr
            90 145 rlineto
            -82 -106 callgsubr
            -1016 vlineto
            231 -405 rmoveto
            105 callgsubr
            363 -269 vlineto
            -10 -24 -29 -5 -38 hhcurveto
            -68 -29 64 callgsubr
            endchar
          </CharString>
          <CharString index="182">
            50 callgsubr
            -121 -52 -35 -98 -91 43 -38 131 hvcurveto
            313 callgsubr
            -76 -63 7 15 117 callgsubr
            -11 53 84 -9 231 callgsubr
            228 107 -725 hlineto
            687 -322 rmoveto
            5 -24 -24 2 -22 hhcurveto
            -24 -24 -2 -5 -24 hvcurveto
            -3 -21 0 -16 -14 vvcurveto
            -15 0 -15 3 -19 vhcurveto
            -5 24 23 -3 23 hhcurveto
            23 24 3 5 25 hvcurveto
            2 20 1 15 15 vvcurveto
            15 -1 14 -2 21 vhcurveto
            endchar
          </CharString>
          <CharString index="183">
            113 callsubr
            29 58 -4 41 2 3 0 2 hhcurveto
            -1 vlineto
            -59 -42 -64 -62 -58 -69 rrcurveto
            -98 callsubr
            139 202 rlineto
            98 vlineto
            -2 2 rlineto
            -14 -32 -49 -9 -47 hhcurveto
            -68 -39 64 callgsubr
            105 callgsubr
            412 107 -817 vlineto
            endchar
          </CharString>
          <CharString index="184">
            -50 -107 callsubr
            103 -116 hlineto
            -145 41 -51 115 -8 vhcurveto
            92 callsubr
            -997 hlineto
            249 callgsubr
            return
          </CharString>
          <CharString index="185">
            -54 callsubr
            -115 -45 hlineto
            -4 0 -4 -4 vvcurveto
            -177 -100 callgsubr
            101 107 -442 -107 193 178 callsubr
            286 vlineto
            -84 35 81 -41 140 hhcurveto
            return
          </CharString>
          <CharString index="186">
            rmoveto
            411 134 callgsubr
            -970 hlineto
            endchar
          </CharString>
          <CharString index="187">
            178 callgsubr
            -328 366 rmoveto
            120 -53 58 -108 -108 -53 -58 -120 -119 53 -58 108 108 53 58 119 vhcurveto
            -161 -70 rmoveto
            -36 -17 23 47 47 17 23 36 35 17 -23 -47 -47 -17 -23 -35 hvcurveto
            -46 -394 rmoveto
            297 callgsubr
          </CharString>
          <CharString index="188">
            -24 3 -28 7 -25 vhcurveto
            203 callsubr
            -49 222 callsubr
            return
          </CharString>
          <CharString index="189">
            95 callsubr
            9 51 18 callgsubr
            -2 91 309 107 -868 hlineto
            endchar
          </CharString>
          <CharString index="190">
            305 callgsubr
            -168 -59 -40 -180 -129 28 -52 104 -18 hvcurveto
            -65 -122 rlineto
            -4 149 vlineto
            43 118 rlineto
            4 hlineto
            45 -118 -39 callgsubr
            -71 122 rlineto
            90 14 31 38 73 vvcurveto
            103 -37 33 -120 -38 -58 -5 -10 -42 vhcurveto
            64 callsubr
            35 4 27 hhcurveto
            66 48 callgsubr
            15 92 113 callgsubr
            -637 hlineto
            endchar
          </CharString>
          <CharString index="191">
            rmoveto
            103 -116 hlineto
            -145 41 -51 115 -8 vhcurveto
            14 callgsubr
            4 -2 rlineto
            -176 149 284 vlineto
            16 34 40 8 50 18 callgsubr
            91 329 107 -895 vlineto
            249 callgsubr
            endchar
          </CharString>
          <CharString index="192">
            rmoveto
            411 -296 hlineto
            89 callsubr
            -122 -46 -46 -140 -68 callsubr
            hvcurveto
            2 -78 114 callgsubr
            9 51 18 callgsubr
            -2 91 331 107 -890 hlineto
            endchar
          </CharString>
          <CharString index="193">
            rmoveto
            269 -67 hlineto
            -162 -9 -42 -48 -157 vvcurveto
            -129 31 -54 113 -18 vhcurveto
            -66 -123 rlineto
            195 callgsubr
            -676 vlineto
            198 -383 19 callgsubr
          </CharString>
          <CharString index="194">
            rmoveto
            6 -27 -26 2 -25 hhcurveto
            -27 -27 -2 -6 -27 hvcurveto
            -3 -24 -1 -20 -17 vvcurveto
            -19 1 -18 3 -23 vhcurveto
            -5 27 25 -3 26 hhcurveto
            26 27 3 5 28 hvcurveto
            2 24 1 18 19 vvcurveto
            17 -1 19 -2 24 vhcurveto
            return
          </CharString>
          <CharString index="195">
            -208 -65 -107 callsubr
            -49 callsubr
            -86 70 -51 171 14 16 1 2 18 vhcurveto
            -1 -2 rlineto
            223 callsubr
            119 152 rlineto
            99 vlineto
            -18 -45 -73 -13 -61 hhcurveto
            -115 -22 13 28 262 callgsubr
            return
          </CharString>
          <CharString index="196">
            -38 callsubr
            -89 -14 17 50 50 156 callsubr
            return
          </CharString>
          <CharString index="197">
            rmoveto
            307 66 callsubr
            -119 48 -58 80 -22 hvcurveto
            -66 -124 rlineto
            -4 149 vlineto
            42 116 rlineto
            2 2 0 2 hhcurveto
            44 -116 -39 callgsubr
            -72 124 17 3 16 4 16 4 rlinecurve
            114 2 callsubr
            -558 hlineto
            endchar
          </CharString>
          <CharString index="198">
            60 143 callgsubr
            return
          </CharString>
          <CharString index="199">
            14 callgsubr
            4 -2 rlineto
            -176 111 callsubr
            return
          </CharString>
          <CharString index="200">
            -107 396 -53 -132 vlineto
            99 callsubr
            return
          </CharString>
          <CharString index="201">
            rmoveto
            428 -66 callgsubr
            -128 -60 -54 -134 -21 1 -18 3 -17 hvcurveto
            -14 -42 -43 -4 -51 hhcurveto
            -81 -23 13 38 40 22 12 75 hvcurveto
            -46 callsubr
            14 107 return
          </CharString>
          <CharString index="202">
            rmoveto
            411 -286 hlineto
            -38 callsubr
            6 callsubr
            -122 -46 -46 -130 -128 51 -46 165 hvcurveto
            -2 vlineto
            -31 -24 -33 -42 -27 -38 -73 callgsubr
            58 134 1 1 rlineto
            2 -102 114 callgsubr
            return
          </CharString>
          <CharString index="203">
            87 vlineto
            244 callgsubr
            243 -16 rmoveto
            5 -19 -20 1 -20 hhcurveto
            -20 -20 -1 -5 -20 hvcurveto
            -2 -18 -2 -14 -11 vvcurveto
            -13 2 -13 2 -16 vhcurveto
            -5 20 19 -2 20 hhcurveto
            20 20 2 5 20 hvcurveto
            2 17 2 14 12 vvcurveto
            12 -2 12 -2 18 vhcurveto
            endchar
          </CharString>
          <CharString index="204">
            -46 -40 -107 callsubr
            89 -233 hlineto
            -189 67 -72 164 97 74 14 13 55 vhcurveto
            117 vlineto
            -4 2 rlineto
            -10 -41 -63 -10 -67 hhcurveto
            -112 -23 21 93 hvcurveto
            254 173 -100 vlineto
            -55 -11 -15 -50 -22 -23 3 4 -17 vhcurveto
            -4 -1 rlineto
            -109 vlineto
            -8 28 35 -6 40 hhcurveto
            104 57 53 129 hvcurveto
            105 100 107 -646 vlineto
            return
          </CharString>
          <CharString index="205">
            833 81 callgsubr
            return
          </CharString>
          <CharString index="206">
            -21 callsubr
            50 hlineto
            84 13 -7 -29 -29 -15 -7 -89 -87 -17 155 callsubr
            49 -7 66 hhcurveto
            138 54 36 107 113 -47 26 -152 hvcurveto
            -72 212 callsubr
            246 160 90 107 return
          </CharString>
          <CharString index="207">
            -53 -260 186 callgsubr
            134 55 34 101 3 hvcurveto
            110 -1 hlineto
            -3 vlineto
            -56 -48 -48 -53 -57 -68 -73 callgsubr
            return
          </CharString>
          <CharString index="208">
            285 269 126 207 callgsubr
            -640 374 rmoveto
            612 -84 hlineto
            -83 -8 -46 -28 -19 -43 rrcurveto
            10 callsubr
            return
          </CharString>
          <CharString index="209">
            -21 callsubr
            65 hlineto
            74 13 -7 -29 -29 -25 -7 -89 -77 -37 155 callsubr
            59 -7 56 hhcurveto
            151 61 41 100 100 -48 41 -136 hvcurveto
            -92 212 callsubr
            return
          </CharString>
          <CharString index="210">
            46 callsubr
            -123 -68 -47 -140 -78 callsubr
            hvcurveto
            -102 190 45 callsubr
            endchar
          </CharString>
          <CharString index="211">
            64 callsubr
            45 4 37 hhcurveto
            56 48 callgsubr
            17 90 113 callgsubr
            return
          </CharString>
          <CharString index="212">
            rmoveto
            118 callsubr
            127 55 30 88 9 hvcurveto
            return
          </CharString>
          <CharString index="213">
            -61 -20 -117 -24 3 -28 7 -25 hvcurveto
            203 callsubr
            -54 222 callsubr
            43 25 13 72 hvcurveto
            -30 callgsubr
            return
          </CharString>
          <CharString index="214">
            rmoveto
            501 -97 -372 -116 30 hlineto
            189 callgsubr
            -748 vlineto
            endchar
          </CharString>
          <CharString index="215">
            85 10 262 rmoveto
            60 -253 275 callgsubr
            -277 -250 -60 hlineto
            329 -130 rmoveto
            130 -109 115 94 vlineto
            83 callgsubr
            118 hlineto
            endchar
          </CharString>
          <CharString index="216">
            hlineto
            -218 255 rlineto
            -172 -3 hlineto
            72 -88 67 -76 64 -52 56 -32 rlinecurve
            7 -4 rlineto
            return
          </CharString>
          <CharString index="217">
            rmoveto
            307 128 callsubr
            -558 hlineto
            endchar
          </CharString>
          <CharString index="218">
            149 283 vlineto
            35 callgsubr
            122 231 callsubr
            -165 -83 callgsubr
            91 431 107 return
          </CharString>
          <CharString index="219">
            237 callgsubr
            -12 hlineto
            -90 callgsubr
            154 1 rlineto
            -59 3 27 -16 88 hhcurveto
            -62 callsubr
            return
          </CharString>
          <CharString index="220">
            rmoveto
            263 -67 hlineto
            -68 -17 -14 -106 vhcurveto
            -48 -150 hlineto
            -153 38 -42 220 170 38 57 75 -2 vhcurveto
            2 1 rlineto
            -20 return
          </CharString>
          <CharString index="221">
            464 rmoveto
            -92 callsubr
            -1 0 -1 -1 vvcurveto
            -170 -100 callgsubr
            285 -67 callgsubr
            return
          </CharString>
          <CharString index="222">
            117 callsubr
            endchar
          </CharString>
          <CharString index="223">
            124 callsubr
            -115 -45 hlineto
            return
          </CharString>
          <CharString index="224">
            rmoveto
            67 52 37 86 29 -5 22 0 hvcurveto
            -112 hlineto
            1 -6 1 -6 -5 vvcurveto
            -28 -16 -11 -23 vhcurveto
            -65 -106 69 -73 hhcurveto
            -66 -52 -37 -86 -27 4 -24 0 hvcurveto
            112 hlineto
            -1 6 -1 6 5 vvcurveto
            27 16 12 24 vhcurveto
            64 107 -69 72 hhcurveto
            return
          </CharString>
          <CharString index="225">
            445 hlineto
            1 -53 rlineto
            -172 186 callgsubr
            return
          </CharString>
          <CharString index="226">
            198 callgsubr
            163 -191 -204 49 callgsubr
            return
          </CharString>
          <CharString index="227">
            rmoveto
            51 callsubr
            65 65 -18 callsubr
            -121 -28 callgsubr
            -103 vlineto
            163 -57 59 -160 -160 163 callsubr
            endchar
          </CharString>
          <CharString index="228">
            rmoveto
            51 callsubr
            55 55 -18 callsubr
            -123 -28 callgsubr
            -101 vlineto
            163 -57 59 -150 -150 163 callsubr
            endchar
          </CharString>
          <CharString index="229">
            vlineto
            -41 callsubr
            vhcurveto
            144 3 hlineto
            -102 callsubr
            32 35 -5 -9 32 vhcurveto
            -48 callsubr
            return
          </CharString>
          <CharString index="230">
            hhcurveto
            126 callsubr
            return
          </CharString>
          <CharString index="231">
            -25 callgsubr
            129 143 callsubr
            return
          </CharString>
          <CharString index="232">
            rmoveto
            -79 callsubr
            131 -3 vlineto
            77 callgsubr
            60 -51 141 73 66 12 19 43 vhcurveto
            3 -2 rlineto
            -74 -105 callgsubr
            return
          </CharString>
          <CharString index="233">
            279 callgsubr
            -103 -231 214 callgsubr
            return
          </CharString>
          <CharString index="234">
            -2 -1 rcurveline
            18 -18 -38 17 -65 hhcurveto
            -121 -71 -58 -138 -136 69 -73 171 181 54 108 140 -5 hvcurveto
            -230 -111 rmoveto
            -65 -24 29 46 46 24 28 65 63 26 -28 -46 -46 -26 -29 -63 hvcurveto
            endchar
          </CharString>
          <CharString index="235">
            66 callsubr
            -170 90 -48 141 130 callsubr
            144 180 113 107 return
          </CharString>
          <CharString index="236">
            hlineto
            206 -214 -2 callsubr
            endchar
          </CharString>
          <CharString index="237">
            86 58 8 15 54 hvcurveto
            121 44 callgsubr
            return
          </CharString>
          <CharString index="238">
            rmoveto
            100 vlineto
            212 -141 rlineto
            -1 -10 -1 -10 -11 vvcurveto
            -7 -33 -34 -4 -35 -94 callsubr
            407 134 rmoveto
            -92 -62 -25 -80 -28 hvcurveto
            -225 155 rlineto
            14 461 17 callsubr
            return
          </CharString>
          <CharString index="239">
            rmoveto
            2 -22 1 -15 -16 vvcurveto
            -16 -1 -16 -2 -21 vhcurveto
            -5 -26 -25 -3 -25 hhcurveto
            -24 -24 3 5 -25 hvcurveto
            -3 20 -1 16 16 vvcurveto
            15 1 17 3 22 vhcurveto
            5 25 25 2 25 hhcurveto
            24 25 -2 -5 25 hvcurveto
            endchar
          </CharString>
          <CharString index="240">
            213 callgsubr
            -11 -3 -11 -4 -11 -2 -53 callgsubr
            rcurveline
            46 callsubr
            return
          </CharString>
          <CharString index="241">
            120 callgsubr
            43 -3 36 -8 28 hvcurveto
            175 hlineto
            60 15 -9 -28 -28 -15 -9 -60 hvcurveto
            -78 -57 hlineto
            -117 82 -49 155 57 60 7 11 31 vhcurveto
            2 -1 rlineto
            -37 148 -102 callgsubr
            return
          </CharString>
          <CharString index="242">
            -62 callsubr
            124 -2 hlineto
            -57 -54 -80 -87 -40 -64 rrcurveto
            -98 callsubr
            71 127 rlineto
            2 -115 139 -102 callgsubr
            -249 -287 -175 102 hlineto
            -43 callgsubr
            return
          </CharString>
          <CharString index="243">
            rmoveto
            -26 callgsubr
            6 -1 7 -44 callgsubr
            -69 -22 243 callgsubr
            endchar
          </CharString>
          <CharString index="244">
            160 callsubr
            151 60 22 52 23 vhcurveto
            6 hlineto
            85 23 10 80 3 hvcurveto
            144 1 rlineto
            -210 -105 callgsubr
            return
          </CharString>
          <CharString index="245">
            213 callgsubr
            -16 -36 -49 -10 -54 hhcurveto
            -91 -20 12 58 198 callsubr
            return
          </CharString>
          <CharString index="246">
            179 callsubr
            -121 47 -68 123 76 56 25 39 18 vhcurveto
            3 hlineto
            8 -55 rlineto
            return
          </CharString>
          <CharString index="247">
            -2 vlineto
            -41 -14 -24 -39 -72 vvcurveto
            -120 69 -54 182 190 49 69 99 vhcurveto
            272 -126 -34 vlineto
            -47 -21 -2 -91 -101 -54 callgsubr
            91 vhcurveto
            249 179 107 107 return
          </CharString>
          <CharString index="248">
            50 callsubr
            292 -186 -106 callgsubr
            return
          </CharString>
          <CharString index="249">
            -94 callgsubr
            -758 vlineto
            197 -337 -99 callgsubr
            return
          </CharString>
          <CharString index="250">
            199 callsubr
            193 callsubr
            return
          </CharString>
          <CharString index="251">
            hhcurveto
            90 67 11 14 38 hvcurveto
            162 callsubr
            return
          </CharString>
          <CharString index="252">
            -89 callsubr
            18 14 -2 -4 11 vhcurveto
            -1 -11 -1 -12 -12 vvcurveto
            -137 67 return
          </CharString>
          <CharString index="253">
            19 25 3 3 14 hvcurveto
            4 -3 19 -84 rlineto
            -9 -24 -46 -8 -38 hhcurveto
            -96 -50 25 112 94 return
          </CharString>
          <CharString index="254">
            -87 callsubr
            -76 20 -17 80 166 callsubr
            return
          </CharString>
          <CharString index="255">
            162 callsubr
            -170 -78 -74 -176 return
          </CharString>
          <CharString index="256">
            vlineto
            -39 11 30 -11 75 165 callsubr
            return
          </CharString>
          <CharString index="257">
            220 9 rmoveto
            250 vlineto
            69 1 24 27 56 37 callgsubr
            171 -54 48 -116 -82 -49 -34 -60 -19 vhcurveto
            -3 return
          </CharString>
          <CharString index="258">
            265 callgsubr
            -101 -32 rmoveto
            -26 -8 11 23 22 8 11 26 26 9 -11 -22 -23 -9 -11 -26 hvcurveto
            endchar
          </CharString>
          <CharString index="259">
            rmoveto
            107 -458 -107 154 -202 vlineto
            26 callgsubr
            vlineto
            endchar
          </CharString>
          <CharString index="260">
            -65 callsubr
            263 vlineto
            -32 11 26 -9 57 hhcurveto
            -69 callsubr
            return
          </CharString>
          <CharString index="261">
            -79 -75 -22 13 38 40 22 13 75 hvcurveto
            -46 callsubr
            29 107 -354 -107 134 -3 hlineto
            -19 -13 -11 -19 -29 vvcurveto
            return
          </CharString>
          <CharString index="262">
            7 29 hvcurveto
            8 -103 -231 38 callgsubr
            return
          </CharString>
          <CharString index="263">
            14 17 62 36 27 -5 -6 23 hvcurveto
            4 1 2 114 rlineto
            11 -37 -51 6 -47 hhcurveto
            return
          </CharString>
          <CharString index="264">
            -305 vlineto
            84 callgsubr
            return
          </CharString>
          <CharString index="265">
            rmoveto
            1 -384 rlineto
            -94 -16 -22 -84 -54 -30 6 14 -41 vhcurveto
            -4 -2 rlineto
            -137 vlineto
            -17 52 40 -6 68 hhcurveto
            165 63 78 163 hvcurveto
            401 vlineto
            return
          </CharString>
          <CharString index="266">
            234 callsubr
            -62 callgsubr
            57 -19 return
          </CharString>
          <CharString index="267">
            -24 callgsubr
            -74 -4 -41 -49 -65 vvcurveto
            -111 40 -51 191 return
          </CharString>
          <CharString index="268">
            vlineto
            -13 1 -24 6 -12 vhcurveto
            -1 -1 rlineto
            7 -13 -13 1 -23 hhcurveto
            -90 -130 90 hlineto
            23 13 1 7 13 hvcurveto
            1 -1 rlineto
            -6 -12 -1 -24 -13 vvcurveto
            return
          </CharString>
          <CharString index="269">
            111 vlineto
            -4 3 rlineto
            -7 -48 -40 -3 -69 hhcurveto
            -104 -40 13 59 -10 hvcurveto
            329 hlineto
            4 4 rlineto
            5 28 2 31 25 vvcurveto
            130 -60 82 -181 return
          </CharString>
          <CharString index="270">
            -50 1 callgsubr
            return
          </CharString>
          <CharString index="271">
            rmoveto
            115 hlineto
            -113 145 rlineto
            -108 hlineto
            -107 -145 rlineto
            116 hlineto
            15 23 23 36 9 25 rrcurveto
            3 hlineto
            7 -25 25 -36 15 -23 rrcurveto
            return
          </CharString>
          <CharString index="272">
            hhcurveto
            84 21 12 68 4 hvcurveto
            124 1 rlineto
            -104 23 93 -46 155 -106 callsubr
            return
          </CharString>
          <CharString index="273">
            -1 callgsubr
            158 1 rlineto
            -119 22 93 -60 157 -106 callsubr
            return
          </CharString>
          <CharString index="274">
            rmoveto
            129 hlineto
            -133 -33 -30 -176 -187 -26 30 133 vhcurveto
            130 hlineto
            -48 8 -8 75 -1 vhcurveto
            75 -1 5 10 48 vvcurveto
            endchar
          </CharString>
          <CharString index="275">
            -105 vlineto
            -63 callsubr
            -121 -64 -54 -130 -13 1 return
          </CharString>
          <CharString index="276">
            230 226 callgsubr
          </CharString>
          <CharString index="277">
            -2 -6 -32 hvcurveto
            -5 -30 68 callsubr
            5 -26 vhcurveto
            -7 32 return
          </CharString>
          <CharString index="278">
            rmoveto
            -40 -16 -15 -63 -56 -23 15 40 35 23 22 56 63 16 -22 -35 vhcurveto
            return
          </CharString>
          <CharString index="279">
            rmoveto
            -64 -22 13 40 40 22 18 64 63 22 -18 -40 -40 -22 -13 -63 hvcurveto
            return
          </CharString>
          <CharString index="280">
            15 6 26 28 -15 5 -30 250 callgsubr
            -47 -40 return
          </CharString>
          <CharString index="281">
            -62 callsubr
            156 -159 -105 callgsubr
            -249 -327 -155 142 hlineto
            -43 callgsubr
            return
          </CharString>
          <CharString index="282">
            rmoveto
            -57 -4 -11 -86 1 vhcurveto
            -86 1 -7 9 57 vvcurveto
            -108 hlineto
            -125 25 -30 176 166 31 30 125 vhcurveto
            endchar
          </CharString>
          <CharString index="283">
            229 callgsubr
            endchar
          </CharString>
          <CharString index="284">
            5 -21 -23 2 -21 hhcurveto
            -22 -23 -2 -5 -21 hvcurveto
            -3 -19 0 -15 -14 vvcurveto
            -14 0 -13 3 -18 vhcurveto
            -6 21 23 -3 20 hhcurveto
            return
          </CharString>
          <CharString index="285">
            20 callsubr
            -116 hlineto
            -29 callgsubr
            return
          </CharString>
          <CharString index="286">
            373 496 rmoveto
            -277 vlineto
            -53 -1 -18 -20 -62 hhcurveto
            -66 -15 22 60 hvcurveto
            -1 268 rlineto
            -160 -307 hlineto
            return
          </CharString>
          <CharString index="287">
            vvcurveto
            37 95 callgsubr
            -44 vvcurveto
            return
          </CharString>
          <CharString index="288">
            198 callsubr
            -135 -53 -54 -134 return
          </CharString>
          <CharString index="289">
            -357 155 357 195 -357 160 487 -355 33 vlineto
            34 16 17 45 17 20 -1 -3 20 vhcurveto
            return
          </CharString>
          <CharString index="290">
            259 callgsubr
            -153 vlineto
            -60 -21 -18 -75 -74 return
          </CharString>
          <CharString index="291">
            rmoveto
            51 24 17 85 50 36 3 10 24 vhcurveto
            2 -1 rlineto
            -80 vlineto
            -47 -21 -19 -86 -93 -21 15 51 vhcurveto
            endchar
          </CharString>
          <CharString index="292">
            0 callgsubr
            144 return
          </CharString>
          <CharString index="293">
            75 337 642 rmoveto
            -277 -633 275 callgsubr
            return
          </CharString>
          <CharString index="294">
            -23 callgsubr
            -8 0 -8 1 -8 hvcurveto
            -9 -30 -37 -6 -37 -75 callgsubr
            return
          </CharString>
          <CharString index="295">
            21 21 10 25 48 vvcurveto
            93 -72 52 -148 -151 -70 -53 -103 -80 30 -38 45 -19 vhcurveto
            -3 vlineto
            return
          </CharString>
          <CharString index="296">
            rmoveto
            -75 -56 -176 -165 -72 -81 rrcurveto
            -98 callsubr
            159 164 rlineto
            142 vlineto
            endchar
          </CharString>
          <CharString index="297">
            hlineto
            -83 -22 16 36 36 12 17 63 hvcurveto
            return
          </CharString>
          <CharString index="298">
            vlineto
            -70 -14 -19 -48 -48 -14 19 70 vhcurveto
            return
          </CharString>
          <CharString index="299">
            -60 500 103 callgsubr
            return
          </CharString>
          <CharString index="300">
            123 2 hlineto
            -2 6 -1 8 7 vvcurveto
            26 12 19 35 34 14 -16 -40 -59 -36 -19 -92 vhcurveto
            return
          </CharString>
          <CharString index="301">
            rmoveto
            -129 196 rlineto
            -136 hlineto
            131 -196 -131 -194 rlineto
            136 hlineto
            endchar
          </CharString>
          <CharString index="302">
            hlineto
            -43 callgsubr
            -545 -107 162 return
          </CharString>
          <CharString index="303">
            257 callgsubr
            160 return
          </CharString>
          <CharString index="304">
            rmoveto
            70 15 -37 -78 -91 -25 -22 -63 -36 -26 5 10 -25 hvcurveto
            105 vlineto
            78 37 30 53 vhcurveto
            return
          </CharString>
          <CharString index="305">
            57 42 callgsubr
            116 63 callsubr
            return
          </CharString>
          <CharString index="306">
            66 59 121 116 -60 57 -114 -114 -63 -44 -107 -11 1 -11 2 -11 hvcurveto
            return
          </CharString>
          <CharString index="307">
            -141 -17 hlineto
            -24 -6 -4 -33 vhcurveto
            -173 125 410 107 -938 hlineto
            endchar
          </CharString>
          <CharString index="308">
            1 1 rlineto
            116 vlineto
            8 -25 -31 6 -35 hhcurveto
            -121 -62 -54 -132 hvcurveto
            -25 return
          </CharString>
          <CharString index="309">
            rmoveto
            -2 6 -1 8 9 vvcurveto
            30 15 19 38 37 15 -19 -45 -59 -46 -40 -107 vhcurveto
            return
          </CharString>
          <CharString index="310">
            110 2 hlineto
            -4 17 -3 20 18 vvcurveto
            46 8 15 33 33 10 -15 -46 -43 -1 return
          </CharString>
          <CharString index="311">
            48 -57 rrcurveto
            -9 hlineto
            -234 242 -168 -16 rlineto
            -3 -2 -3 2 -2 vhcurveto
            return
          </CharString>
          <CharString index="312">
            hhcurveto
            210 callsubr
            return
          </CharString>
          <CharString index="313">
            21 23 3 6 23 hvcurveto
            2 18 1 14 14 vvcurveto
            15 -1 13 -2 19 vhcurveto
            return
          </CharString>
          <CharString index="314">
            291 callgsubr
            210 153 return
          </CharString>
          <CharString index="315">
            -1 -17 hhcurveto
            -94 -34 17 64 hvcurveto
            return
          </CharString>
          <CharString index="316">
            hhcurveto
            193 87 30 104 48 hvcurveto
            5 -123 139 -102 callgsubr
            return
          </CharString>
          <CharString index="317">
            -108 -68 -25 -78 -17 hvcurveto
            -191 -100 callgsubr
            return
          </CharString>
          <CharString index="318">
            137 -41 50 -109 13 hvcurveto
            86 200 107 -940 vlineto
            endchar
          </CharString>
          <CharString index="319">
            hlineto
            -23 -15 4 25 25 15 4 23 hvcurveto
            return
          </CharString>
          <CharString index="320">
            149 36 19 52 23 hvcurveto
            3 hlineto
            -52 20 64 -19 119 hhcurveto
            return
          </CharString>
          <CharString index="321">
            -40 -107 callsubr
            100 60 callsubr
            -348 hlineto
            return
          </CharString>
          <CharString index="322">
            rmoveto
            1 -104 -2 -4 rlineto
            2 -16 -13 1 -15 hhcurveto
            -60 -18 -25 return
          </CharString>
          <CharString index="323">
            -31 -30 -107 callsubr
            386 -65 hlineto
            1 -28 -26 0 -20 hhcurveto
            return
          </CharString>
          <CharString index="324">
            -74 -21 -14 -64 -47 -38 6 8 -32 return
          </CharString>
          <CharString index="325">
            -2 vlineto
            -49 -33 -41 -33 -48 -45 rrcurveto
            -4 vlineto
            121 -40 return
          </CharString>
          <CharString index="326">
            29 115 -29 hlineto
            -93 -22 16 36 36 12 17 73 hvcurveto
            return
          </CharString>
          <CharString index="327">
            -55 530 507 rmoveto
            135 -520 -135 180 return
          </CharString>
          <CharString index="328">
            94 vlineto
            -3 2 rlineto
            -6 -27 -30 -3 -28 hhcurveto
            -53 -20 6 return
          </CharString>
          <CharString index="329">
            -16 -27 vhcurveto
            -36 -21 -53 -18 -95 hhcurveto
            -125 -37 20 45 return
          </CharString>
          <CharString index="330">
            -3 vlineto
            -46 -32 -37 -36 -28 -38 rrcurveto
            -4 165 vlineto
            return
          </CharString>
          <CharString index="331">
            hhcurveto
            -146 -65 -47 -114 -87 22 -72 37 -86 hvcurveto
            return
          </CharString>
          <CharString index="332">
            -324 217 607 rmoveto
            -6 hlineto
            163 -57 59 return
          </CharString>
          <CharString index="333">
            241 -68 84 -242 -242 -69 -84 -241 vhcurveto
            return
          </CharString>
          <CharString index="334">
            3 callgsubr
            -48 hlineto
            -240 -1 rlineto
            return
          </CharString>
          <CharString index="335">
            -18 callsubr
            -121 -107 109 vlineto
            endchar
          </CharString>
          <CharString index="336">
            vlineto
            84 17 17 51 41 20 -13 return
          </CharString>
          <CharString index="337">
            25 11 115 115 25 -11 return
          </CharString>
          <CharString index="338">
            46 46 140 142 -51 46 return
          </CharString>
          <CharString index="339">
            -55 -53 -9 -14 -31 hvcurveto
            140 return
          </CharString>
          <CharString index="340">
            vlineto
            3 -2 rlineto
            5 33 40 4 30 hhcurveto
            64 6 return
          </CharString>
          <CharString index="341">
            -2 -1 rlineto
            -114 vlineto
            -12 42 53 -8 67 hhcurveto
            return
          </CharString>
          <CharString index="342">
            rmoveto
            238 callsubr
            return
          </CharString>
          <CharString index="343">
            -333 314 callgsubr
            return
          </CharString>
          <CharString index="344">
            134 421 -116 -34 vlineto
            -47 -21 -2 -85 return
          </CharString>
          <CharString index="345">
            166 2 hlineto
            -39 57 -67 79 -65 44 rrcurveto
            return
          </CharString>
          <CharString index="346">
            rmoveto
            7 -31 -30 2 -30 hhcurveto
            -30 -31 -2 -7 return
          </CharString>
          <CharString index="347">
            rmoveto
            -33 77 -22 80 55 vvcurveto
            48 28 33 90 return
          </CharString>
          <CharString index="348">
            186 486 rmoveto
            14 229 -171 vlineto
            return
          </CharString>
          <CharString index="349">
            -137 67 -51 133 59 47 9 15 27 return
          </CharString>
          <CharString index="350">
            110 -39 59 -160 18 return
          </CharString>
          <CharString index="351">
            102 vlineto
            -2 1 rlineto
            -4 -34 return
          </CharString>
          <CharString index="352">
            rlineto
            -153 hlineto
            -2 -1 -1 1 -2 vhcurveto
            return
          </CharString>
          <CharString index="353">
            296 84 rmoveto
            102 74 18 34 65 hvcurveto
            return
          </CharString>
          <CharString index="354">
            220 9 rmoveto
            633 -160 -633 return
          </CharString>
          <CharString index="355">
            -66 vlineto
            1 -37 -40 0 -36 hhcurveto
            endchar
          </CharString>
        <CharString name=".notdef">
          65 80 674 rmoveto
          -674 500 674 vlineto
          -400 -574 rmoveto
          474 300 -474 vlineto
          endchar
        </CharString>
        <CharString name="A">
          -70 callgsubr
          endchar
        </CharString>
        <CharString name="AE">
          355 456 528 rmoveto
          4 -273 -139 hlineto
          52 104 54 108 29 61 rrcurveto
          474 -389 rmoveto
          -310 123 269 130 -269 120 310 130 -587 hlineto
          -333 -631 rlineto
          -2 189 vlineto
          14 28 21 43 25 50 rrcurveto
          201 -121 470 hlineto
          endchar
        </CharString>
        <CharString name="Aacute">
          -70 callgsubr
          -139 92 callgsubr
        </CharString>
        <CharString name="Abreve">
          -70 callgsubr
          -223 828 175 callsubr
        </CharString>
        <CharString name="Acircumflex">
          -70 callgsubr
          -266 682 -104 callsubr
        </CharString>
        <CharString name="Adieresis">
          -70 callgsubr
          -342 771 -37 callgsubr
        </CharString>
        <CharString name="Agrave">
          -70 callgsubr
          -482 820 -95 callgsubr
        </CharString>
        <CharString name="Amacron">
          -70 callgsubr
          -163 773 -80 callsubr
        </CharString>
        <CharString name="Aogonek">
          86 323 528 rmoveto
          4 hlineto
          13 -68 28 -104 29 -101 rrcurveto
          -143 hlineto
          28 101 28 104 13 68 rrcurveto
          317 -516 rmoveto
          -205 630 rlineto
          -220 hlineto
          -205 -631 rlineto
          -2 170 vlineto
          10 32 13 42 14 47 rrcurveto
          216 hlineto
          14 -47 13 -42 10 -32 rrcurveto
          90 hlineto
          -29 callsubr
          1 hlineto
          endchar
        </CharString>
        <CharString name="Aring">
          -70 callgsubr
          -315 736 204 callgsubr
        </CharString>
        <CharString name="Atilde">
          -70 callgsubr
          -221 673 -68 callgsubr
        </CharString>
        <CharString name="B">
          31 596 171 rmoveto
          105 -43 43 -136 11 vhcurveto
          3 vlineto
          122 10 37 51 94 vvcurveto
          101 -48 53 -166 vhcurveto
          -263 hlineto
          -39 -633 312 hlineto
          166 58 55 107 hvcurveto
          -258 90 rmoveto
          65 28 -13 -50 -50 -28 -14 -65 hvcurveto
          -118 127 hlineto
          98 255 rmoveto
          65 28 -14 -48 -49 -28 -13 -65 hvcurveto
          -98 124 hlineto
          endchar
        </CharString>
        <CharString name="C">
          -20 callgsubr
          endchar
        </CharString>
        <CharString name="CR">
          -295 endchar
        </CharString>
        <CharString name="Cacute">
          -20 callgsubr
          -79 810 -101 callgsubr
        </CharString>
        <CharString name="Ccaron">
          -20 callgsubr
          -43 816 -99 callsubr
        </CharString>
        <CharString name="Ccedilla">
          180 callgsubr
          -257 65 -67 189 -6 hvcurveto
          -19 -92 rlineto
          -52 callsubr
          9 36 55 2 44 6 49 11 rlinecurve
          endchar
        </CharString>
        <CharString name="Ccircumflex">
          -20 callgsubr
          -137 671 -104 callsubr
        </CharString>
        <CharString name="Cdotaccent">
          -20 callgsubr
          -124 772 -69 callgsubr
        </CharString>
        <CharString name="D">
          186 callsubr
          -23 -135 rmoveto
          83 callgsubr
          363 hlineto
          endchar
        </CharString>
        <CharString name="Dcaron">
          186 callsubr
          132 194 44 callsubr
          -42 -184 rmoveto
          83 callgsubr
          363 hlineto
          endchar
        </CharString>
        <CharString name="Dcroat">
          108 callsubr
        </CharString>
        <CharString name="Delta">
          125 417 655 rmoveto
          -114 hlineto
          -293 -652 rlineto
          700 hlineto
          -527 112 rmoveto
          177 391 177 -391 rlineto
          endchar
        </CharString>
        <CharString name="E">
          -82 callsubr
          endchar
        </CharString>
        <CharString name="Eacute">
          -82 callsubr
          430 188 -101 callgsubr
        </CharString>
        <CharString name="Ebreve">
          -82 callsubr
          327 195 rmoveto
          -57 -4 -11 -86 1 vhcurveto
          -86 1 -7 9 57 vvcurveto
          -108 hlineto
          -125 25 -30 176 166 31 30 125 vhcurveto
          endchar
        </CharString>
        <CharString name="Ecaron">
          -82 callsubr
          399 194 -99 callsubr
        </CharString>
        <CharString name="Ecircumflex">
          -82 callsubr
          284 49 -104 callsubr
        </CharString>
        <CharString name="Edieresis">
          -82 callsubr
          208 138 -37 callgsubr
        </CharString>
        <CharString name="Edotaccent">
          -82 callsubr
          307 150 rmoveto
          5 -25 -23 2 -23 hhcurveto
          -24 -23 -84 callgsubr
          -2 -20 -1 -16 -14 vvcurveto
          -14 1 -18 2 -19 vhcurveto
          -5 25 23 -2 22 hhcurveto
          24 23 2 5 26 hvcurveto
          1 20 1 16 15 vvcurveto
          14 -1 16 -1 20 vhcurveto
          endchar
        </CharString>
        <CharString name="Egrave">
          -82 callsubr
          60 187 -95 callgsubr
        </CharString>
        <CharString name="Emacron">
          -82 callsubr
          387 140 rmoveto
          -304 -100 304 hlineto
          endchar
        </CharString>
        <CharString name="Eng">
          95 60 9 rmoveto
          160 244 hlineto
          52 -2 54 -18 64 vhcurveto
          3 4 30 -60 16 -27 42 -63 rlinecurve
          180 -268 rlineto
          -78 -3 -19 -19 -78 hhcurveto
          -26 -22 2 3 -19 hvcurveto
          -3 -3 rlineto
          -136 vlineto
          -6 29 31 -2 41 hhcurveto
          164 63 77 162 1 hvcurveto
          633 -160 -254 vlineto
          -52 7 -52 13 -56 vhcurveto
          -3 -4 -30 60 -16 27 -42 63 rlinecurve
          -180 268 rlineto
          -159 hlineto
          endchar
        </CharString>
        <CharString name="Eogonek">
          -45 593 -127 rmoveto
          -4 callgsubr
          29 11 29 17 26 hvcurveto
          130 88 callgsubr
          -633 391 vlineto
          -33 -26 -17 -46 -44 -23 callsubr
          rlineto
          endchar
        </CharString>
        <CharString name="Eth">
          108 callsubr
        </CharString>
        <CharString name="Euro">
          25 595 288 callgsubr
          -78 -40 10 51 -19 hvcurveto
          183 110 -198 hlineto
          8 0 9 10 5 0 4 4 vvcurveto
          198 110 -186 hlineto
          54 18 41 10 81 hhcurveto
          76 45 -6 -13 56 hvcurveto
          3 2 rlineto
          130 vlineto
          14 -64 -55 6 -84 hhcurveto
          -177 -81 -39 -158 -23 hvcurveto
          -81 -110 73 hlineto
          -4 0 -5 -4 -9 0 -9 -9 vvcurveto
          -73 -110 82 hlineto
          -156 25 82 -38 173 hhcurveto
          84 55 6 14 64 hvcurveto
          endchar
        </CharString>
        <CharString name="F">
          -50 220 9 rmoveto
          228 290 130 -290 145 310 130 -470 -633 vlineto
          endchar
        </CharString>
        <CharString name="G">
          91 callsubr
          endchar
        </CharString>
        <CharString name="Gbreve">
          54 callgsubr
          -50 698 -35 callgsubr
        </CharString>
        <CharString name="Gcircumflex">
          54 callgsubr
          -93 552 -104 callsubr
        </CharString>
        <CharString name="Gdotaccent">
          54 callgsubr
          -70 653 -69 callgsubr
        </CharString>
        <CharString name="H">
          236 callgsubr
          endchar
        </CharString>
        <CharString name="Hbar">
          85 220 310 rmoveto
          70 240 -70 vlineto
          -240 -301 rmoveto
          181 240 -181 160 633 -160 -142 -240 142 -160 -633 vlineto
          endchar
        </CharString>
        <CharString name="Hcircumflex">
          236 callgsubr
          329 682 -104 callsubr
        </CharString>
        <CharString name="I">
          -315 -44 callsubr
          endchar
        </CharString>
        <CharString name="IJ">
          148 220 61 callsubr
          468 633 rmoveto
          1 -384 rlineto
          -94 -16 -22 -84 -54 -30 6 14 -41 vhcurveto
          -4 -2 rlineto
          -137 vlineto
          -17 52 40 -6 68 hhcurveto
          165 63 78 163 hvcurveto
          401 vlineto
          endchar
        </CharString>
        <CharString name="Iacute">
          -295 220 61 callsubr
          260 92 callgsubr
        </CharString>
        <CharString name="Ibreve">
          -312 -44 callsubr
          168 828 -35 callgsubr
        </CharString>
        <CharString name="Icircumflex">
          -320 -44 callsubr
          140 682 -104 callsubr
        </CharString>
        <CharString name="Idieresis">
          -236 255 9 rmoveto
          633 -160 -633 vlineto
          237 771 -52 callgsubr
        </CharString>
        <CharString name="Idotaccent">
          -315 -44 callsubr
          153 783 -69 callgsubr
        </CharString>
        <CharString name="Igrave">
          -315 -44 callsubr
          -103 820 -95 callgsubr
        </CharString>
        <CharString name="Imacron">
          -231 262 61 callsubr
          232 773 -80 callsubr
        </CharString>
        <CharString name="Iogonek">
          -313 247 callsubr
          81 vlineto
          -29 callsubr
          endchar
        </CharString>
        <CharString name="Itilde">
          -341 -44 callsubr
          181 673 -68 callgsubr
        </CharString>
        <CharString name="J">
          -132 248 642 158 callsubr
          endchar
        </CharString>
        <CharString name="Jcircumflex">
          -133 248 642 158 callsubr
          -26 49 -104 callsubr
        </CharString>
        <CharString name="K">
          147 callgsubr
          endchar
        </CharString>
        <CharString name="L">
          -7 callgsubr
          endchar
        </CharString>
        <CharString name="Lacute">
          -7 callgsubr
          -200 92 callgsubr
        </CharString>
        <CharString name="Lcaron">
          -7 callgsubr
          -225 827 -99 callsubr
        </CharString>
        <CharString name="Ldot">
          -35 520 145 rmoveto
          -300 497 -160 -633 460 hlineto
          -35 430 34 callsubr
        </CharString>
        <CharString name="Lslash">
          -7 callgsubr
          endchar
        </CharString>
        <CharString name="M">
          273 349 41 rmoveto
          172 hlineto
          53 179 72 260 13 53 4 -1 rcurveline
          -5 -36 -4 -79 -54 vvcurveto
          -354 151 633 -264 vlineto
          -36 -142 -54 -182 -13 -102 rrcurveto
          -2 hlineto
          -14 102 -55 183 -36 141 rrcurveto
          -268 -633 153 354 hlineto
          54 -4 79 -5 36 vhcurveto
          4 1 13 -53 69 -259 56 -180 rlinecurve
          endchar
        </CharString>
        <CharString name="N">
          -33 callsubr
          endchar
        </CharString>
        <CharString name="NULL">
          -595 endchar
        </CharString>
        <CharString name="Nacute">
          -33 callsubr
          70 442 -101 callgsubr
        </CharString>
        <CharString name="Ncaron">
          -33 callsubr
          48 448 -99 callsubr
        </CharString>
        <CharString name="Ntilde">
          -33 callsubr
          -31 294 -68 callgsubr
        </CharString>
        <CharString name="O">
          -83 callsubr
          endchar
        </CharString>
        <CharString name="OE">
          386 200 326 rmoveto
          143 24 42 127 86 54 -19 -56 vhcurveto
          -220 vlineto
          -56 -54 -19 -86 -127 -24 42 143 vhcurveto
          761 -187 rmoveto
          88 callgsubr
          -40 -1 hlineto
          29 -21 -57 20 -81 hhcurveto
          -222 -69 -84 -241 -241 69 -84 222 81 57 20 29 21 hvcurveto
          1 -41 470 hlineto
          endchar
        </CharString>
        <CharString name="Oacute">
          -83 callsubr
          179 690 -101 callgsubr
        </CharString>
        <CharString name="Obreve">
          -83 callsubr
          92 697 -35 callgsubr
        </CharString>
        <CharString name="Ocircumflex">
          -83 callsubr
          49 551 -104 callsubr
        </CharString>
        <CharString name="Odieresis">
          -83 callsubr
          157 640 -52 callgsubr
        </CharString>
        <CharString name="Ograve">
          -83 callsubr
          -181 689 -95 callgsubr
        </CharString>
        <CharString name="Ohungarumlaut">
          -83 callsubr
          51 687 -13 callgsubr
        </CharString>
        <CharString name="Omacron">
          -83 callsubr
          152 652 -80 callsubr
        </CharString>
        <CharString name="Oslash">
          88 31 326 rmoveto
          -64 5 -53 11 -43 vhcurveto
          -57 -42 rlineto
          -115 1 vlineto
          97 72 rlineto
          -58 47 79 -23 128 hhcurveto
          242 68 83 243 63 -5 53 -11 43 hvcurveto
          57 42 rlineto
          115 -1 vlineto
          -97 -72 rlineto
          58 -46 -80 23 -127 hhcurveto
          -242 -69 -84 -241 hvcurveto
          160 hmoveto
          143 24 42 127 63 37 -10 -27 22 vhcurveto
          -272 -201 rlineto
          -1 16 0 18 19 vvcurveto
          151 -186 rmoveto
          -63 -38 10 27 -22 hvcurveto
          272 201 rlineto
          1 -16 0 -17 -19 vvcurveto
          -147 -22 -39 -128 vhcurveto
          endchar
        </CharString>
        <CharString name="Otilde">
          -83 callsubr
          94 542 -68 callgsubr
        </CharString>
        <CharString name="P">
          31 342 642 rmoveto
          -282 -633 160 155 122 hlineto
          190 69 71 168 177 -69 62 -190 hvcurveto
          -26 -131 rmoveto
          94 25 -32 -76 -80 -25 -28 -94 hvcurveto
          -96 216 hlineto
          endchar
        </CharString>
        <CharString name="Q">
          106 351 140 rmoveto
          -127 -24 39 147 143 24 42 127 128 22 -42 -143 -147 -22 -39 -128 hvcurveto
          -311 186 rmoveto
          -240 67 -84 236 -2 vhcurveto
          71 -127 rlineto
          182 3 hlineto
          -24 42 -33 49 -40 44 rrcurveto
          5 vlineto
          123 34 39 92 184 vvcurveto
          226 callsubr
          endchar
        </CharString>
        <CharString name="R">
          4 callgsubr
          -92 503 29 callgsubr
        </CharString>
        <CharString name="Racute">
          4 callgsubr
          32 290 callgsubr
          -2 -179 29 callgsubr
        </CharString>
        <CharString name="Rcaron">
          4 callgsubr
          40 827 44 callsubr
          -19 -179 29 callgsubr
        </CharString>
        <CharString name="S">
          -22 callgsubr
          endchar
        </CharString>
        <CharString name="Sacute">
          -22 callgsubr
          416 658 -101 callgsubr
        </CharString>
        <CharString name="Scaron">
          -22 callgsubr
          424 664 -99 callsubr
        </CharString>
        <CharString name="Scircumflex">
          -22 callgsubr
          309 519 -104 callsubr
        </CharString>
        <CharString name="T">
          80 callgsubr
          endchar
        </CharString>
        <CharString name="Tbar">
          220 callsubr
          -75 -180 -135 180 -288 160 288 180 135 -180 75 vlineto
          endchar
        </CharString>
        <CharString name="Tcaron">
          80 callgsubr
          84 329 -99 callsubr
        </CharString>
        <CharString name="Thorn">
          31 220 9 rmoveto
          164 122 vlineto
          190 69 71 158 167 -69 62 -190 hvcurveto
          -122 60 -160 -682 hlineto
          256 491 rmoveto
          94 25 -32 -66 -70 -25 -28 -94 hvcurveto
          -96 196 hlineto
          endchar
        </CharString>
        <CharString name="U">
          -79 callgsubr
          endchar
        </CharString>
        <CharString name="Uacute">
          -79 callgsubr
          -98 561 -101 callgsubr
        </CharString>
        <CharString name="Ubreve">
          -79 callgsubr
          -182 568 -35 callgsubr
        </CharString>
        <CharString name="Ucircumflex">
          -79 callgsubr
          -225 422 -104 callsubr
        </CharString>
        <CharString name="Udieresis">
          -79 callgsubr
          -116 511 -52 callgsubr
        </CharString>
        <CharString name="Ugrave">
          -79 callgsubr
          -438 560 -95 callgsubr
        </CharString>
        <CharString name="Uhungarumlaut">
          -79 callgsubr
          -192 561 -13 callgsubr
        </CharString>
        <CharString name="Umacron">
          -79 callgsubr
          -122 513 -80 callsubr
        </CharString>
        <CharString name="Uogonek">
          230 callgsubr
          -187 54 -75 196 -7 vhcurveto
          -26 -26 -14 -41 -40 -23 callsubr
          -2 3 rlineto
          -4 callgsubr
          26 9 27 15 24 hvcurveto
          165 13 48 76 178 vvcurveto
          endchar
        </CharString>
        <CharString name="Uring">
          -79 callgsubr
          -173 508 151 callsubr
        </CharString>
        <CharString name="Utilde">
          -79 callgsubr
          -180 413 -68 callgsubr
        </CharString>
        <CharString name="V">
          74 637 641 rmoveto
          -179 hlineto
          -43 -135 -59 -228 -19 -101 rrcurveto
          -4 hlineto
          -18 101 -61 229 -42 134 rrcurveto
          -179 hlineto
          187 -632 rlineto
          220 hlineto
          endchar
        </CharString>
        <CharString name="W">
          -37 callsubr
          endchar
        </CharString>
        <CharString name="Wacute">
          -37 callsubr
          -252 188 -101 callgsubr
        </CharString>
        <CharString name="Wcircumflex">
          -37 callsubr
          -377 49 -104 callsubr
        </CharString>
        <CharString name="Wdieresis">
          -37 callsubr
          -268 138 -52 callgsubr
        </CharString>
        <CharString name="Wgrave">
          -37 callsubr
          -622 187 -95 callgsubr
        </CharString>
        <CharString name="X">
          77 468 332 rmoveto
          5 vlineto
          173 305 rlineto
          -197 hlineto
          -106 -220 rlineto
          -3 hlineto
          -106 220 rlineto
          -197 hlineto
          173 -305 rlineto
          -5 vlineto
          -185 -323 rlineto
          200 hlineto
          115 224 rlineto
          3 hlineto
          115 -224 rlineto
          200 hlineto
          endchar
        </CharString>
        <CharString name="Y">
          -17 callgsubr
          endchar
        </CharString>
        <CharString name="Yacute">
          -17 callgsubr
          95 625 -101 callgsubr
        </CharString>
        <CharString name="Ycircumflex">
          -17 callgsubr
          -31 486 -104 callsubr
        </CharString>
        <CharString name="Ydieresis">
          -17 callgsubr
          -107 575 -37 callgsubr
        </CharString>
        <CharString name="Ygrave">
          -17 callgsubr
          -275 624 -95 callgsubr
        </CharString>
        <CharString name="Z">
          11 callgsubr
          endchar
        </CharString>
        <CharString name="Zacute">
          11 callgsubr
          414 317 -101 callgsubr
        </CharString>
        <CharString name="Zcaron">
          11 callgsubr
          418 323 rmoveto
          -115 hlineto
          -15 -23 -25 -36 -7 -25 rrcurveto
          -3 hlineto
          -9 25 -23 36 -15 23 rrcurveto
          -116 hlineto
          107 -145 rlineto
          108 hlineto
          endchar
        </CharString>
        <CharString name="Zdotaccent">
          11 callgsubr
          326 279 -69 callgsubr
        </CharString>
        <CharString name="a">
          -86 callsubr
          endchar
        </CharString>
        <CharString name="aacute">
          -86 callsubr
          185 189 -101 callgsubr
        </CharString>
        <CharString name="abreve">
          -86 callsubr
          117 202 rmoveto
          -57 -4 -11 -86 1 vhcurveto
          -86 1 -7 9 57 vvcurveto
          -108 hlineto
          -125 25 -30 176 166 31 30 125 vhcurveto
          endchar
        </CharString>
        <CharString name="acircumflex">
          -86 callsubr
          74 50 rmoveto
          115 hlineto
          -113 145 rlineto
          -108 hlineto
          -107 -145 rlineto
          116 hlineto
          15 23 23 36 9 25 rrcurveto
          3 hlineto
          7 -25 25 -36 15 -23 rrcurveto
          endchar
        </CharString>
        <CharString name="acute">
          -315 260 830 -101 callgsubr
        </CharString>
        <CharString name="adieresis">
          -86 callsubr
          -3 142 -37 callgsubr
        </CharString>
        <CharString name="ae">
          283 612 501 rmoveto
          -75 -57 -14 -31 -40 hvcurveto
          34 -42 -64 11 -88 hhcurveto
          -61 -80 -11 -12 -40 hvcurveto
          -1 -116 3 -2 rlineto
          10 42 60 11 59 hhcurveto
          94 32 -14 -57 9 hvcurveto
          -149 hlineto
          -131 -58 -56 -92 -107 69 -55 124 102 58 22 57 29 hvcurveto
          2 hlineto
          -58 44 76 -21 104 144 callsubr
          vhcurveto
          102 -195 rmoveto
          -204 hlineto
          47 18 31 84 86 16 -31 -47 vhcurveto
          -465 -188 rmoveto
          -42 -35 10 34 28 20 18 59 hvcurveto
          115 hlineto
          1 -4 0 -4 -4 vvcurveto
          -65 -2 -39 -13 -77 hhcurveto
          endchar
        </CharString>
        <CharString name="agrave">
          -86 callsubr
          -150 197 -95 callgsubr
        </CharString>
        <CharString name="amacron">
          -86 callsubr
          177 150 rmoveto
          -304 -100 304 hlineto
          endchar
        </CharString>
        <CharString name="ampersand">
          47 446 261 rmoveto
          -2 hlineto
          -147 130 rlineto
          -40 35 -10 18 29 vvcurveto
          38 13 15 53 61 13 -15 -64 -2 vhcurveto
          146 32 hlineto
          131 -41 42 -179 -157 -52 -51 -111 -55 10 -33 33 -33 vhcurveto
          -2 -4 rlineto
          -55 -4 -48 -46 -114 vvcurveto
          -150 72 -51 199 87 65 17 32 44 vhcurveto
          50 -44 75 90 -61 53 rlineto
          6 21 3 25 26 vvcurveto
          124 -134 vlineto
          -216 -52 rmoveto
          165 -145 rlineto
          -2 vlineto
          -7 -21 -31 -4 -32 hhcurveto
          -97 -23 15 68 47 18 25 21 3 hvcurveto
          endchar
        </CharString>
        <CharString name="aogonek">
          151 callgsubr
          66 hlineto
          -29 callsubr
          244 vlineto
          202 -78 46 -191 vhcurveto
          endchar
        </CharString>
        <CharString name="approxequal">
          12 432 324 117 callsubr
          21 -210 115 callsubr
        </CharString>
        <CharString name="aring">
          -86 callsubr
          24 105 204 callgsubr
        </CharString>
        <CharString name="asciicircum">
          -37 380 642 rmoveto
          -202 hlineto
          -138 -324 rlineto
          144 hlineto
          94 210 rlineto
          2 hlineto
          93 -210 rlineto
          145 hlineto
          endchar
        </CharString>
        <CharString name="asciitilde">
          1 437 234 115 callsubr
        </CharString>
        <CharString name="asterisk">
          -91 143 512 rmoveto
          -88 28 -37 -111 89 -28 36 -11 20 0 28 4 rlinecurve
          1 -3 -27 -10 -17 -7 -23 -32 rlinecurve
          -54 -75 96 -70 54 74 rlineto
          23 32 5 16 27 vvcurveto
          2 hlineto
          2 -27 7 -18 22 -30 55 -74 rcurveline
          96 70 -55 74 -21 28 -16 12 -29 9 rlinecurve
          1 3 29 -6 17 1 38 12 rlinecurve
          89 29 -37 112 -88 -29 -38 -13 -18 -17 -14 -21 rlinecurve
          -2 1 rlineto
          11 24 10 23 39 vvcurveto
          94 -118 -94 vlineto
          -39 6 -26 14 -21 vhcurveto
          -1 -1 -14 21 -25 21 -29 9 rlinecurve
          endchar
        </CharString>
        <CharString name="at">
          407 477 118 rmoveto
          -38 -21 9 31 25 17 15 52 hvcurveto
          101 -21 hlineto
          -41 -1 -36 -18 -74 hhcurveto
          84 -281 rmoveto
          -2 128 -1 1 rlineto
          -5 -21 -27 -1 -32 hhcurveto
          -253 -35 56 215 239 35 61 277 287 31 -61 -242 -159 2 -34 -55 -55 7 23 170 -5 hvcurveto
          200 -6 -66 42 -164 hhcurveto
          -53 -68 -10 -12 -36 hvcurveto
          -113 vlineto
          3 -2 rlineto
          10 40 49 8 53 hhcurveto
          81 30 -12 -46 8 hvcurveto
          -130 hlineto
          -116 -51 -50 -85 -101 52 -50 102 73 47 19 31 24 hvcurveto
          2 hlineto
          4 -22 rlineto
          -83 15 53 -29 111 hhcurveto
          167 22 70 238 313 -88 117 -370 -351 -101 -117 -313 -291 99 -110 328 34 26 3 4 24 hvcurveto
          endchar
        </CharString>
        <CharString name="atilde">
          -86 callsubr
          119 42 -68 callgsubr
        </CharString>
        <CharString name="b">
          -16 554 274 rmoveto
          152 -62 75 -129 -80 -41 -32 -48 -18 vhcurveto
          -4 261 -160 -661 hlineto
          3 -2 rlineto
          -11 64 86 -8 99 hhcurveto
          176 66 94 180 hvcurveto
          -334 -17 rmoveto
          78 38 30 53 70 17 -37 -78 vhcurveto
          -95 -1 -27 -19 -94 hhcurveto
          -20 -18 1 3 -18 hvcurveto
          endchar
        </CharString>
        <CharString name="backslash">
          -131 180 642 rmoveto
          -160 hlineto
          304 -744 rlineto
          160 hlineto
          endchar
        </CharString>
        <CharString name="bar">
          -315 60 682 rmoveto
          -983 160 983 vlineto
          endchar
        </CharString>
        <CharString name="braceleft">
          -187 259 -88 rmoveto
          276 vlineto
          77 -53 4 -26 2 vhcurveto
          4 vlineto
          26 3 53 12 62 vvcurveto
          284 vlineto
          36 16 12 32 9 13 -2 -3 8 vhcurveto
          1 1 rlineto
          107 vlineto
          6 -17 -21 4 -29 hhcurveto
          -104 -34 -54 -86 hvcurveto
          -292 vlineto
          -36 -51 0 -17 vhcurveto
          -109 vlineto
          17 51 0 -45 hvcurveto
          -284 vlineto
          -86 34 -54 104 29 21 4 6 17 vhcurveto
          107 vlineto
          -1 1 rlineto
          -3 -8 -13 -2 -9 hhcurveto
          -32 -16 12 36 hvcurveto
          endchar
        </CharString>
        <CharString name="braceright">
          -187 149 188 rmoveto
          -276 vlineto
          -36 -16 -12 -32 -9 -13 2 3 -8 vhcurveto
          -1 -1 rlineto
          -107 vlineto
          -6 17 21 -4 29 hhcurveto
          104 34 54 86 hvcurveto
          284 vlineto
          45 51 0 17 vhcurveto
          109 vlineto
          -17 -51 0 36 hvcurveto
          292 vlineto
          86 -34 54 -104 -29 -21 -4 -6 -17 vhcurveto
          -107 vlineto
          1 -1 rlineto
          3 8 13 2 9 hhcurveto
          32 16 -12 -36 hvcurveto
          -284 vlineto
          -62 53 -12 26 -3 vhcurveto
          -4 vlineto
          -26 -2 -53 -4 -77 vvcurveto
          endchar
        </CharString>
        <CharString name="bracketleft">
          -252 313 797 rmoveto
          -253 -1056 253 125 -105 806 105 hlineto
          endchar
        </CharString>
        <CharString name="bracketright">
          -252 30 797 rmoveto
          -125 105 -806 -105 -125 253 1056 vlineto
          endchar
        </CharString>
        <CharString name="breve">
          -177 301 837 -35 callgsubr
        </CharString>
        <CharString name="brokenbar">
          -315 236 139 rmoveto
          -160 -440 160 hlineto
          -160 542 rmoveto
          160 441 -160 hlineto
          endchar
        </CharString>
        <CharString name="bullet">
          -222 336 414 rmoveto
          8 -50 -50 5 -49 hhcurveto
          -50 -50 -5 -8 -49 hvcurveto
          -6 -44 -2 -33 -31 vvcurveto
          -32 2 -35 6 -39 vhcurveto
          -9 49 50 -7 50 hhcurveto
          49 47 7 9 53 hvcurveto
          5 41 2 33 32 vvcurveto
          31 -2 33 -5 44 vhcurveto
          endchar
        </CharString>
        <CharString name="c">
          -21 callgsubr
          endchar
        </CharString>
        <CharString name="cacute">
          -21 callgsubr
          -28 670 -101 callgsubr
        </CharString>
        <CharString name="caron">
          -247 338 836 -99 callsubr
        </CharString>
        <CharString name="ccaron">
          -21 callgsubr
          -20 674 -99 callsubr
        </CharString>
        <CharString name="ccedilla">
          181 callgsubr
          1 -171 60 -63 125 -12 -19 -93 rcurveline
          -52 callsubr
          8 36 59 2 52 6 28 11 rlinecurve
          endchar
        </CharString>
        <CharString name="ccircumflex">
          -21 callgsubr
          -153 529 -104 callsubr
        </CharString>
        <CharString name="cdotaccent">
          -21 callgsubr
          -99 632 -69 callgsubr
        </CharString>
        <CharString name="cedilla">
          -372 2 -131 rmoveto
          -5 -3 rlineto
          -77 vlineto
          -5 26 24 -2 54 hhcurveto
          91 34 25 74 58 -26 20 -60 6 hvcurveto
          13 55 rlineto
          -90 hlineto
          -23 -111 rlineto
          267 callgsubr
          endchar
        </CharString>
        <CharString name="cent">
          -121 363 616 rmoveto
          -150 -117 hlineto
          -119 -12 -70 -64 1 -175 1 -172 61 -63 126 -11 rrcurveto
          -112 150 115 vlineto
          32 3 27 5 17 7 rrcurveto
          130 vlineto
          -4 3 rlineto
          -6 -48 -41 -4 -46 hhcurveto
          -89 -30 13 90 79 30 30 89 44 47 -4 -8 40 hvcurveto
          3 2 -1 134 -18 6 -25 5 -27 4 rlinecurve
          endchar
        </CharString>
        <CharString name="circumflex">
          -247 190 691 -104 callsubr
        </CharString>
        <CharString name="colon">
          -285 247 457 239 callsubr
          -30 hvcurveto
          -4 -26 -1 -21 -18 vvcurveto
          -20 1 -19 4 -25 vhcurveto
          -6 30 124 callgsubr
          6 32 hvcurveto
          2 26 312 callgsubr
          -318 vmoveto
          6 -31 -30 2 -30 hhcurveto
          -30 -31 -2 -6 -29 hvcurveto
          -5 -27 -1 -20 -19 vvcurveto
          -20 1 -19 5 -24 vhcurveto
          -7 29 124 callgsubr
          7 32 hvcurveto
          2 25 1 20 19 vvcurveto
          20 -1 18 -2 27 vhcurveto
          endchar
        </CharString>
        <CharString name="comma">
          -394 59 -93 136 callsubr
        </CharString>
        <CharString name="commaaccent">
          -595 -141 -218 rmoveto
          -26 callgsubr
          6 -1 7 -44 callgsubr
          -68 -23 -27 -50 -48 27 -26 51 22 17 4 6 10 -3 callgsubr
          -40 -5 25 callsubr
        </CharString>
        <CharString name="copyright">
          528 65 356 rmoveto
          -348 119 -114 378 378 118 114 348 346 -118 115 -378 -378 -119 -115 -346 vhcurveto
          497 -332 rmoveto
          -294 -58 72 260 261 58 70 294 308 54 -70 -261 -1 hvcurveto
          -260 -1 -52 -72 -308 hhcurveto
          177 101 rmoveto
          127 vlineto
          -4 3 rlineto
          -6 -47 -40 -4 -45 hhcurveto
          -88 -29 13 88 78 29 29 88 43 46 -4 -8 39 hvcurveto
          3 2 -1 132 rlineto
          12 -40 -72 9 -58 hhcurveto
          -145 -86 -55 -193 1 hvcurveto
          -188 1 75 -55 155 hhcurveto
          72 70 7 13 33 hvcurveto
          endchar
        </CharString>
        <CharString name="currency">
          37 316 208 rmoveto
          -75 -24 29 86 81 24 33 75 77 22 -33 -81 -86 -22 -29 -77 hvcurveto
          136 413 rmoveto
          -32 -59 rlineto
          7 -30 -34 4 -40 hhcurveto
          -38 -33 -3 -7 -28 hvcurveto
          -32 58 rlineto
          -175 hlineto
          87 -142 rlineto
          -21 -39 -10 -52 -67 vvcurveto
          -64 9 -51 21 -38 vhcurveto
          -86 -140 rlineto
          175 hlineto
          30 54 rlineto
          -7 29 33 -3 39 hhcurveto
          41 35 4 7 30 hvcurveto
          30 -55 rlineto
          170 hlineto
          -84 142 rlineto
          19 38 9 50 63 vvcurveto
          65 -9 52 -21 38 vhcurveto
          86 145 rlineto
          endchar
        </CharString>
        <CharString name="d">
          -19 364 9 rmoveto
          152 673 -160 -204 31 callsubr
          endchar
        </CharString>
        <CharString name="dagger">
          -130 312 379 rmoveto
          -556 -159 556 vlineto
          13 1 24 6 12 vhcurveto
          -1 1 rlineto
          -7 -13 -13 -1 -23 hhcurveto
          -90 130 90 hlineto
          23 13 -1 -7 13 hvcurveto
          1 1 rlineto
          -6 12 -1 24 13 vvcurveto
          89 160 -89 vlineto
          -13 -1 -24 -6 -12 vhcurveto
          1 -1 rlineto
          7 13 13 1 23 hhcurveto
          89 -130 -90 hlineto
          -23 -13 1 7 -13 hvcurveto
          -1 -1 rlineto
          6 -12 1 -24 -13 vvcurveto
          endchar
        </CharString>
        <CharString name="daggerdbl">
          -130 355 421 rmoveto
          90 130 -89 276 callgsubr
          89 -160 -89 161 callsubr
          -253 161 callsubr
          -89 160 89 277 callgsubr
          89 130 -90 276 callgsubr
          253 277 callgsubr
          endchar
        </CharString>
        <CharString name="danda">
          5 232 315 callgsubr
          endchar
        </CharString>
        <CharString name="dcaron">
          -16 364 9 rmoveto
          152 673 -160 -204 31 callsubr
          333 740 -99 callsubr
        </CharString>
        <CharString name="dcroat">
          -19 364 9 rmoveto
          152 524 74 80 -74 69 -160 -69 -70 -80 70 -55 31 callsubr
          endchar
        </CharString>
        <CharString name="degree">
          -302 273 603 rmoveto
          84 -37 40 -90 -89 -37 -40 -84 -83 37 -40 89 90 37 40 83 vhcurveto
          -127 -54 rmoveto
          -42 -13 17 37 37 13 17 42 42 14 -17 -37 -37 -14 -17 -42 hvcurveto
          endchar
        </CharString>
        <CharString name="dieresis">
          -256 327 780 -52 callgsubr
        </CharString>
        <CharString name="divide">
          -7 385 187 rmoveto
          6 -31 -29 2 -30 hhcurveto
          -30 -31 -2 -6 -29 hvcurveto
          -4 -26 -2 -21 -18 vvcurveto
          -20 2 -20 4 -24 vhcurveto
          -5 29 29 -4 30 hhcurveto
          30 30 4 5 32 hvcurveto
          2 26 2 20 18 vvcurveto
          20 -2 19 -2 26 vhcurveto
          -4 414 rmoveto
          6 -30 -27 2 -29 hhcurveto
          -29 -29 -2 -6 -28 hvcurveto
          -4 -25 -1 -21 -16 vvcurveto
          -19 1 -19 4 -23 vhcurveto
          -5 28 27 -4 29 hhcurveto
          29 28 4 5 31 hvcurveto
          2 24 1 19 18 vvcurveto
          19 -1 18 -2 25 vhcurveto
          -341 -331 rmoveto
          508 124 -508 hlineto
          endchar
        </CharString>
        <CharString name="dollar">
          12 373 766 rmoveto
          -160 -122 hlineto
          -125 -19 -48 -57 -108 vvcurveto
          -114 45 -65 149 -14 vhcurveto
          66 -6 rlineto
          90 -8 17 -13 -37 vvcurveto
          -45 -20 -18 -142 -70 -72 12 20 -59 vhcurveto
          -4 -3 rlineto
          -141 vlineto
          54 -14 54 -9 65 -3 rrcurveto
          -112 160 116 vlineto
          140 19 54 64 111 vvcurveto
          243 callsubr
          vhcurveto
          245 callgsubr
          -46 19 -56 11 -68 4 rlinecurve
          endchar
        </CharString>
        <CharString name="dotaccent">
          -441 149 749 -69 callgsubr
        </CharString>
        <CharString name="dotlessi">
          -64 callsubr
          endchar
        </CharString>
        <CharString name="dottedcircle">
          65 139 522 rmoveto
          -26 18 -19 26 26 18 19 26 25 -18 19 -26 -26 -18 -19 -25 vhcurveto
          -82 -110 rmoveto
          -25 20 -19 26 24 20 19 25 25 -20 19 -24 -26 -20 -19 -25 vhcurveto
          -13 -126 rmoveto
          -25 19 -18 25 26 18 18 25 26 -18 19 -26 -25 -19 -19 -26 vhcurveto
          52 -116 rmoveto
          -26 18 -18 26 25 19 18 26 25 -19 19 -25 -26 -18 -19 -25 vhcurveto
          101 -75 rmoveto
          -26 19 -20 26 25 19 20 26 24 -19 20 -25 -26 -19 -20 -24 vhcurveto
          127 -16 rmoveto
          -26 18 -18 26 26 19 18 26 26 -19 18 -26 -26 -18 -18 -26 vhcurveto
          121 53 rmoveto
          -26 19 -18 25 25 20 18 26 25 -20 19 -25 -25 -19 -19 -25 vhcurveto
          73 98 rmoveto
          -25 19 -19 26 24 19 19 25 26 -19 19 -24 -26 -19 -19 -26 vhcurveto
          10 134 rmoveto
          -26 18 -18 26 25 19 18 26 26 -19 18 -25 -26 -18 -18 -26 vhcurveto
          -50 118 rmoveto
          -25 19 -19 25 26 18 19 25 26 -18 19 -26 -25 -19 -19 -26 vhcurveto
          -95 68 rmoveto
          -24 19 -20 26 25 18 20 24 26 -18 19 -25 -26 -19 -19 -26 vhcurveto
          -126 15 rmoveto
          -26 18 -18 26 26 18 18 26 26 -18 18 -26 -26 -18 -18 -26 vhcurveto
          endchar
        </CharString>
        <CharString name="doubledanda">
          5 112 315 callgsubr
          96 hmoveto
          -726 148 726 vlineto
          endchar
        </CharString>
        <CharString name="dvA">
          138 callgsubr
          endchar
        </CharString>
        <CharString name="dvAA">
          415 136 callgsubr
          endchar
        </CharString>
        <CharString name="dvAI">
          -46 182 772 53 callgsubr
          7 -4 rcurveline
          -414 -107 89 -233 hlineto
          -189 67 -72 164 97 74 14 13 55 vhcurveto
          117 vlineto
          -4 2 rlineto
          -10 -41 -63 -10 -67 hhcurveto
          -112 -23 21 93 hvcurveto
          254 173 -100 vlineto
          -55 -11 -15 -50 -22 -23 3 4 -17 vhcurveto
          -4 -1 rlineto
          -109 vlineto
          -8 28 35 -6 40 hhcurveto
          104 57 53 129 hvcurveto
          105 100 107 -108 vlineto
          -218 255 rlineto
          -172 -3 hlineto
          endchar
        </CharString>
        <CharString name="dvAU">
          415 153 callgsubr
          -106 35 callsubr
          -254 9 callgsubr
          endchar
        </CharString>
        <CharString name="dvAbbreviationsign">
          -13 291 118 rmoveto
          135 56 68 111 111 -56 68 -135 -135 -56 -68 -111 -111 56 -68 135 hvcurveto
          85 179 rmoveto
          -53 -19 -29 -66 -66 -19 29 53 53 19 28 66 66 19 -28 -53 vhcurveto
          endchar
        </CharString>
        <CharString name="dvAcandra">
          138 callgsubr
          636 221 callgsubr
        </CharString>
        <CharString name="dvAnusvara">
          -595 -57 772 132 callsubr
        </CharString>
        <CharString name="dvAnusvara.matrai">
          -595 176 717 rmoveto
          2 -23 0 -15 -16 vvcurveto
          -16 0 -16 -2 -21 vhcurveto
          -5 -26 -25 -4 -26 hhcurveto
          -24 -25 4 5 -25 hvcurveto
          -2 20 -1 16 16 vvcurveto
          15 1 17 2 23 vhcurveto
          5 25 26 2 25 hhcurveto
          24 26 -2 -5 25 hvcurveto
          endchar
        </CharString>
        <CharString name="dvAvagraha">
          -84 248 2 rmoveto
          174 54 51 102 80 -37 45 -59 37 hvcurveto
          -131 82 rlineto
          -40 25 -14 16 24 vvcurveto
          26 13 10 39 vhcurveto
          215 107 -214 hlineto
          -153 -48 -37 -103 -65 33 -49 56 -35 hvcurveto
          100 -62 rlineto
          48 -30 43 -20 -31 vvcurveto
          -42 -19 -14 -60 -66 -14 14 42 vhcurveto
          24 -148 -44 vlineto
          -109 58 -44 170 vhcurveto
          endchar
        </CharString>
        <CharString name="dvB">
          -174 -50 -107 callsubr
          526 107 -526 hlineto
          314 -543 rmoveto
          126 93 23 39 80 hvcurveto
          -53 93 -22 -11 -27 -9 -29 -7 rlinecurve
          -53 callgsubr
          rlineto
          103 callsubr
        </CharString>
        <CharString name="dvBA">
          41 -50 -107 callsubr
          479 -305 hlineto
          162 callgsubr
          -726 vlineto
          212 -353 74 callgsubr
          endchar
        </CharString>
        <CharString name="dvBH">
          -203 53 500 rmoveto
          -72 callgsubr
          -153 vlineto
          -16 callsubr
          -17 callsubr
          261 112 -260 142 hlineto
          -43 callgsubr
          -160 -107 hlineto
          endchar
        </CharString>
        <CharString name="dvBHA">
          21 407 9 rmoveto
          -105 callgsubr
          -249 -327 -155 142 183 callsubr
          22 -19 97 81 24 12 62 4 hvcurveto
          156 hlineto
          endchar
        </CharString>
        <CharString name="dvBH_LA">
          591 352 -107 callsubr
          625 -105 hlineto
          -63 callsubr
          -106 -63 -42 -98 -13 hvcurveto
          -176 142 43 callsubr
          -17 callsubr
          180 hlineto
          8 -54 19 -54 28 -51 rrcurveto
          -91 callgsubr
          -874 vlineto
          endchar
        </CharString>
        <CharString name="dvBH_NA">
          383 352 -107 callsubr
          417 -159 hlineto
          -240 -1 rlineto
          -12 hlineto
          -62 -27 -6 -44 -10 hvcurveto
          -166 132 43 callsubr
          85 21 13 71 3 hvcurveto
          168 hlineto
          -35 11 26 -9 57 hhcurveto
          79 22 9 85 2 hvcurveto
          152 -20 callsubr
          -666 vlineto
          endchar
        </CharString>
        <CharString name="dvBH_R">
          -183 142 134 rmoveto
          81 24 12 62 4 hvcurveto
          124 -2 hlineto
          -57 -54 -80 -87 -40 -64 rrcurveto
          -98 callsubr
          146 211 rlineto
          112 -258 102 vlineto
          136 -37 49 -125 vhcurveto
          -160 -107 123 292 callgsubr
          -74 22 -19 97 hvcurveto
          endchar
        </CharString>
        <CharString name="dvBH_RA">
          41 437 9 rmoveto
          139 -102 callgsubr
          -249 -287 -175 102 hlineto
          269 callgsubr
          -113 vlineto
          -40 callgsubr
          -62 callsubr
          124 -2 hlineto
          -57 -54 -80 -87 -40 -64 rrcurveto
          -98 callsubr
          71 127 rlineto
          2 hlineto
          endchar
        </CharString>
        <CharString name="dvBH_R_YA">
          495 569 260 rmoveto
          121 7 43 43 102 vvcurveto
          88 112 callgsubr
          20 40 -1 hvcurveto
          -217 240 rmoveto
          239 -46 hlineto
          -72 -11 -20 -61 -4 vhcurveto
          -267 64 259 callgsubr
          -75 vlineto
          -40 callgsubr
          -62 callsubr
          155 hlineto
          -84 -72 -86 -101 -48 -72 rrcurveto
          -4 186 vlineto
          106 160 rlineto
          -55 45 78 -26 109 hhcurveto
          -97 callgsubr
          hvcurveto
          -94 callgsubr
          -778 vlineto
          endchar
        </CharString>
        <CharString name="dvBH_VA">
          408 352 -107 callsubr
          443 -66 callgsubr
          -118 -60 -46 -113 -9 hvcurveto
          -166 142 43 callsubr
          -17 callsubr
          176 hlineto
          -79 23 64 -33 125 -98 callgsubr
          -691 vlineto
          endchar
        </CharString>
        <CharString name="dvBH_YA">
          475 352 500 -46 callgsubr
          -11 0 -11 1 -10 vhcurveto
          -164 142 hlineto
          -43 callgsubr
          -160 -107 123 hlineto
          183 callgsubr
          197 71 callgsubr
        </CharString>
        <CharString name="dvB_BA">
          462 15 callgsubr
          421 hmoveto
          18 2 14 4 11 vhcurveto
          2 hlineto
          174 -120 rlineto
          -1 vlineto
          -2 -18 -19 208 callsubr
          -319 -190 rmoveto
          99 79 14 25 68 hvcurveto
          -27 38 57 -12 80 52 callsubr
          -1147 -107 900 -305 vlineto
          84 callgsubr
          -122 -64 -47 -140 -20 1 -18 3 -16 hvcurveto
          -7 -2 -8 -2 -8 -15 callgsubr
        </CharString>
        <CharString name="dvB_BHA">
          442 163 224 45 callsubr
          102 -190 rmoveto
          124 92 22 38 79 hvcurveto
          3 hlineto
          174 callsubr
          -561 -107 524 hlineto
          -72 callgsubr
          -153 vlineto
          -60 -21 -18 -75 -8 0 -8 1 -6 hvcurveto
          -4 -1 -4 -1 -4 -1 -53 callgsubr
          rcurveline
          -66 callsubr
          -122 -64 -47 -140 -78 callsubr
          hvcurveto
          endchar
        </CharString>
        <CharString name="dvB_BH_RA">
          462 265 74 rmoveto
          124 92 22 38 79 hvcurveto
          3 hlineto
          135 callsubr
          -561 -107 524 292 callgsubr
          -8 0 -8 1 -6 hvcurveto
          -4 -1 -4 -1 -4 -1 -53 callgsubr
          rcurveline
          154 callgsubr
        </CharString>
        <CharString name="dvB_DA">
          377 264 64 rmoveto
          97 77 14 23 67 hvcurveto
          -25 33 47 -11 62 hhcurveto
          -49 callgsubr
          -1062 -107 830 -74 callgsubr
          -159 -61 -47 -135 -21 2 -18 3 -17 hvcurveto
          -7 -2 -7 -2 -6 -1 -53 callgsubr
          rcurveline
          103 callsubr
        </CharString>
        <CharString name="dvB_DHA">
          449 10 callgsubr
          98 78 14 24 67 hvcurveto
          -32 32 53 -16 78 hhcurveto
          73 66 12 19 43 hvcurveto
          3 -2 rlineto
          -74 -105 callgsubr
          -249 -404 vlineto
          42 callsubr
          -800 150 callgsubr
          hvcurveto
          endchar
        </CharString>
        <CharString name="dvB_DH_VA">
          841 15 callgsubr
          638 246 94 callsubr
          -745 150 callgsubr
          99 79 14 25 68 hvcurveto
          -33 36 62 -16 99 hhcurveto
          97 58 11 24 55 hvcurveto
          75 callgsubr
        </CharString>
        <CharString name="dvB_JA">
          479 30 188 rmoveto
          -78 callsubr
          71 50 14 25 36 vhcurveto
          1 hlineto
          -25 31 52 -14 79 hhcurveto
          140 38 82 callgsubr
          -1174 -107 927 58 callsubr
          -21 -14 157 callgsubr
        </CharString>
        <CharString name="dvB_JHA">
          632 172 222 rmoveto
          16 1 14 4 10 vhcurveto
          178 -119 rlineto
          -1 vlineto
          -1 -17 -18 0 -20 hhcurveto
          -94 -34 17 64 hvcurveto
          728 278 24 callgsubr
          -950 160 rmoveto
          832 -53 -155 hlineto
          -21 callsubr
          279 callgsubr
          -102 vlineto
          -210 141 rlineto
          -55 callgsubr
          37 46 -6 -8 26 hvcurveto
          4 1 rlineto
          103 vlineto
          11 -37 -61 6 -52 hhcurveto
          -121 -70 -47 -140 -78 callsubr
          68 57 7 12 52 hvcurveto
          -125 214 callgsubr
          -1317 hlineto
          endchar
        </CharString>
        <CharString name="dvB_J_YA">
          883 970 268 rmoveto
          3 vlineto
          111 10 40 49 98 vvcurveto
          72 52 callgsubr
          -108 -46 21 47 -3 hvcurveto
          -927 -80 rmoveto
          -78 callsubr
          71 50 14 25 36 vhcurveto
          1 hlineto
          -25 31 52 -14 79 hhcurveto
          140 38 50 111 47 -19 43 -38 15 hvcurveto
          2 121 vlineto
          -128 19 94 -64 161 -106 callsubr
          -1578 -107 1039 118 callgsubr
          -413 -116 30 hlineto
          82 19 -18 -50 -54 -21 -15 157 callgsubr
        </CharString>
        <CharString name="dvB_JxA">
          489 579 -50 rmoveto
          5 -23 -22 2 -22 hhcurveto
          -23 -23 -2 -5 -22 hvcurveto
          -3 -20 67 callsubr
          -15 3 -18 vhcurveto
          -5 22 22 -2 22 hhcurveto
          23 22 2 5 24 hvcurveto
          2 19 1 15 14 vvcurveto
          15 -1 13 -2 20 vhcurveto
          -549 238 rmoveto
          -78 callsubr
          71 50 14 25 36 vhcurveto
          1 hlineto
          -25 31 52 -14 79 hhcurveto
          140 38 82 callgsubr
          -1174 -107 927 58 callsubr
          -21 -14 -64 -71 -47 21 31 -44 hvcurveto
          -136 95 rlineto
          15 hlineto
          96 callgsubr
          hvcurveto
          132 2 rmoveto
          21 3 16 6 12 vhcurveto
          167 -117 rlineto
          -2 vlineto
          -7 -14 -29 -4 -25 hhcurveto
          -74 -34 17 64 hvcurveto
          endchar
        </CharString>
        <CharString name="dvB_LA">
          620 10 callgsubr
          84 70 10 19 60 hvcurveto
          10 -29 12 -28 15 -27 rrcurveto
          -91 callgsubr
          -1305 -107 1056 168 callsubr
          -12 1 -13 hvcurveto
          -8 -2 -8 -2 -8 -15 callgsubr
        </CharString>
        <CharString name="dvB_L_YA">
          1046 15 callgsubr
          958 16 -99 callgsubr
          -856 -206 rmoveto
          82 69 10 18 59 hvcurveto
          8 -28 9 -28 12 -27 rrcurveto
          134 5 hlineto
          68 callgsubr
          16 13 -1 -4 10 vhcurveto
          -141 9 95 -72 172 -106 callsubr
          -1731 -107 1192 217 callgsubr
          -12 0 -13 1 -12 hvcurveto
          -8 -3 -9 -2 -8 -15 callgsubr
        </CharString>
        <CharString name="dvB_NA">
          412 265 74 rmoveto
          124 92 22 38 79 hvcurveto
          62 2 20 12 3 60 153 1 rcurveline
          -200 149 -102 callgsubr
          -1097 -107 848 -179 vlineto
          -240 -1 rlineto
          -12 hlineto
          -87 callsubr
          -8 0 -8 1 -6 hvcurveto
          -2 -4 -4 -1 -3 hhcurveto
          -200 138 rlineto
          154 callgsubr
        </CharString>
        <CharString name="dvB_R">
          -174 162 254 102 callgsubr
          161 -111 rlineto
          -1 -14 -14 0 -13 hhcurveto
          -94 -34 17 52 hvcurveto
          -212 246 rmoveto
          550 107 -550 hlineto
          550 -489 rmoveto
          97 vlineto
          -21 -9 -26 -7 -26 -4 -195 135 rcurveline
          -66 callsubr
          -122 -64 -47 -140 -127 79 -44 155 18 18 1 1 17 hvcurveto
          -3 vlineto
          -44 -30 -41 -39 -34 -42 -73 callgsubr
          endchar
        </CharString>
        <CharString name="dvB_RA">
          42 162 254 102 callgsubr
          160 -110 rlineto
          -1 -14 -13 -1 310 callgsubr
          -212 246 rmoveto
          479 -293 hlineto
          -4 -1 -5 -2 -4 -1 -184 127 rcurveline
          -66 callsubr
          -122 -64 -47 -140 -121 69 -49 165 hvcurveto
          4 hlineto
          -1 -1 rlineto
          -3 vlineto
          -45 -35 -29 -30 -35 -44 -73 callgsubr
          92 141 rlineto
          4 -97 -42 callgsubr
          -726 hlineto
          endchar
        </CharString>
        <CharString name="dvB_SA">
          513 737 -9 callgsubr
          -575 -168 45 callsubr
          102 -190 rmoveto
          107 83 17 28 72 hvcurveto
          87 -100 rlineto
          -65 callsubr
          292 -186 -106 callgsubr
          -1198 -107 639 20 callsubr
          -109 hlineto
          -8 -2 -8 -2 -7 -15 callgsubr
        </CharString>
        <CharString name="dvB_SHA">
          530 -50 -107 callsubr
          486 107 -486 hlineto
          212 -353 102 callgsubr
          171 -118 rlineto
          -4 -20 -21 -2 -20 hhcurveto
          -84 -34 17 64 hvcurveto
          751 -245 3 callsubr
          -119 hlineto
          -6 -7 -11 -7 -14 -7 -184 127 rcurveline
          -55 callgsubr
          37 45 -6 -8 27 hvcurveto
          4 1 rlineto
          103 vlineto
          11 -37 -52 6 -59 hhcurveto
          -124 -69 -47 -140 -139 69 -49 165 142 67 26 53 51 hvcurveto
          129 -134 rlineto
          178 2 hlineto
          -76 89 -78 73 -83 55 rrcurveto
          2 vlineto
          2 2 0 3 hhcurveto
          153 75 87 116 124 -56 58 -125 -125 -56 -52 -96 -12 2 -14 2 -9 hvcurveto
          122 hlineto
          endchar
        </CharString>
        <CharString name="dvB_TA">
          414 10 callgsubr
          88 72 11 20 63 hvcurveto
          9 -29 10 -29 13 -31 rrcurveto
          -87 callgsubr
          -1099 -107 851 -85 callgsubr
          -23 callgsubr
          -21 1 -21 3 -21 hvcurveto
          -11 -4 -10 -3 -11 -15 callgsubr
        </CharString>
        <CharString name="dvB_VA">
          437 10 callgsubr
          94 75 13 22 65 hvcurveto
          -30 36 55 -13 79 -98 callgsubr
          -1122 -107 874 -301 vlineto
          -71 callsubr
          -20 1 -18 3 -17 hvcurveto
          -6 -1 -6 -2 -6 -1 -53 callgsubr
          rcurveline
          46 callsubr
          -123 -68 -47 -140 -78 callsubr
          hvcurveto
          endchar
        </CharString>
        <CharString name="dvB_YA">
          504 162 168 callgsubr
          -314 -206 rmoveto
          115 88 19 33 75 hvcurveto
          -27 45 60 -13 74 -106 callsubr
          -1189 -107 650 -36 vlineto
          133 callsubr
          -123 -68 -47 -140 -78 callsubr
          hvcurveto
          endchar
        </CharString>
        <CharString name="dvC">
          -168 246 callsubr
          -19 119 -44 -31 -56 -15 -83 2 rlinecurve
          205 callgsubr
          -331 416 rmoveto
          537 107 -537 hlineto
          endchar
        </CharString>
        <CharString name="dvCA">
          67 -35 -107 callsubr
          488 -258 hlineto
          40 callsubr
          rlineto
          -18 -14 -13 -25 -44 vvcurveto
          -96 80 -41 93 callgsubr
          -105 -105 callgsubr
          -737 vlineto
          endchar
        </CharString>
        <CharString name="dvCH">
          92 -60 -107 callsubr
          124 -2 hlineto
          -25 -10 -23 -35 -43 vvcurveto
          -61 40 -43 76 -3 vhcurveto
          -4 vlineto
          -76 -10 -32 -43 -73 vvcurveto
          -121 92 -52 221 267 42 111 169 141 -49 31 -119 -94 -61 -20 -117 81 callsubr
          43 25 13 72 hvcurveto
          -30 callgsubr
          483 107 -792 hlineto
          endchar
        </CharString>
        <CharString name="dvCHA">
          87 -60 -107 callsubr
          134 193 callgsubr
          -787 vlineto
          242 -420 5 callgsubr
          endchar
        </CharString>
        <CharString name="dvCH_R">
          87 -60 500 155 callgsubr
          141 -49 31 -119 -94 -61 -20 -117 81 callsubr
          43 25 13 72 hvcurveto
          -30 callgsubr
          468 107 -787 hlineto
          endchar
        </CharString>
        <CharString name="dvCH_RA">
          88 182 187 5 callgsubr
          -242 313 155 callgsubr
          107 -28 44 -66 15 vhcurveto
          54 165 107 -787 vlineto
          endchar
        </CharString>
        <CharString name="dvCH_R_YA">
          726 156 -99 rmoveto
          149 hlineto
          41 113 rlineto
          4 hlineto
          4 hlineto
          43 -113 -39 callgsubr
          -70 121 rlineto
          154 34 26 103 122 vvcurveto
          25 -1 21 -3 18 vhcurveto
          153 23 callgsubr
          -58 -42 callgsubr
          -1421 -107 137 -2 vlineto
          225 callgsubr
          838 253 87 callgsubr
          -360 hlineto
          -89 106 callsubr
          852 -324 26 callsubr
          endchar
        </CharString>
        <CharString name="dvCH_VA">
          87 -60 -107 callsubr
          134 -2 hlineto
          258 callgsubr
          -70 42 -49 61 -13 vhcurveto
          -2 vlineto
          -32 -21 -19 -39 -53 vvcurveto
          -110 50 -54 156 53 61 7 12 36 vhcurveto
          4 -3 rlineto
          -63 138 345 vlineto
          59 49 13 76 95 vvcurveto
          104 -27 44 -62 16 vhcurveto
          56 160 107 -787 vlineto
          281 -665 rmoveto
          43 16 17 54 vhcurveto
          17 19 -1 20 hhcurveto
          37 33 2 4 29 hvcurveto
          -111 vlineto
          -12 -29 -38 -6 -49 hhcurveto
          -80 -29 15 49 hvcurveto
          -39 245 rmoveto
          43 25 13 72 vhcurveto
          -30 callgsubr
          170 -52 hlineto
          -60 -10 -36 -33 -90 6 callgsubr
        </CharString>
        <CharString name="dvCH_YA">
          726 16 410 rmoveto
          -61 40 -43 76 -3 vhcurveto
          -4 vlineto
          -76 -10 -32 -43 -73 125 callgsubr
          116 169 25 -1 21 -4 18 vhcurveto
          164 23 callgsubr
          -58 -42 callgsubr
          -1421 -107 124 -2 vlineto
          -25 -10 -23 -35 -43 vvcurveto
          978 -252 87 callgsubr
          -363 hlineto
          -2 -1 0 -2 hhcurveto
          -94 106 callsubr
          865 -324 26 callsubr
          endchar
        </CharString>
        <CharString name="dvC_CA">
          494 246 callsubr
          -1 7 rlineto
          -41 32 63 -18 82 hhcurveto
          60 61 12 19 44 hvcurveto
          2 -1 rlineto
          -105 -105 callgsubr
          -1164 -107 915 -258 vlineto
          40 callsubr
          -13 -10 -11 -17 -4 -25 rlinecurve
          -44 -29 -55 -14 -80 2 202 callgsubr
          endchar
        </CharString>
        <CharString name="dvC_CHA">
          514 296 84 rmoveto
          70 57 8 17 49 hvcurveto
          -76 31 94 -33 177 hhcurveto
          267 42 111 169 107 -28 44 -66 15 hvcurveto
          54 165 107 -1189 -107 536 90 callgsubr
          -54 -7 -31 -24 -14 -39 -36 -13 -44 -6 -55 0 callsubr
          313 103 rmoveto
          43 25 13 72 vhcurveto
          6 116 -6 hlineto
          -80 -25 19 51 51 25 20 60 hvcurveto
          175 -51 hlineto
          -63 -9 -38 -32 -93 6 callgsubr
        </CharString>
        <CharString name="dvC_CH_VA">
          514 296 84 rmoveto
          71 57 9 16 51 hvcurveto
          17 -35 32 -24 40 -9 rrcurveto
          -2 vlineto
          -32 -21 -19 -39 -53 vvcurveto
          -110 50 -54 156 53 61 7 12 36 vhcurveto
          4 -3 rlineto
          -63 138 345 vlineto
          59 49 13 76 95 vvcurveto
          104 -27 44 -62 16 vhcurveto
          56 160 107 -1189 -107 536 90 callgsubr
          -54 -7 -31 -24 -14 -39 -36 -13 -44 -6 -55 0 callsubr
          352 -142 rmoveto
          43 16 17 54 vhcurveto
          17 19 -1 20 hhcurveto
          37 33 2 4 29 hvcurveto
          -111 vlineto
          -12 -29 -38 -6 -49 hhcurveto
          -80 -29 15 49 hvcurveto
          -39 245 rmoveto
          43 25 13 72 vhcurveto
          -30 callgsubr
          170 -52 hlineto
          -60 -10 -36 -33 -90 6 callgsubr
        </CharString>
        <CharString name="dvC_MA">
          453 682 500 -27 callsubr
          -386 -202 rmoveto
          73 58 9 18 52 hvcurveto
          -13 18 29 -4 46 -76 callsubr
          -1123 -107 569 -220 vlineto
          -48 -23 -12 -43 -7 hvcurveto
          -33 -11 -40 -4 -48 0 callsubr
          endchar
        </CharString>
        <CharString name="dvC_NA">
          418 296 84 rmoveto
          102 78 18 34 65 hvcurveto
          2 vlineto
          2 3 0 3 hhcurveto
          85 23 10 80 3 hvcurveto
          144 -20 callsubr
          -1088 -107 839 -159 vlineto
          316 callgsubr
          hvcurveto
          -7 0 -6 -5 vvcurveto
          -30 -8 -34 -3 -42 0 callsubr
          endchar
        </CharString>
        <CharString name="dvC_R">
          -168 537 158 rmoveto
          95 vlineto
          -5 3 -50 -29 -67 -14 -80 2 rlinecurve
          -91 2 -19 14 34 180 callsubr
          -69 80 -41 132 15 14 0 1 14 vhcurveto
          -2 vlineto
          -38 -24 -46 -43 -27 -34 rrcurveto
          -4 164 vlineto
          -427 -107 callsubr
          572 107 -572 hlineto
          endchar
        </CharString>
        <CharString name="dvC_RA">
          73 -35 -107 callsubr
          488 -254 hlineto
          59 callsubr
          39 vvcurveto
          32 95 callgsubr
          -39 vvcurveto
          -73 80 -41 122 vhcurveto
          4 4 0 4 hhcurveto
          -2 vlineto
          -38 -24 -46 -43 -27 -34 rrcurveto
          -4 175 vlineto
          88 138 rlineto
          1 hlineto
          2 -1 rlineto
          -128 -105 callgsubr
          -737 vlineto
          endchar
        </CharString>
        <CharString name="dvC_YA">
          510 584 -103 callsubr
          -288 -192 rmoveto
          102 79 11 31 65 hvcurveto
          -29 45 62 -15 78 -106 callsubr
          -1180 -107 641 -45 callsubr
          -32 4 -28 8 -25 vhcurveto
          -35 -12 -41 -5 -51 1 rrcurveto
          220 callgsubr
          -102 80 -41 132 vhcurveto
          endchar
        </CharString>
        <CharString name="dvCandrabindu">
          179 callgsubr
          6 -126 167 callsubr
        </CharString>
        <CharString name="dvD">
          -64 342 -56 -47 callgsubr
          -402 551 103 callgsubr
          -51 133 -49 callgsubr
          -651 hlineto
          endchar
        </CharString>
        <CharString name="dvDA">
          -44 192 callsubr
          -51 133 -49 callgsubr
          -651 hlineto
          endchar
        </CharString>
        <CharString name="dvDA_mvR">
          -64 -60 -107 callsubr
          399 289 callgsubr
          -137 67 -50 123 49 51 8 15 33 hvcurveto
          3 -2 rlineto
          -49 -13 vlineto
          -91 -56 -31 -101 -101 63 -34 116 30 43 3 7 28 hvcurveto
          221 callsubr
          31 30 18 7 36 hvcurveto
          107 308 -112 -34 hlineto
          -27 -21 -12 -75 -82 -54 callgsubr
          72 vhcurveto
          214 179 104 107 -631 hlineto
          endchar
        </CharString>
        <CharString name="dvDD">
          -77 169 -55 rmoveto
          174 -166 140 37 rlineto
          5 vlineto
          -53 51 -60 42 -63 36 rrcurveto
          -138 hlineto
          -199 550 29 callsubr
        </CharString>
        <CharString name="dvDDA">
          -77 -30 500 29 callsubr
        </CharString>
        <CharString name="dvDDH">
          -33 203 -56 -47 callgsubr
          -233 551 56 callgsubr
        </CharString>
        <CharString name="dvDDHA">
          -33 -30 500 56 callgsubr
        </CharString>
        <CharString name="dvDDH_DDHA">
          -1 -20 -107 callsubr
          430 -56 hlineto
          1 -63 -72 0 -20 hhcurveto
          -151 -64 -40 -170 -79 24 -48 38 -12 hvcurveto
          -2 vlineto
          -42 -23 -20 -44 -80 vvcurveto
          -156 58 -35 207 197 59 23 109 92 -33 23 -135 -43 -55 -5 -10 -47 vhcurveto
          -80 233 callsubr
          -10 -17 -28 -14 -5 -108 -101 -25 15 80 72 11 19 82 3 hvcurveto
          37 hlineto
          207 38 32 100 93 -33 23 -135 -43 -55 -5 -10 -47 hvcurveto
          -77 vlineto
          3 -2 rlineto
          5 33 40 4 30 hhcurveto
          64 6 -10 -21 -29 -14 -4 -108 -91 -25 15 80 80 15 15 109 hvcurveto
          228 167 111 107 -659 hlineto
          endchar
        </CharString>
        <CharString name="dvDDH_R">
          -53 207 -1 callsubr
          -237 661 83 callsubr
        </CharString>
        <CharString name="dvDDH_RA">
          -33 -30 500 83 callsubr
        </CharString>
        <CharString name="dvDDH_VA">
          -1 183 -32 rmoveto
          40 20 14 93 -2 vhcurveto
          39 -1 34 2 29 3 rrcurveto
          -94 vlineto
          -8 -29 -32 -3 -45 hhcurveto
          -80 -29 9 40 hvcurveto
          -213 532 rmoveto
          440 -56 hlineto
          1 -63 -72 0 -20 hhcurveto
          -158 -64 -50 -170 -93 27 -47 32 -13 hvcurveto
          -2 vlineto
          -26 -17 -20 -31 -62 vvcurveto
          -98 57 -53 151 50 57 6 11 37 vhcurveto
          -52 131 299 vlineto
          16 20 6 28 38 vvcurveto
          94 -33 30 -135 -43 -55 -5 -10 -47 vhcurveto
          -79 233 callsubr
          -17 -20 -34 -14 -4 -108 -96 -25 19 86 88 15 19 114 hvcurveto
          228 167 111 107 -669 hlineto
          endchar
        </CharString>
        <CharString name="dvDDH_YA">
          616 749 173 rmoveto
          117 39 41 90 92 -43 40 -126 hvcurveto
          -240 64 508 -345 26 callsubr
          -98 -37 14 22 hvcurveto
          -779 327 rmoveto
          398 -61 hlineto
          1 -52 -51 0 -15 hhcurveto
          -148 -72 -55 -170 -160 56 -55 207 194 50 33 108 103 -37 33 -120 -38 -48 -5 -10 -42 hvcurveto
          64 callsubr
          35 4 27 hhcurveto
          56 48 callgsubr
          15 92 88 13 24 116 hvcurveto
          398 23 callgsubr
          -37 -42 callgsubr
          -1281 vlineto
          endchar
        </CharString>
        <CharString name="dvDDHxA">
          -33 353 -59 -104 callgsubr
          -383 559 56 callgsubr
        </CharString>
        <CharString name="dvDD_DDA">
          -45 -20 99 callgsubr
          -23 -85 -92 42 -29 126 hvcurveto
          56 hlineto
          83 9 -6 -21 -21 -20 -7 301 callgsubr
          14 -4 27 -5 21 -1 rrcurveto
          -2 vlineto
          -33 -9 -20 -24 -37 vvcurveto
          -56 31 -31 127 vhcurveto
          66 hlineto
          83 8 -5 -20 -19 -21 -11 -105 -86 -71 10 17 -47 hvcurveto
          -3 -3 rlineto
          -107 vlineto
          -14 58 58 -6 93 hhcurveto
          194 62 30 95 101 -37 22 -168 hvcurveto
          -66 hlineto
          -34 -11 6 14 15 9 7 23 hvcurveto
          98 hlineto
          134 63 40 86 101 -32 23 -174 hvcurveto
          -66 hlineto
          -34 -10 5 16 16 10 5 34 hvcurveto
          261 140 100 107 -615 hlineto
          endchar
        </CharString>
        <CharString name="dvDD_DDHA">
          -49 -20 99 callgsubr
          -23 -93 -94 51 -25 117 hvcurveto
          56 hlineto
          83 9 -6 -21 -20 -20 -7 -105 -84 -79 9 17 -42 hvcurveto
          -3 -1 rlineto
          -91 vlineto
          -4 14 35 -4 18 hhcurveto
          -2 vlineto
          -39 -10 -33 -45 -86 vvcurveto
          -142 67 -46 169 203 47 35 92 101 -33 26 -124 -43 -46 -6 -9 -36 vhcurveto
          -85 vlineto
          3 -2 rlineto
          6 29 29 3 30 hhcurveto
          59 6 -10 -21 -25 -14 -5 -103 -76 -35 20 82 72 28 28 72 184 54 22 112 92 -38 21 -168 hvcurveto
          -66 hlineto
          -34 -10 5 19 18 294 callgsubr
          endchar
        </CharString>
        <CharString name="dvDD_R">
          -97 177 -1 callsubr
          -207 661 137 callgsubr
        </CharString>
        <CharString name="dvDD_RA">
          -78 -30 500 137 callgsubr
        </CharString>
        <CharString name="dvDD_VA">
          -58 -30 99 callgsubr
          -29 -89 -92 51 -25 117 hvcurveto
          56 hlineto
          83 9 -5 -19 -22 -20 -8 301 callgsubr
          15 -5 36 -5 17 -2 rrcurveto
          -2 vlineto
          -35 -10 -31 -34 -55 vvcurveto
          -78 53 -54 141 52 50 7 12 36 vhcurveto
          4 -3 15 6 4 -57 rlineto
          101 313 hlineto
          6 16 3 19 23 vvcurveto
          89 -38 32 -168 vhcurveto
          -66 hlineto
          -34 -10 5 20 17 294 callgsubr
          189 -599 rmoveto
          34 18 13 46 vhcurveto
          20 hlineto
          51 42 2 5 35 hvcurveto
          6 -98 -4 14 rlineto
          -12 -33 -37 -6 -46 hhcurveto
          -83 -15 15 33 hvcurveto
          endchar
        </CharString>
        <CharString name="dvDD_YA">
          567 834 155 87 callgsubr
          -217 46 485 -327 26 callsubr
          -563 -156 rmoveto
          156 69 32 114 111 -44 30 -154 hvcurveto
          -71 hlineto
          -31 -9 8 22 24 9 6 31 hvcurveto
          418 23 callgsubr
          -55 -106 callgsubr
          -1232 -107 381 -48 -142 vlineto
          -111 -52 -35 -98 -91 43 -43 121 hvcurveto
          61 hlineto
          76 8 -9 -27 -30 -17 -6 -97 -76 -63 8 14 117 callgsubr
          -11 53 84 -9 95 hhcurveto
          endchar
        </CharString>
        <CharString name="dvDDxA">
          -77 332 -59 -104 callgsubr
          -362 559 29 callsubr
        </CharString>
        <CharString name="dvDH">
          -191 -65 500 260 callgsubr
          -77 -10 -38 -44 -77 vvcurveto
          -91 60 -58 141 125 75 23 46 78 vhcurveto
          -27 108 rlineto
          -39 -65 -66 -15 -79 hhcurveto
          -75 -22 13 97 callgsubr
          -339 hlineto
          endchar
        </CharString>
        <CharString name="dvDHA">
          48 434 9 rmoveto
          -105 callgsubr
          -249 -404 hlineto
          42 callsubr
          -394 -107 -49 callsubr
          -111 60 -51 141 73 66 12 19 43 vhcurveto
          3 -2 rlineto
          endchar
        </CharString>
        <CharString name="dvDH_MA">
          430 659 -86 callgsubr
          -280 214 rmoveto
          132 -220 hlineto
          -56 -22 -16 -64 -3 hvcurveto
          -14 -41 -42 -9 -50 242 callgsubr
          -339 -107 -49 callsubr
          -111 61 -51 147 107 71 13 30 63 vhcurveto
          -2 14 17 -1 21 hhcurveto
          7 callsubr
          -686 vlineto
          endchar
        </CharString>
        <CharString name="dvDH_NA">
          395 394 -107 callsubr
          380 -169 hlineto
          316 callgsubr
          -51 -42 -2 154 callsubr
          137 callsubr
          -629 vlineto
          endchar
        </CharString>
        <CharString name="dvDH_N_YA">
          810 884 -103 callsubr
          -845 166 rmoveto
          160 callsubr
          169 55 28 82 17 vhcurveto
          84 23 10 80 3 hvcurveto
          125 1 rlineto
          -119 22 93 -60 157 -106 callsubr
          -1051 -107 512 3 callgsubr
          -48 hlineto
          -216 -1 rlineto
          -12 hlineto
          -89 -22 -12 -89 -85 -42 -4 154 callsubr
          endchar
        </CharString>
        <CharString name="dvDH_R">
          88 callsubr
          13 107 -338 hlineto
          endchar
        </CharString>
        <CharString name="dvDH_RA">
          23 189 -28 rmoveto
          -4 165 vlineto
          78 141 2 -1 rlineto
          -99 -105 callgsubr
          -248 -106 -1 -288 vlineto
          43 callgsubr
          28 40 22 12 85 hvcurveto
          219 callsubr
          39 107 -374 -107 197 callgsubr
          endchar
        </CharString>
        <CharString name="dvDH_VA">
          420 379 500 94 callsubr
          -339 -107 -49 callsubr
          -111 61 -51 177 97 58 11 24 55 vhcurveto
          75 callgsubr
        </CharString>
        <CharString name="dvDH_YA">
          487 561 270 -99 callgsubr
          -182 230 rmoveto
          204 -25 callsubr
          -41 7 -36 13 -31 vhcurveto
          -19 -46 -47 -8 -57 242 callgsubr
          -339 -107 -49 callsubr
          -111 61 -51 167 117 74 20 37 68 vhcurveto
          -23 43 57 -12 69 78 callgsubr
        </CharString>
        <CharString name="dvD_BA">
          -19 -50 500 266 callgsubr
          20 -47 48 317 callgsubr
          -129 67 -46 175 159 70 39 133 vhcurveto
          266 -128 -34 vlineto
          -47 -19 -2 -82 -92 -54 callgsubr
          82 vhcurveto
          243 179 100 107 -666 hlineto
          217 -607 rmoveto
          16 1 13 3 10 vhcurveto
          179 -107 rlineto
          -4 -16 -22 -2 -31 hhcurveto
          -84 -30 22 52 hvcurveto
          83 239 callgsubr
          endchar
        </CharString>
        <CharString name="dvD_BHA">
          106 -35 -107 callsubr
          544 271 callgsubr
          -50 123 59 51 4 10 33 hvcurveto
          3 -2 rlineto
          -7 vlineto
          -253 -146 -51 92 -48 87 -40 26 -75 -41 rlinecurve
          -69 -38 50 -87 41 25 24 15 12 -11 16 -29 rlinecurve
          54 -95 -38 -19 -5 -22 28 -48 rlinecurve
          29 -49 18 -5 59 31 48 26 10 18 -16 37 206 120 rcurveline
          -119 237 callsubr
          -92 -54 callgsubr
          82 16 callsubr
          -776 hlineto
          endchar
        </CharString>
        <CharString name="dvD_B_RA">
          -23 250 239 callgsubr
          31 -150 rmoveto
          -84 -30 22 52 16 1 13 3 10 hvcurveto
          179 -107 rlineto
          -4 -16 -22 -2 -31 hhcurveto
          -331 574 266 callgsubr
          30 -47 38 317 callgsubr
          -121 59 -41 151 -5 vhcurveto
          -2 vlineto
          -45 -35 -49 -49 -35 -44 rrcurveto
          -4 165 vlineto
          102 141 rlineto
          1 -81 122 504 -128 -34 hlineto
          -47 -19 -2 -82 -92 -54 callgsubr
          82 vhcurveto
          243 179 100 107 -666 hlineto
          endchar
        </CharString>
        <CharString name="dvD_DA">
          -74 -50 -107 callsubr
          389 -65 hlineto
          -37 -40 0 -36 hhcurveto
          -129 -61 -37 -105 -48 14 -44 45 -17 hvcurveto
          -2 vlineto
          -45 -18 -21 -36 -59 vvcurveto
          -108 63 -35 127 49 51 4 10 33 vhcurveto
          2 -2 -6 -31 -2 -35 1 -27 rlinecurve
          142 269 -116 -24 hlineto
          -47 -21 -2 -85 -82 -20 12 41 40 19 11 52 vhcurveto
          116 105 -134 hlineto
          -32 -14 8 28 27 13 8 33 hvcurveto
          257 179 100 107 -625 hlineto
          endchar
        </CharString>
        <CharString name="dvD_DHA">
          216 -40 -107 callsubr
          659 289 callgsubr
          -81 23 -51 45 -27 hvcurveto
          -5 vlineto
          -28 -25 -9 -78 -85 -18 4 34 28 14 8 53 vhcurveto
          13 104 -15 hlineto
          -54 -18 7 25 25 14 8 64 hvcurveto
          8 101 -38 hlineto
          -129 -46 -45 -74 -58 32 -30 48 -10 hvcurveto
          -4 vlineto
          -46 -9 -26 -31 -58 vvcurveto
          -97 83 -34 138 155 64 36 84 2 vhcurveto
          4 4 0 4 hhcurveto
          49 51 9 14 23 hvcurveto
          240 callgsubr
          -34 hlineto
          -27 -21 -12 -75 -82 -54 callgsubr
          72 vhcurveto
          218 179 100 107 -891 hlineto
          endchar
        </CharString>
        <CharString name="dvD_GA">
          -69 -45 -107 callsubr
          394 -74 callgsubr
          -149 -61 -47 -135 -103 38 -54 71 -20 hvcurveto
          -62 vlineto
          -32 -12 -8 -20 -12 -13 2 2 -9 vhcurveto
          -2 -90 hlineto
          -9 27 33 -7 38 hhcurveto
          64 30 42 56 hvcurveto
          97 vlineto
          37 2 29 4 24 7 3 -2 rcurveline
          -239 237 callsubr
          -82 -54 callgsubr
          72 16 callsubr
          -626 hlineto
          endchar
        </CharString>
        <CharString name="dvD_GHA">
          227 316 253 rmoveto
          -74 19 -49 39 -29 vhcurveto
          -12 vlineto
          -28 -25 -9 -78 -85 -18 4 34 28 14 8 53 vhcurveto
          13 104 -15 hlineto
          -54 -18 7 25 25 14 8 64 33 25 0 -1 21 hvcurveto
          -1 -13 -1 -13 -15 vvcurveto
          -356 247 rmoveto
          669 -65 hlineto
          -31 -32 0 -30 hhcurveto
          -84 -57 -13 -33 -35 hvcurveto
          5 -35 -47 2 -49 hhcurveto
          -153 -42 -45 -74 -58 32 -30 48 -10 hvcurveto
          -4 vlineto
          -46 -9 -26 -31 -58 vvcurveto
          -97 83 -34 138 155 64 36 84 2 vhcurveto
          -1 10 11 0 11 hhcurveto
          59 47 9 15 27 hvcurveto
          227 callgsubr
          208 179 100 107 -901 hlineto
          endchar
        </CharString>
        <CharString name="dvD_G_RA">
          -69 -45 -107 callsubr
          394 -66 hlineto
          1 -37 -41 0 -35 hhcurveto
          -149 -61 -42 -135 -82 26 -50 49 -27 hvcurveto
          -57 vlineto
          -34 -13 -8 -25 -11 -11 2 2 -10 vhcurveto
          -2 -96 hlineto
          -9 24 31 -8 38 hhcurveto
          58 31 45 59 hvcurveto
          81 5 vlineto
          59 41 4 10 33 hvcurveto
          3 -2 rlineto
          -65 vlineto
          -68 -66 -117 -119 -70 -77 rrcurveto
          -3 142 vlineto
          110 131 rlineto
          3 -89 134 465 -116 -29 hlineto
          -47 -21 -2 -85 -82 -20 9 55 60 19 10 72 16 callsubr
          -626 hlineto
          endchar
        </CharString>
        <CharString name="dvD_MA">
          192 -70 -107 callsubr
          415 -74 callgsubr
          -169 -61 -57 -135 -147 67 -50 133 59 51 4 10 33 hvcurveto
          3 -2 rlineto
          -63 vlineto
          -49 -4 -13 -17 -57 vvcurveto
          -66 20 -15 78 78 20 9 74 vhcurveto
          31 113 -149 132 699 100 107 -897 vlineto
          552 -367 rmoveto
          -120 -44 hlineto
          -27 -27 -12 -85 -92 -20 9 70 70 19 15 92 vhcurveto
          228 179 118 -443 -113 hlineto
          endchar
        </CharString>
        <CharString name="dvD_NA">
          -39 -55 -107 callsubr
          419 -66 hlineto
          1 -38 -42 0 -33 123 callgsubr
          -111 51 -52 102 -12 hvcurveto
          -41 -31 -15 -11 -55 -38 -35 -24 0 -25 34 -45 36 -48 21 3 40 30 37 28 14 14 -24 38 169 127 rcurveline
          1 hlineto
          -6 -22 -2 -29 -36 vvcurveto
          143 241 -116 -34 hlineto
          -27 -31 -12 -75 -92 -54 callgsubr
          72 vhcurveto
          238 179 100 107 -651 hlineto
          endchar
        </CharString>
        <CharString name="dvD_R">
          -64 -60 500 103 callgsubr
          -50 133 hvcurveto
          -6 callsubr
          -651 hlineto
          388 -643 -47 callgsubr
          endchar
        </CharString>
        <CharString name="dvD_RA">
          -44 192 callsubr
          -50 133 hvcurveto
          -6 callsubr
          -651 hlineto
          endchar
        </CharString>
        <CharString name="dvD_VA">
          -4 -55 -107 callsubr
          437 -66 hlineto
          1 -39 -44 0 -41 hhcurveto
          -166 -61 -47 -135 -65 20 -48 48 -19 hvcurveto
          140 callsubr
          -686 hlineto
          226 -609 184 callsubr
        </CharString>
        <CharString name="dvD_YA">
          20 271 147 rmoveto
          -94 -19 12 26 25 16 9 45 hvcurveto
          76 97 -85 hlineto
          -35 -11 10 20 22 14 6 32 hvcurveto
          91 126 106 -334 hlineto
          -12 -36 -40 -7 -60 hhcurveto
          -331 353 rmoveto
          243 -33 hlineto
          -4 -4 0 -2 hhcurveto
          -102 -51 -27 -79 -56 31 -34 57 -5 hvcurveto
          -2 vlineto
          -57 -5 -37 -42 -55 vvcurveto
          -91 61 -31 152 63 64 8 11 51 vhcurveto
          2 -2 rlineto
          -48 -106 callgsubr
          -715 vlineto
          endchar
        </CharString>
        <CharString name="dvE">
          97 callsubr
          endchar
        </CharString>
        <CharString name="dvEcandra">
          97 callsubr
          402 169 callsubr
        </CharString>
        <CharString name="dvEyelash">
          -223 -20 606 rmoveto
          432 -107 -432 hlineto
          432 -292 rmoveto
          -198 hlineto
          -125 -75 40 102 hvcurveto
          14 126 vlineto
          -32 18 -14 55 vhcurveto
          199 hlineto
          endchar
        </CharString>
        <CharString name="dvEyelash_HA">
          247 606 -20 rmoveto
          78 76 6 7 37 hvcurveto
          244 callsubr
          -82 -2 -61 hhcurveto
          16 callgsubr
          -897 -107 684 -51 -144 hlineto
          -115 -37 -34 -65 -5 hvcurveto
          -150 hlineto
          -55 -18 14 32 hvcurveto
          -126 -14 hlineto
          -102 75 -40 125 vhcurveto
          221 hlineto
          4 -1 rlineto
          252 callgsubr
          vhcurveto
          endchar
        </CharString>
        <CharString name="dvEyelash_YA">
          425 499 -103 callsubr
          -519 337 rmoveto
          -107 541 3 callgsubr
          -200 hlineto
          -55 -18 14 32 hvcurveto
          -126 -14 hlineto
          -102 75 -40 125 vhcurveto
          156 hlineto
          -120 20 94 -61 158 -106 callsubr
          vlineto
          endchar
        </CharString>
        <CharString name="dvG">
          -277 408 500 152 callsubr
        </CharString>
        <CharString name="dvGA">
          -11 -50 -107 callsubr
          154 -202 hlineto
          67 callgsubr
          -674 vlineto
          endchar
        </CharString>
        <CharString name="dvGH">
          -198 -65 500 260 callgsubr
          -77 -10 -38 -44 -77 vvcurveto
          -91 60 -58 141 125 75 23 46 78 vhcurveto
          -27 108 rlineto
          -39 -65 -66 -15 -79 76 callgsubr
          249 107 -574 hlineto
          endchar
        </CharString>
        <CharString name="dvGHA">
          48 193 228 rmoveto
          40 22 12 75 vhcurveto
          -46 callsubr
          174 -297 hlineto
          43 callgsubr
          38 hvcurveto
          -258 272 rmoveto
          -49 callsubr
          -111 60 -51 141 73 66 12 19 43 vhcurveto
          3 -2 rlineto
          -74 -105 callgsubr
          -748 vlineto
          endchar
        </CharString>
        <CharString name="dvGH_MA">
          423 652 500 -27 callsubr
          -613 150 rmoveto
          -24 callgsubr
          -77 -10 -38 -44 -77 vvcurveto
          -91 60 -58 141 100 68 15 29 64 vhcurveto
          -3 16 20 -1 25 -76 callsubr
          -1123 121 callgsubr
          465 -156 rmoveto
          -57 -22 -16 -68 -2 hvcurveto
          -13 -41 -44 -6 -48 76 callgsubr
          244 hlineto
          endchar
        </CharString>
        <CharString name="dvGH_NA">
          388 39 436 rmoveto
          137 callsubr
          -1088 121 callgsubr
          483 -106 rmoveto
          -89 -22 -12 -89 -51 -42 -2 -79 -75 -22 13 38 40 22 13 75 hvcurveto
          19 115 -19 190 callsubr
          514 -169 hlineto
          -240 -1 rlineto
          endchar
        </CharString>
        <CharString name="dvGH_R">
          88 callsubr
          209 107 -534 hlineto
          endchar
        </CharString>
        <CharString name="dvGH_RA">
          38 -65 -107 callsubr
          197 callgsubr
          -4 165 vlineto
          78 141 2 -1 rlineto
          -99 -105 callgsubr
          -748 vlineto
          258 -379 rmoveto
          40 22 12 85 vhcurveto
          219 callsubr
          164 -287 hlineto
          43 callgsubr
          28 hvcurveto
          endchar
        </CharString>
        <CharString name="dvGH_YA">
          480 39 436 rmoveto
          -24 callgsubr
          -77 -10 -38 -44 -77 vvcurveto
          -91 60 -58 141 119 74 21 42 75 vhcurveto
          -27 45 60 -14 75 hhcurveto
          -97 callgsubr
          hvcurveto
          -94 callgsubr
          -1180 121 callgsubr
          537 28 rmoveto
          -92 callsubr
          -42 7 -37 14 -31 vhcurveto
          -18 -47 -49 -7 -55 76 callgsubr
          316 -3 callsubr
          endchar
        </CharString>
        <CharString name="dvG_BA">
          349 470 -30 callsubr
          -341 -132 rmoveto
          -79 callsubr
          491 -305 vlineto
          162 callgsubr
          -1034 -90 callsubr
        </CharString>
        <CharString name="dvG_BHA">
          329 -6 callgsubr
          115 vlineto
          -72 callgsubr
          -153 vlineto
          -40 callgsubr
          -62 callsubr
          156 -159 -105 callgsubr
          -249 -327 -155 142 hlineto
          132 -35 50 -117 3 vhcurveto
          -458 54 callsubr
        </CharString>
        <CharString name="dvG_BH_YA">
          783 857 -103 callsubr
          -197 230 -46 callgsubr
          -11 0 -11 1 -10 vhcurveto
          -164 142 hlineto
          132 -35 50 -117 3 vhcurveto
          -458 -107 154 -202 hlineto
          26 callgsubr
          115 vlineto
          183 callgsubr
          endchar
        </CharString>
        <CharString name="dvG_DA">
          264 129 122 rmoveto
          -79 callsubr
          421 -66 vlineto
          1 -37 -40 0 -36 123 callgsubr
          -137 67 -51 133 -49 callgsubr
          -949 54 callsubr
        </CharString>
        <CharString name="dvG_DHA">
          336 129 122 125 callsubr
          -249 -404 vlineto
          42 callsubr
          -687 54 callsubr
        </CharString>
        <CharString name="dvG_DH_VA">
          728 687 -107 callsubr
          428 -301 hlineto
          -71 callsubr
          -21 1 -18 3 -17 hvcurveto
          -14 -42 -43 -4 -51 141 callgsubr
          177 97 58 11 24 55 vhcurveto
          75 callgsubr
        </CharString>
        <CharString name="dvG_DH_YA">
          795 869 -103 callsubr
          -182 230 rmoveto
          204 -25 callsubr
          -41 7 -36 13 -31 vhcurveto
          -19 -46 -47 -8 -57 141 callgsubr
          167 117 74 20 37 68 vhcurveto
          -23 43 57 -12 69 78 callgsubr
        </CharString>
        <CharString name="dvG_GA">
          282 129 122 rmoveto
          -79 callsubr
          166 -202 vlineto
          67 callgsubr
          -982 -90 callsubr
        </CharString>
        <CharString name="dvG_GHA">
          336 501 228 rmoveto
          40 22 12 75 vhcurveto
          -46 callsubr
          174 -297 hlineto
          43 callgsubr
          38 hvcurveto
          -372 -106 125 callsubr
          -1041 -90 callsubr
        </CharString>
        <CharString name="dvG_JA">
          386 -6 callgsubr
          528 -97 -372 -116 30 vlineto
          189 callgsubr
          -1071 -90 callsubr
        </CharString>
        <CharString name="dvG_LA">
          507 -6 callgsubr
          647 -105 vlineto
          177 callgsubr
          -67 132 67 229 callsubr
          -59 4 vhcurveto
          -213 -105 callgsubr
          -1192 -107 154 -202 vlineto
          -31 callgsubr
          endchar
        </CharString>
        <CharString name="dvG_MA">
          334 563 500 -27 callsubr
          -434 -164 rmoveto
          -79 callsubr
          169 -220 vlineto
          -50 callsubr
          -1019 -90 callsubr
        </CharString>
        <CharString name="dvG_NA">
          299 -6 callgsubr
          439 -159 vlineto
          41 callsubr
          -984 -90 callsubr
        </CharString>
        <CharString name="dvG_NNA">
          484 492 306 -51 callsubr
          -363 -184 rmoveto
          -79 callsubr
          102 238 callgsubr
          -1159 -107 154 -202 vlineto
          -31 callgsubr
          endchar
        </CharString>
        <CharString name="dvG_N_YA">
          754 828 -103 callsubr
          -699 -148 rmoveto
          -79 callsubr
          604 55 callsubr
          147 callsubr
          -1439 -90 callsubr
        </CharString>
        <CharString name="dvG_R">
          -273 -50 -107 callsubr
          154 -135 -34 callgsubr
          190 170 107 -466 vlineto
          464 -292 189 callsubr
        </CharString>
        <CharString name="dvG_RA">
          -10 -50 -107 callsubr
          154 -135 -34 callgsubr
          190 129 -208 vlineto
          -91 -90 -76 -84 -102 -105 rrcurveto
          -98 callsubr
          101 129 rlineto
          2 -129 -27 callgsubr
          -674 hlineto
          endchar
        </CharString>
        <CharString name="dvG_R_YA">
          405 479 -103 callsubr
          -529 230 rmoveto
          154 -135 -34 callgsubr
          190 255 -45 callsubr
          -18 1 -17 3 -16 vhcurveto
          -85 -73 -118 -113 -55 -62 rrcurveto
          -98 callsubr
          140 145 rlineto
          -52 46 76 -26 103 -106 callsubr
          -1090 vlineto
          endchar
        </CharString>
        <CharString name="dvG_SA">
          400 624 422 32 callgsubr
          -495 -300 rmoveto
          -79 callsubr
          230 178 callsubr
          292 -186 -106 callgsubr
          -1085 -90 callsubr
        </CharString>
        <CharString name="dvG_VA">
          324 -6 callgsubr
          465 -301 vlineto
          -71 callsubr
          -140 60 -55 162 -26 callsubr
          -1009 -90 callsubr
        </CharString>
        <CharString name="dvG_YA">
          391 465 270 -99 callgsubr
          -336 -148 rmoveto
          -79 callsubr
          241 223 callgsubr
          -1076 -90 callsubr
        </CharString>
        <CharString name="dvGx">
          -271 194 48 -104 callgsubr
          214 452 152 callsubr
        </CharString>
        <CharString name="dvGxA">
          -11 194 63 -104 callgsubr
          -244 437 rmoveto
          154 -197 -34 callgsubr
          252 129 65 callsubr
          101 107 -674 vlineto
          endchar
        </CharString>
        <CharString name="dvGx_R">
          -237 -24 500 rmoveto
          153 -125 -34 callgsubr
          180 181 107 -476 vlineto
          147 -444 rmoveto
          4 -22 -22 2 -21 hhcurveto
          -22 -22 -2 -4 -22 hvcurveto
          -3 -19 67 callsubr
          -14 3 -17 vhcurveto
          -5 22 21 -2 21 hhcurveto
          22 22 2 5 23 hvcurveto
          2 18 1 14 14 vvcurveto
          14 -1 14 -2 19 vhcurveto
          325 152 189 callsubr
        </CharString>
        <CharString name="dvGx_RA">
          2 -25 -107 callsubr
          154 -125 -34 callgsubr
          180 114 -218 vlineto
          -87 -84 -95 -99 -77 -86 rrcurveto
          -98 callsubr
          90 119 rlineto
          3 -119 148 491 101 107 -659 hlineto
          148 -444 rmoveto
          4 -22 -22 2 -21 hhcurveto
          -22 -22 -2 -4 -22 hvcurveto
          -3 -19 67 callsubr
          -14 3 -17 vhcurveto
          -5 22 21 -2 21 hhcurveto
          22 22 2 5 23 hvcurveto
          2 18 1 14 14 vvcurveto
          14 -1 14 -2 19 vhcurveto
          endchar
        </CharString>
        <CharString name="dvH">
          -95 -33 500 -31 callsubr
          330 104 -315 hlineto
          295 callgsubr
          106 107 -593 hlineto
          endchar
        </CharString>
        <CharString name="dvHA">
          -70 -33 500 rmoveto
          380 -51 -144 hlineto
          -122 -35 -39 -72 -58 24 -30 52 -11 hvcurveto
          -11 callsubr
          -593 hlineto
          endchar
        </CharString>
        <CharString name="dvHA_mU">
          -70 -33 -107 callsubr
          380 89 callgsubr
          -54 -10 -31 -27 -77 vvcurveto
          -105 72 -37 180 72 21 -4 -31 -34 -15 -6 -59 -60 -36 20 28 -22 vhcurveto
          -125 -3 hlineto
          -83 31 87 -66 145 hhcurveto
          141 36 39 100 140 -45 10 -159 16 callgsubr
          -593 hlineto
          endchar
        </CharString>
        <CharString name="dvHA_mUU">
          -64 -33 -107 callsubr
          380 89 callgsubr
          -54 -10 -31 -27 -77 vvcurveto
          -53 32 -43 47 -6 vhcurveto
          -2 vlineto
          -19 -8 -13 -33 -31 vvcurveto
          -96 50 -30 96 38 46 8 9 24 vhcurveto
          -19 84 -4 3 rlineto
          -3 -14 -25 -3 -19 hhcurveto
          -29 -16 5 28 28 8 4 59 73 69 -55 -76 21 hvcurveto
          134 7 hlineto
          -3 10 -3 10 -4 9 rrcurveto
          134 -59 -97 69 -142 hhcurveto
          -15 hlineto
          -66 -20 17 31 36 23 10 59 89 3 -5 -28 hvcurveto
          -8 142 32 vlineto
          81 -34 27 -116 vhcurveto
          -69 hlineto
          -69 -12 4 27 27 12 5 49 hvcurveto
          226 153 90 107 -593 hlineto
          endchar
        </CharString>
        <CharString name="dvHA_mvR">
          -70 -33 -107 callsubr
          400 -51 -164 hlineto
          -122 -35 -39 -72 -58 24 -30 42 -11 hvcurveto
          -3 vlineto
          -44 -10 -31 -27 -77 vvcurveto
          -195 130 198 vlineto
          48 19 12 73 vhcurveto
          83 hlineto
          38 11 -8 -23 -24 -12 -6 -38 hvcurveto
          -19 hlineto
          -70 -39 -31 -92 -96 40 -37 127 32 59 3 7 32 hvcurveto
          96 vlineto
          -3 2 rlineto
          -6 -31 -33 -1 -31 hhcurveto
          -54 -15 4 29 26 15 5 26 hvcurveto
          8 hlineto
          82 36 32 93 94 -46 32 -82 hvcurveto
          -131 hlineto
          -49 -12 4 27 27 12 5 49 hvcurveto
          246 153 70 107 -593 hlineto
          endchar
        </CharString>
        <CharString name="dvH_LA">
          699 207 callsubr
          631 -105 hlineto
          -63 callsubr
          -106 -62 -41 -97 -14 hvcurveto
          -569 218 -31 callsubr
          288 hlineto
          8 -58 20 -57 29 -54 rrcurveto
          -91 callgsubr
          -1367 vlineto
          endchar
        </CharString>
        <CharString name="dvH_MA">
          526 755 -86 callgsubr
          -788 214 -31 callsubr
          277 hlineto
          -67 2 24 -17 93 -76 callsubr
          -1194 vlineto
          297 -325 287 callgsubr
          153 -218 hlineto
          endchar
        </CharString>
        <CharString name="dvH_NA">
          491 264 282 287 callgsubr
          423 -159 hlineto
          -240 -1 rlineto
          -12 hlineto
          -68 -26 -8 -50 -7 hvcurveto
          -557 218 -31 callsubr
          288 hlineto
          -19 14 26 -5 45 hhcurveto
          -69 callsubr
          -1159 vlineto
          endchar
        </CharString>
        <CharString name="dvH_NNA">
          676 270 callgsubr
          106 -169 hlineto
          -18 0 -16 1 -15 vhcurveto
          143 24 rmoveto
          -5 callgsubr
          -717 194 172 callgsubr
          312 hlineto
          -60 25 54 -23 106 hhcurveto
          -2 callgsubr
          hvcurveto
          169 100 -491 -105 callgsubr
          -1334 vlineto
          endchar
        </CharString>
        <CharString name="dvH_R">
          -26 237 -96 rmoveto
          174 -166 140 37 rlineto
          5 vlineto
          -53 51 -60 42 -63 36 rrcurveto
          -138 hlineto
          -270 591 133 callgsubr
        </CharString>
        <CharString name="dvH_RA">
          -26 -33 500 133 callgsubr
        </CharString>
        <CharString name="dvH_VA">
          516 207 callsubr
          449 -66 callgsubr
          -118 -60 -46 -111 -9 hvcurveto
          -559 218 -31 callsubr
          283 hlineto
          -87 21 64 -35 130 -98 callgsubr
          -1184 vlineto
          endchar
        </CharString>
        <CharString name="dvH_YA">
          583 270 callgsubr
          245 -25 callsubr
          -10 0 -10 1 -10 vhcurveto
          133 -12 rmoveto
          121 7 43 43 30 callgsubr
          -46 27 43 -1 hvcurveto
          -690 230 172 callgsubr
          308 hlineto
          -68 42 82 -34 119 -106 callsubr
          -1251 vlineto
          endchar
        </CharString>
        <CharString name="dvI">
          -66 -40 -107 callsubr
          396 -53 -132 hlineto
          99 callsubr
          -604 hlineto
          endchar
        </CharString>
        <CharString name="dvII">
          -66 534 894 rmoveto
          3 -24 -31 2 -19 hhcurveto
          -137 -48 -51 -88 -52 14 -55 25 -43 hvcurveto
          -3 -354 93 callsubr
          -119 hlineto
          -21 34 -13 37 38 vvcurveto
          48 18 25 60 15 13 -1 -2 16 vhcurveto
          2 4 rlineto
          endchar
        </CharString>
        <CharString name="dvII_Anusvara">
          -119 497 895 rmoveto
          3 -17 -18 1 -19 hhcurveto
          -137 -48 -51 -88 hvcurveto
          -1 -64 21 -52 47 -34 rrcurveto
          -3 -365 93 callsubr
          -116 hlineto
          -45 29 -19 43 47 vvcurveto
          44 17 19 60 13 11 -1 -2 11 vhcurveto
          2 4 rlineto
          56 -48 rmoveto
          4 -20 -20 1 -19 hhcurveto
          -20 -20 -1 -4 -20 hvcurveto
          -2 -18 -1 -14 -12 vvcurveto
          -12 1 -13 2 -16 vhcurveto
          -4 20 19 -3 20 hhcurveto
          20 20 3 4 20 hvcurveto
          2 17 1 12 13 vvcurveto
          13 -1 12 -2 18 vhcurveto
          endchar
        </CharString>
        <CharString name="dvJ">
          -156 94 287 166 callgsubr
        </CharString>
        <CharString name="dvJA">
          78 -35 500 107 callsubr
        </CharString>
        <CharString name="dvJH">
          5 -40 500 105 callsubr
          213 105 -226 196 callsubr
          256 107 -819 hlineto
          endchar
        </CharString>
        <CharString name="dvJHA">
          239 507 500 24 callgsubr
          -547 160 rmoveto
          429 -53 -155 hlineto
          -21 callsubr
          126 callsubr
          -914 hlineto
          endchar
        </CharString>
        <CharString name="dvJH_MA">
          595 824 -86 callgsubr
          -148 -6 rmoveto
          -49 -23 -12 -45 -7 hvcurveto
          -102 196 callsubr
          153 hlineto
          -716 hmoveto
          445 hlineto
          1 -53 rlineto
          -172 hlineto
          -21 callsubr
          60 109 callgsubr
          -95 -19 7 29 hvcurveto
          8 -103 -231 38 callgsubr
          56 -7 59 hhcurveto
          127 55 30 88 9 hvcurveto
          104 hlineto
          -18 17 31 -6 54 -76 callsubr
          -1270 vlineto
          endchar
        </CharString>
        <CharString name="dvJH_NA">
          560 -40 -107 callsubr
          118 callsubr
          138 54 36 107 hvcurveto
          5 0 5 5 vvcurveto
          85 hlineto
          -43 8 25 -11 64 hhcurveto
          -1 callgsubr
          153 1 rlineto
          -170 -105 callgsubr
          -1235 vlineto
          734 -317 rmoveto
          -51 -27 -4 -23 -14 hvcurveto
          -150 hlineto
          14 -31 -46 5 -65 36 callgsubr
          285 160 423 -209 hlineto
          -240 -1 rlineto
          endchar
        </CharString>
        <CharString name="dvJH_R">
          33 -50 -107 callsubr
          524 100 callsubr
          106 177 rlineto
          100 -252 vlineto
          37 -26 -55 10 -96 36 callgsubr
          374 160 136 107 -778 hlineto
          endchar
        </CharString>
        <CharString name="dvJH_RA">
          324 592 -107 callsubr
          119 -265 -244 hlineto
          37 -26 -55 10 -96 36 callgsubr
          374 hlineto
          -632 160 rmoveto
          514 100 callsubr
          98 166 rlineto
          -115 148 -102 callgsubr
          -999 vlineto
          endchar
        </CharString>
        <CharString name="dvJH_YA">
          652 523 -107 callsubr
          225 -25 callsubr
          -33 4 -30 9 -26 vhcurveto
          -110 257 callgsubr
          hlineto
          203 -70 -99 callgsubr
          -766 230 105 callsubr
          179 hlineto
          -28 45 61 -14 76 -106 callsubr
          -1327 vlineto
          endchar
        </CharString>
        <CharString name="dvJ_BA">
          480 601 -30 callsubr
          -418 -254 rmoveto
          -45 callgsubr
          168 vlineto
          -2 -14 -1 -15 -16 48 callsubr
          -1150 -107 903 157 callsubr
          -57 -45 -10 -26 -31 hvcurveto
          -428 -91 callsubr
        </CharString>
        <CharString name="dvJ_DA">
          395 183 hmoveto
          -45 callgsubr
          165 vlineto
          -2 -13 -1 -15 -16 vvcurveto
          242 callsubr
          vhcurveto
          17 callgsubr
          -1066 -107 834 -74 callgsubr
          -71 -52 -9 -23 -35 hvcurveto
          -434 -91 callsubr
        </CharString>
        <CharString name="dvJ_DDA">
          342 -57 callgsubr
          182 vlineto
          -79 5 46 -33 122 hhcurveto
          8 callgsubr
          -1032 -107 823 -53 -130 hlineto
          -73 -48 -13 -31 -26 hvcurveto
          -417 -91 callsubr
        </CharString>
        <CharString name="dvJ_JA">
          477 -57 callgsubr
          219 vlineto
          82 19 -28 -10 callgsubr
          162 -288 147 -102 callgsubr
          -1147 -107 900 -97 -771 -116 30 vlineto
          27 callgsubr
          endchar
        </CharString>
        <CharString name="dvJ_JHA">
          653 946 500 24 callgsubr
          -763 -340 rmoveto
          -45 callgsubr
          196 vlineto
          -81 6 47 -31 108 123 callsubr
          -1348 -107 863 -53 -155 hlineto
          -74 -49 -13 -31 -26 hvcurveto
          -430 -91 callsubr
        </CharString>
        <CharString name="dvJ_J_NYA">
          626 -57 callgsubr
          181 vlineto
          -78 7 47 -21 89 hhcurveto
          57 hlineto
          64 35 2 -40 -40 -37 -3 -37 -58 -30 3 3 -18 hvcurveto
          -16 3 -6 6 11 vvcurveto
          24 -116 -249 146 vlineto
          -4 60 -10 31 -15 21 3 4 rcurveline
          -17 34 37 -8 74 hhcurveto
          144 68 25 122 122 -69 16 -143 hvcurveto
          -63 hlineto
          -19 -9 6 21 22 9 6 19 hvcurveto
          344 -340 -105 callgsubr
          -1296 -107 1047 -54 -381 hlineto
          -65 -41 -12 -31 -21 hvcurveto
          -410 -91 callsubr
        </CharString>
        <CharString name="dvJ_J_VA">
          844 -57 callgsubr
          229 vlineto
          82 19 -28 -10 callgsubr
          143 vlineto
          -2 -14 -1 -15 -17 28 callgsubr
          -1514 -107 1266 -96 callgsubr
          -58 -44 -11 -25 -31 hvcurveto
          -814 -91 callsubr
        </CharString>
        <CharString name="dvJ_J_YA">
          932 1006 270 rmoveto
          121 7 43 49 102 vvcurveto
          72 112 callgsubr
          22 48 -1 hvcurveto
          -823 -270 rmoveto
          -62 callgsubr
          36 -7 30 -15 21 hvcurveto
          205 hlineto
          82 19 -18 -50 -64 5 callsubr
          -62 callgsubr
          36 -8 31 -15 21 hvcurveto
          117 hlineto
          -128 19 94 -64 161 -106 callsubr
          -1602 -107 1063 118 callgsubr
          -863 176 callsubr
        </CharString>
        <CharString name="dvJ_KA">
          764 -57 callgsubr
          157 vlineto
          -1 -14 -1 -16 -17 -12 callsubr
          -1419 -107 860 -78 callgsubr
          -58 -41 -9 -24 -27 hvcurveto
          -412 -91 callsubr
        </CharString>
        <CharString name="dvJ_MA">
          465 694 -86 callgsubr
          -511 -286 rmoveto
          -45 callgsubr
          242 -17 vlineto
          -50 callsubr
          -1135 -107 581 -97 -452 -116 30 vlineto
          27 callgsubr
          endchar
        </CharString>
        <CharString name="dvJ_NA">
          420 173 hmoveto
          -62 callgsubr
          36 -8 31 -15 21 hvcurveto
          123 hlineto
          -83 20 -17 80 79 22 9 85 2 vhcurveto
          152 1 rlineto
          -254 -105 callgsubr
          -1100 -107 851 -125 vlineto
          -250 -1 rlineto
          -472 176 callsubr
        </CharString>
        <CharString name="dvJ_NY">
          -89 -30 -107 callsubr
          107 630 -107 vlineto
          -384 -53 rmoveto
          384 -107 -380 hlineto
          -23 -15 -4 -25 -25 15 -4 23 hvcurveto
          92 hlineto
          136 48 -41 -100 -100 -61 -41 -151 -56 -59 7 12 -28 hvcurveto
          -3 -3 rlineto
          10 -28 2 -24 -38 vvcurveto
          -125 231 103 -8 hlineto
          -29 37 -7 77 89 25 7 29 29 -13 7 -74 vhcurveto
          -65 hlineto
          -117 -45 37 96 95 52 34 122 hvcurveto
          endchar
        </CharString>
        <CharString name="dvJ_NYA">
          184 -30 -107 callsubr
          600 -53 -354 30 callsubr
          350 -331 -105 callgsubr
          -849 hlineto
          endchar
        </CharString>
        <CharString name="dvJ_NY_R">
          100 -30 -107 callsubr
          793 107 -793 hlineto
          246 -160 rmoveto
          102 callsubr
          534 hlineto
          -82 -89 -127 -150 -66 -91 rrcurveto
          -4 176 vlineto
          108 202 rlineto
          239 vlineto
          endchar
        </CharString>
        <CharString name="dvJ_NY_RA">
          334 -30 -107 callsubr
          750 -53 -504 30 callsubr
          500 -42 hlineto
          -1 3 rlineto
          -3 vlineto
          -88 -90 -79 -98 -73 -100 rrcurveto
          -4 176 vlineto
          61 137 rlineto
          4 -134 -105 callgsubr
          -999 hlineto
          endchar
        </CharString>
        <CharString name="dvJ_NY_YA">
          589 663 -103 callsubr
          -693 230 rmoveto
          715 -36 hlineto
          -60 -8 -24 -37 -8 vhcurveto
          42 -12 -56 33 -68 hhcurveto
          -288 30 callsubr
          260 hlineto
          33 16 -12 -28 hvcurveto
          -148 5 96 -76 176 -106 callsubr
          -1254 vlineto
          endchar
        </CharString>
        <CharString name="dvJ_R">
          -152 95 298 149 callgsubr
        </CharString>
        <CharString name="dvJ_RA">
          138 -35 500 146 callgsubr
        </CharString>
        <CharString name="dvJ_TA">
          422 173 hmoveto
          -45 callgsubr
          176 vlineto
          -1 -10 -1 -11 -12 vvcurveto
          -41 callsubr
          vhcurveto
          -87 callgsubr
          -1102 -107 854 -85 callgsubr
          -35 -31 -3 -6 -27 hvcurveto
          -489 -91 callsubr
        </CharString>
        <CharString name="dvJ_TTA">
          337 -57 callgsubr
          173 vlineto
          -5 -23 -2 -26 -30 vvcurveto
          306 callgsubr
          vhcurveto
          121 2 callsubr
          -1007 -107 756 22 callsubr
          -55 -44 -9 -24 -32 hvcurveto
          -442 -91 callsubr
        </CharString>
        <CharString name="dvJ_VA">
          455 -57 callgsubr
          163 vlineto
          -2 -14 -1 -15 -17 28 callgsubr
          -1125 -107 877 -96 callgsubr
          -58 -44 -11 -25 -31 hvcurveto
          -425 -91 callsubr
        </CharString>
        <CharString name="dvJ_YA">
          132 callgsubr
          endchar
        </CharString>
        <CharString name="dvJx">
          -166 162 -59 -104 callgsubr
          -68 346 166 callgsubr
        </CharString>
        <CharString name="dvJxA">
          78 156 -59 -104 callgsubr
          -191 559 107 callsubr
        </CharString>
        <CharString name="dvJx_JxA">
          487 -57 callgsubr
          219 vlineto
          82 19 -28 -10 callgsubr
          172 -288 147 -102 callgsubr
          -1157 -107 910 -97 -781 -116 30 vlineto
          27 callgsubr
          -21 -59 -104 callgsubr
          413 4 -104 callgsubr
          endchar
        </CharString>
        <CharString name="dvJx_R">
          -152 186 -19 -104 callgsubr
          -91 317 149 callgsubr
        </CharString>
        <CharString name="dvJx_RA">
          128 192 -19 -104 callgsubr
          -227 519 146 callgsubr
        </CharString>
        <CharString name="dvJx_YA">
          132 callgsubr
          15 -59 -104 callgsubr
          endchar
        </CharString>
        <CharString name="dvK">
          130 -25 500 85 callsubr
        </CharString>
        <CharString name="dvKA">
          325 -25 500 79 callsubr
        </CharString>
        <CharString name="dvKH">
          56 -30 500 -93 callsubr
          234 111 83 91 22 vhcurveto
          93 vlineto
          -4 2 rlineto
          -14 -35 -50 -11 -65 -84 callsubr
          402 107 -761 vlineto
          endchar
        </CharString>
        <CharString name="dvKHA">
          301 -30 -107 callsubr
          217 -67 hlineto
          -68 -33 -14 -73 vhcurveto
          -45 -130 hlineto
          31 callgsubr
          -966 hlineto
          566 -157 -53 callsubr
          endchar
        </CharString>
        <CharString name="dvKH_KHA">
          952 838 433 rmoveto
          -68 -33 -14 -73 vhcurveto
          -45 -97 hlineto
          -7 -30 -37 -5 -43 -84 callsubr
          509 vlineto
          349 -50 -53 callsubr
          -1217 50 rmoveto
          217 -67 hlineto
          -8 callgsubr
          188 109 54 68 47 vhcurveto
          -84 40 101 -38 166 209 callsubr
          -1617 hlineto
          endchar
        </CharString>
        <CharString name="dvKH_MA">
          677 906 -86 callgsubr
          -936 214 -93 callsubr
          180 108 49 65 50 vhcurveto
          -13 17 30 -5 47 -76 callsubr
          -1342 vlineto
          788 -327 rmoveto
          -34 -22 -6 -19 -12 hvcurveto
          -8 -31 -37 -5 -45 hhcurveto
          -56 -24 10 48 39 15 12 61 27 25 -3 -3 19 hvcurveto
          2 1 rlineto
          92 vlineto
          7 -30 -39 5 -41 hhcurveto
          -81 callsubr
          -25 -28 -50 -13 -123 hhcurveto
          -137 -53 41 69 hvcurveto
          27 -56 callgsubr
          93 429 vlineto
          endchar
        </CharString>
        <CharString name="dvKH_NA">
          642 776 340 rmoveto
          -80 -22 -10 -79 -1 hvcurveto
          -5 -27 -32 -4 -37 hhcurveto
          -56 -24 10 48 39 15 12 61 27 25 -3 -3 19 hvcurveto
          2 1 rlineto
          92 vlineto
          7 -30 -39 5 -41 hhcurveto
          -81 callsubr
          -25 -28 -50 -13 -123 hhcurveto
          -137 -53 41 69 hvcurveto
          27 -56 callgsubr
          93 699 -64 callgsubr
          -818 160 -93 callsubr
          221 112 74 85 30 vhcurveto
          -2 12 15 -1 19 hhcurveto
          -69 callsubr
          -1307 vlineto
          endchar
        </CharString>
        <CharString name="dvKH_R">
          102 -54 500 76 callsubr
        </CharString>
        <CharString name="dvKH_RA">
          332 -54 500 74 callsubr
        </CharString>
        <CharString name="dvKH_SHA">
          771 1158 9 3 callsubr
          -87 hlineto
          -10 -32 -39 -4 -44 -84 callsubr
          327 107 -686 -107 217 -67 vlineto
          -8 callgsubr
          234 115 86 91 22 vhcurveto
          -1 5 164 -171 -4 callsubr
        </CharString>
        <CharString name="dvKH_TA">
          644 888 412 rmoveto
          -23 callgsubr
          hvcurveto
          -3 0 -3 -3 vvcurveto
          -8 -30 -38 -5 -45 hhcurveto
          -56 -24 10 48 39 15 12 61 27 25 -3 -3 19 hvcurveto
          2 1 rlineto
          92 vlineto
          7 -30 -39 5 -41 hhcurveto
          -81 callsubr
          -25 -28 -50 -13 -123 hhcurveto
          -137 -53 41 69 hvcurveto
          27 -56 callgsubr
          93 702 -85 callgsubr
          -918 88 -93 callsubr
          190 109 55 69 46 vhcurveto
          10 -38 14 -38 16 -40 rrcurveto
          -87 callgsubr
          -1309 vlineto
          endchar
        </CharString>
        <CharString name="dvKH_VA">
          667 864 439 rmoveto
          -127 -60 -53 -134 -1 hvcurveto
          -6 -28 -33 -4 -38 -84 callsubr
          725 -96 callgsubr
          -894 61 -93 callsubr
          189 109 54 69 46 vhcurveto
          -45 33 60 -20 97 -98 callgsubr
          -1332 vlineto
          endchar
        </CharString>
        <CharString name="dvKH_YA">
          734 830 464 rmoveto
          -92 callsubr
          -21 2 -20 3 -19 vhcurveto
          -6 -28 -34 -4 -40 -84 callsubr
          501 -67 callgsubr
          -838 230 -93 callsubr
          219 111 72 84 32 vhcurveto
          -52 45 76 -26 104 -106 callsubr
          -1399 vlineto
          endchar
        </CharString>
        <CharString name="dvKHx">
          36 182 -59 -104 callgsubr
          -212 559 -93 callsubr
          234 111 83 91 22 vhcurveto
          93 vlineto
          -4 2 rlineto
          -14 -35 -50 -11 -65 -84 callsubr
          402 107 -761 vlineto
          endchar
        </CharString>
        <CharString name="dvKHxA">
          301 225 -57 rmoveto
          12 callgsubr
          -255 557 rmoveto
          217 -67 hlineto
          -68 -33 -14 -73 vhcurveto
          -45 -130 hlineto
          31 callgsubr
          -966 hlineto
          566 -157 -53 callsubr
          endchar
        </CharString>
        <CharString name="dvKHx_MA">
          657 182 -59 -104 callgsubr
          704 559 -27 callsubr
          -916 214 -93 callsubr
          173 106 46 60 52 vhcurveto
          -7 18 26 -3 37 -76 callsubr
          -1322 vlineto
          768 -327 rmoveto
          -37 -22 -7 -23 -12 hvcurveto
          -5 -26 -30 -3 -34 hhcurveto
          -56 -24 10 48 39 15 12 61 27 25 -3 -3 19 hvcurveto
          2 1 rlineto
          92 vlineto
          7 -30 -39 5 -41 hhcurveto
          -81 callsubr
          -25 -28 -50 -13 -123 hhcurveto
          -137 -53 41 69 hvcurveto
          27 -56 callgsubr
          93 409 vlineto
          endchar
        </CharString>
        <CharString name="dvKHx_R">
          102 220 -59 -104 callgsubr
          -274 559 76 callsubr
        </CharString>
        <CharString name="dvKHx_RA">
          332 230 -59 -104 callgsubr
          -284 559 74 callsubr
        </CharString>
        <CharString name="dvKHx_SA">
          723 182 -59 -104 callgsubr
          617 441 rmoveto
          -39 callsubr
          -57 hlineto
          -5 -25 -30 -3 -33 hhcurveto
          -56 -24 10 48 39 15 12 61 27 25 -3 -3 19 hvcurveto
          2 1 rlineto
          92 vlineto
          7 -30 -39 5 -41 hhcurveto
          -81 callsubr
          -25 -28 -50 -13 -123 hhcurveto
          -137 -53 41 69 hvcurveto
          27 -56 callgsubr
          93 470 -28 callsubr
          -977 78 rmoveto
          217 -67 hlineto
          -8 callgsubr
          200 110 60 75 42 vhcurveto
          107 -124 rlineto
          -65 callsubr
          292 -186 -106 callgsubr
          -1388 vlineto
          endchar
        </CharString>
        <CharString name="dvKHx_SHA">
          760 193 -49 -104 callgsubr
          964 58 3 callsubr
          -87 hlineto
          -11 -32 -39 -3 -43 -84 callsubr
          327 107 -686 -107 217 -67 vlineto
          -8 callgsubr
          232 121 84 90 23 vhcurveto
          157 -163 -4 callsubr
        </CharString>
        <CharString name="dvKHx_TA">
          624 182 -59 -104 callgsubr
          686 471 rmoveto
          -23 callgsubr
          hvcurveto
          -5 0 -4 -4 vvcurveto
          -6 -26 -31 -3 -36 -84 callsubr
          682 -85 callgsubr
          -898 88 -93 callsubr
          172 106 45 60 52 vhcurveto
          10 -32 11 -32 14 -33 rrcurveto
          -87 callgsubr
          -1289 vlineto
          endchar
        </CharString>
        <CharString name="dvKHx_VA">
          647 182 -59 -104 callgsubr
          662 498 rmoveto
          -128 -60 -54 -134 hvcurveto
          -3 vlineto
          -4 -23 -27 -2 -29 -84 callsubr
          705 -96 callgsubr
          -874 61 -93 callsubr
          177 107 48 62 51 vhcurveto
          -36 34 58 -16 87 -98 callgsubr
          -1312 vlineto
          endchar
        </CharString>
        <CharString name="dvKHx_YA">
          714 182 -59 -104 callgsubr
          628 523 rmoveto
          -92 callsubr
          -23 2 -21 4 -19 vhcurveto
          -4 -24 -28 -3 -31 hhcurveto
          -56 -24 10 48 39 15 12 61 27 25 -3 -3 19 hvcurveto
          2 1 rlineto
          92 vlineto
          7 -30 -39 5 -41 hhcurveto
          -81 callsubr
          -25 -28 -50 -13 -123 hhcurveto
          -137 -53 41 69 hvcurveto
          27 -56 callgsubr
          93 481 -67 callgsubr
          -818 230 -93 callsubr
          206 111 64 78 38 vhcurveto
          -42 47 71 -22 94 -106 callsubr
          -1379 vlineto
          endchar
        </CharString>
        <CharString name="dvK_CA">
          692 950 186 rmoveto
          -75 -25 10 48 37 19 10 28 hvcurveto
          80 106 -295 hlineto
          -68 -40 -8 -23 -40 hvcurveto
          134 544 -286 vlineto
          -17 -26 -64 -11 -38 hhcurveto
          -564 -177 rmoveto
          148 230 hlineto
          94 51 54 -7 56 -2 2 -3 rcurveline
          -18 -12 -13 -27 -44 vvcurveto
          -94 70 -43 142 44 71 12 18 42 vhcurveto
          -79 -105 callgsubr
          -1352 -93 callgsubr
        </CharString>
        <CharString name="dvK_DA">
          661 951 435 rmoveto
          -80 -56 -12 -29 -35 hvcurveto
          7 -27 -33 3 -41 hhcurveto
          -19 callsubr
          530 -74 callgsubr
          -565 -426 -89 callgsubr
          32 25 -1 -4 17 hvcurveto
          -5 0 -6 -6 vvcurveto
          242 callsubr
          vhcurveto
          17 callgsubr
          -1321 -50 callgsubr
        </CharString>
        <CharString name="dvK_JA">
          723 682 403 rmoveto
          -68 -40 -8 -23 -40 hvcurveto
          128 577 -97 vlineto
          -725 -394 rmoveto
          148 236 hlineto
          46 70 77 -2 92 hhcurveto
          80 17 -23 -57 -74 5 callsubr
          -62 callgsubr
          57 -19 44 -38 15 hvcurveto
          1 162 -288 147 -102 callgsubr
          -1383 -93 callgsubr
        </CharString>
        <CharString name="dvK_KA">
          1020 386 9 72 callsubr
          502 349 rmoveto
          -41 -32 -5 -11 -25 hvcurveto
          10 -29 -36 4 -46 19 callsubr
          547 -78 callgsubr
          endchar
        </CharString>
        <CharString name="dvK_KHA">
          986 872 383 rmoveto
          -27 -5 -19 -11 -12 vhcurveto
          46 -33 -71 33 -93 hhcurveto
          -47 -46 -7 -11 -32 hvcurveto
          114 338 vlineto
          349 -50 rmoveto
          -81 callsubr
          -31 -28 -89 -7 -84 hhcurveto
          -137 -53 31 39 hvcurveto
          17 4 vlineto
          96 55 45 113 hvcurveto
          143 212 callgsubr
          -835 -441 rmoveto
          148 261 hlineto
          10 30 34 5 39 hhcurveto
          40 26 -2 -5 18 hvcurveto
          -77 vlineto
          -134 106 -69 222 193 87 30 104 48 vhcurveto
          5 -123 139 -102 callgsubr
          -1646 -50 callgsubr
        </CharString>
        <CharString name="dvK_LA">
          884 1270 -11 callgsubr
          -55 -43 -11 -24 -30 hvcurveto
          6 -26 -32 3 -38 hhcurveto
          -43 callsubr
          736 hlineto
          -884 -491 -89 callgsubr
          26 21 -1 -2 16 hvcurveto
          -1 -11 -1 -12 -13 vvcurveto
          -15 callsubr
          vhcurveto
          -91 callgsubr
          -1544 -93 callgsubr
        </CharString>
        <CharString name="dvK_MA">
          711 940 500 129 callgsubr
        </CharString>
        <CharString name="dvK_NA">
          716 386 9 -89 callgsubr
          49 30 -3 -9 18 hvcurveto
          -5 -13 -2 -18 -25 vvcurveto
          13 callsubr
          153 1 rlineto
          -180 -105 callgsubr
          -1376 69 callsubr
          306 308 rmoveto
          -67 -63 -13 -13 -26 hvcurveto
          -2 131 568 -199 hlineto
          -187 -1 rlineto
          56 -17 -91 39 -115 hhcurveto
          endchar
        </CharString>
        <CharString name="dvK_NNA">
          871 679 374 rmoveto
          -83 callgsubr
          151 201 -129 hlineto
          2 -17 -19 1 -20 hhcurveto
          200 -68 rmoveto
          -5 callgsubr
          -493 -297 rmoveto
          148 223 -41 callgsubr
          37 26 -2 -5 19 hvcurveto
          -113 13 49 -40 140 hhcurveto
          -2 callgsubr
          hvcurveto
          169 100 -491 -105 callgsubr
          -1521 -93 callgsubr
        </CharString>
        <CharString name="dvK_PA">
          665 679 394 14 callsubr
          -89 -73 callsubr
          -497 -296 rmoveto
          148 233 -41 callgsubr
          36 26 -2 -4 18 hvcurveto
          -118 12 54 -42 128 -74 callsubr
          -1325 -93 callgsubr
        </CharString>
        <CharString name="dvK_PHA">
          986 679 394 14 callsubr
          -97 -97 callsubr
          -497 -288 -89 callgsubr
          36 26 -2 -4 18 hvcurveto
          -118 10 53 -48 143 -57 callsubr
          -1651 -50 callgsubr
        </CharString>
        <CharString name="dvK_P_RA">
          665 679 404 rmoveto
          -19 callsubr
          204 -99 hlineto
          2 -18 -19 1 -22 hhcurveto
          194 -29 -47 callsubr
          -487 -366 -89 callgsubr
          50 30 -3 -9 18 hvcurveto
          22 -55 43 -23 74 -5 rrcurveto
          -58 callgsubr
          -1325 -93 callgsubr
        </CharString>
        <CharString name="dvK_R">
          130 -25 500 82 callsubr
        </CharString>
        <CharString name="dvK_RA">
          321 73 callsubr
          endchar
        </CharString>
        <CharString name="dvK_SA">
          787 833 119 callsubr
          -625 -413 rmoveto
          192 callgsubr
          -1447 -93 callgsubr
        </CharString>
        <CharString name="dvK_SHA">
          824 1211 9 rmoveto
          -106 callgsubr
          -248 hlineto
          -319 9 callsubr
          -81 hlineto
          7 -24 -28 4 -29 hhcurveto
          -83 callgsubr
          171 180 107 -739 -107 411 -78 callgsubr
          -122 -46 -46 -140 -68 callsubr
          hvcurveto
          2 -78 148 203 -41 callgsubr
          65 17 -6 -16 16 hvcurveto
          10 -10 1 -1 1 -1 1 -1 rlinecurve
          184 -191 -4 callsubr
        </CharString>
        <CharString name="dvK_SS">
          24 759 262 rmoveto
          -457 hlineto
          -73 -17 -12 -47 -44 13 -13 69 76 16 10 23 hvcurveto
          26 135 -231 -143 vlineto
          -1 28 0 17 4 28 -2 1 rcurveline
          -15 -37 -35 -8 -57 hhcurveto
          -124 -68 43 117 84 44 39 51 9 hvcurveto
          3 vlineto
          -45 19 -30 38 80 vvcurveto
          103 70 53 151 148 72 -52 -93 -48 -10 -25 -21 -21 vhcurveto
          -2 271 vlineto
          -380 73 rmoveto
          35 -16 22 -63 -56 -23 -22 -35 -40 23 -15 56 63 16 15 40 vhcurveto
          endchar
        </CharString>
        <CharString name="dvK_SSA">
          242 629 9 rmoveto
          -106 callgsubr
          -248 -235 -141 -58 callsubr
          327 hlineto
          -250 183 rmoveto
          -40 -16 -15 -63 -56 -23 15 40 35 23 22 56 63 16 -22 -35 vhcurveto
          endchar
        </CharString>
        <CharString name="dvK_SS_MA">
          645 579 -107 callsubr
          147 -128 -238 -58 callsubr
          361 hlineto
          -13 -14 -5 -23 -38 248 callgsubr
          -701 vlineto
          -200 -162 171 callsubr
          495 55 rmoveto
          157 -213 hlineto
          -157 -1 rlineto
          endchar
        </CharString>
        <CharString name="dvK_SS_M_YA">
          1051 1126 72 callgsubr
          -747 205 171 callsubr
          769 19 rmoveto
          -99 -11 -23 -63 -4 vhcurveto
          -200 -1 rlineto
          163 274 vlineto
          -569 hmoveto
          147 -128 -238 -58 callsubr
          344 hlineto
          -1 -7 0 -8 -9 vvcurveto
          110 callgsubr
          vhcurveto
          124 1 rlineto
          -104 23 93 -46 155 -106 callsubr
          -1108 vlineto
          endchar
        </CharString>
        <CharString name="dvK_SS_R">
          142 877 262 rmoveto
          110 -389 2 vlineto
          21 21 10 25 48 vvcurveto
          93 -72 52 -148 -151 -70 -53 -103 -80 30 -38 45 -19 vhcurveto
          -3 vlineto
          -51 -9 -44 -39 -84 145 callgsubr
          453 hlineto
          -75 -80 -68 -85 -63 -87 rrcurveto
          -4 176 vlineto
          -346 439 34 callgsubr
        </CharString>
        <CharString name="dvK_SS_RA">
          402 790 9 rmoveto
          149 491 98 107 -408 -107 161 -128 -302 -58 callsubr
          453 hlineto
          -75 -80 -68 -85 -63 -87 rrcurveto
          -4 176 vlineto
          61 137 rlineto
          4 hlineto
          -411 302 34 callgsubr
        </CharString>
        <CharString name="dvK_SS_VA">
          635 579 -107 callsubr
          443 -66 callgsubr
          -79 -52 -20 -47 -30 hvcurveto
          -183 -58 callsubr
          342 hlineto
          -3 0 -4 -4 28 callgsubr
          -691 vlineto
          -200 -162 34 callgsubr
        </CharString>
        <CharString name="dvK_SS_YA">
          702 579 -107 callsubr
          219 -36 hlineto
          -59 -7 -24 -36 -9 vhcurveto
          -267 -58 callsubr
          344 hlineto
          -123 19 94 -63 160 hhcurveto
          -97 callgsubr
          hvcurveto
          142 callsubr
          -397 175 rmoveto
          -40 -16 -15 -63 -56 -23 15 40 35 23 22 56 63 16 -22 -35 vhcurveto
          endchar
        </CharString>
        <CharString name="dvK_S_DDA">
          1040 98 callsubr
          503 109 rmoveto
          -121 -52 -35 -98 hvcurveto
          -2 0 -2 -1 vvcurveto
          -193 -100 callgsubr
          455 -53 vlineto
          -1080 -438 66 callgsubr
          362 vlineto
          -7 24 31 -3 38 59 callgsubr
          -1700 -50 callgsubr
        </CharString>
        <CharString name="dvK_S_P_LA">
          1633 98 callsubr
          353 -24 rmoveto
          -2 0 -2 -1 vvcurveto
          -216 -100 callgsubr
          175 vlineto
          833 -105 rmoveto
          -63 callsubr
          -121 -64 -54 -130 hvcurveto
          -3 0 -3 -2 vvcurveto
          -2 -15 -15 -1 -15 hhcurveto
          51 callgsubr
          685 vlineto
          -1633 -491 66 callgsubr
          319 vlineto
          -70 25 55 -26 101 hhcurveto
          34 36 3 6 34 hvcurveto
          11 -33 14 -34 17 -32 rrcurveto
          -91 callgsubr
          -2293 -93 callgsubr
        </CharString>
        <CharString name="dvK_S_P_RA">
          1107 833 198 callgsubr
          169 -116 vlineto
          -29 2 -24 3 -22 vhcurveto
          -215 62 callsubr
          304 -47 -47 callsubr
          -929 -366 66 callgsubr
          380 vlineto
          20 -8 25 -5 29 -2 rrcurveto
          -58 callgsubr
          -1747 -107 391 -77 callgsubr
          -122 -46 -46 -140 -68 callsubr
          hvcurveto
          2 hlineto
          endchar
        </CharString>
        <CharString name="dvK_S_TA">
          126 callgsubr
        </CharString>
        <CharString name="dvK_S_TTA">
          126 callgsubr
        </CharString>
        <CharString name="dvK_TA">
          398 -15 500 rmoveto
          474 -88 -443 -120 94 hlineto
          1 -2 rlineto
          -13 -17 -5 -32 -29 vvcurveto
          -107 46 -45 127 47 51 6 11 37 vhcurveto
          -2 114 -4 1 rlineto
          -6 -23 -27 -5 -36 hhcurveto
          -62 -14 17 40 37 14 17 49 hvcurveto
          163 -283 164 callgsubr
          -1033 hlineto
          endchar
        </CharString>
        <CharString name="dvK_THA">
          814 1032 60 rmoveto
          69 56 12 17 44 hvcurveto
          -80 -106 callgsubr
          -248 -387 vlineto
          -21 -45 -53 -13 -54 hhcurveto
          -94 -55 21 48 -25 callgsubr
          129 66 64 121 121 -60 57 -114 -114 -63 -44 -97 -11 1 -14 2 -12 hvcurveto
          123 2 hlineto
          -2 7 -1 7 8 vvcurveto
          24 14 14 32 34 15 -16 -45 -59 -36 -24 -92 vhcurveto
          -115 hlineto
          3 -22 -25 2 -29 hhcurveto
          -57 -49 -9 -16 -37 hvcurveto
          -2 164 189 107 -748 -107 411 -78 callgsubr
          -122 -46 -46 -140 -68 callsubr
          hvcurveto
          2 -78 148 210 -41 callgsubr
          80 18 -13 -18 7 hvcurveto
          -95 23 83 -56 164 hhcurveto
          endchar
        </CharString>
        <CharString name="dvK_TTA">
          583 913 436 rmoveto
          -44 -37 -6 -14 -30 hvcurveto
          12 -30 -41 6 -52 19 callsubr
          433 22 callsubr
          -527 -427 56 callsubr
          28 21 -2 -3 17 hvcurveto
          -7 -26 -3 -31 -37 -7 callsubr
          -1243 -50 callgsubr
        </CharString>
        <CharString name="dvK_T_RA">
          670 908 407 rmoveto
          -30 -26 -2 -4 -22 hvcurveto
          23 -33 -48 10 -70 19 callsubr
          523 -122 hlineto
          16 -28 -58 13 -63 hhcurveto
          -522 -398 56 callsubr
          30 22 -2 -4 17 hvcurveto
          -7 -26 -4 -32 -40 vvcurveto
          148 65 callgsubr
          -1330 -50 callgsubr
        </CharString>
        <CharString name="dvK_T_VA">
          1074 1271 439 rmoveto
          302 callgsubr
          -59 -48 -8 -19 -33 hvcurveto
          13 -31 -42 6 -55 hhcurveto
          -19 callsubr
          927 -66 callgsubr
          -885 -430 -89 callgsubr
          45 29 -3 -7 18 hvcurveto
          -1 122 callsubr
          -1749 -107 426 -77 callgsubr
          -122 -46 -46 -140 -68 callsubr
          hvcurveto
          2 hlineto
          endchar
        </CharString>
        <CharString name="dvK_T_YA">
          1116 1212 464 rmoveto
          12 callsubr
          -53 -44 -6 -16 -33 hvcurveto
          10 -29 -37 4 -47 hhcurveto
          -19 callsubr
          678 -3 callsubr
          -804 -261 -89 callgsubr
          28 22 -1 -3 17 hvcurveto
          -2 0 -2 -3 vvcurveto
          -41 callsubr
          vhcurveto
          -12 callgsubr
          -1776 -93 callgsubr
        </CharString>
        <CharString name="dvK_VA">
          701 898 163 callgsubr
          -512 -430 -89 callgsubr
          21 18 -1 -1 15 hvcurveto
          -48 callsubr
          -1361 -93 callgsubr
        </CharString>
        <CharString name="dvK_V_YA">
          1149 1245 464 rmoveto
          138 callsubr
          -71 -48 -15 -34 -30 hvcurveto
          3 -20 -24 1 -26 hhcurveto
          -43 callsubr
          711 -3 callsubr
          -837 -261 -89 callgsubr
          21 18 -1 -1 15 hvcurveto
          -1 -8 0 -9 -9 vvcurveto
          -139 49 -57 183 101 83 20 36 79 vhcurveto
          -21 42 54 -10 65 hhcurveto
          -97 callgsubr
          hvcurveto
          -94 callgsubr
          -1809 -93 callgsubr
        </CharString>
        <CharString name="dvK_YA">
          768 864 32 callsubr
          -456 -261 -89 callgsubr
          34 14 -9 -21 6 hvcurveto
          -104 17 94 -65 163 -106 callsubr
          -1428 -93 callgsubr
        </CharString>
        <CharString name="dvKx">
          130 243 4 -104 callgsubr
          -268 496 85 callsubr
        </CharString>
        <CharString name="dvKxA">
          325 234 4 rmoveto
          12 callgsubr
          -259 496 79 callsubr
        </CharString>
        <CharString name="dvKx_BA">
          726 243 4 -104 callgsubr
          604 250 74 callgsubr
          -461 -245 -89 callgsubr
          24 19 -1 -2 15 hvcurveto
          -6 0 -7 -7 48 callsubr
          -1386 69 callsubr
          531 243 rmoveto
          -66 callsubr
          -67 -49 -14 -36 -31 hvcurveto
          3 -22 -25 2 -28 hhcurveto
          -43 callsubr
          580 -305 hlineto
          -1 0 0 -1 hhcurveto
          endchar
        </CharString>
        <CharString name="dvKx_KxA">
          1020 243 4 -104 callgsubr
          686 hmoveto
          12 callgsubr
          -41 432 rmoveto
          -41 -32 -5 -11 -25 hvcurveto
          10 -29 -36 4 -46 19 callsubr
          547 -78 callgsubr
          -502 -427 72 callsubr
          endchar
        </CharString>
        <CharString name="dvKx_MA">
          711 271 -2 rmoveto
          5 -25 -25 2 -24 hhcurveto
          -25 -25 -84 callgsubr
          -3 -22 -1 -17 -15 vvcurveto
          -16 -61 callgsubr
          -5 25 24 -3 24 hhcurveto
          25 25 -81 callgsubr
          2 21 -70 callsubr
          669 502 129 callgsubr
        </CharString>
        <CharString name="dvKx_PHA">
          986 679 394 14 callsubr
          -97 -97 callsubr
          -497 -288 -89 callgsubr
          36 26 -2 -4 18 hvcurveto
          -118 10 53 -48 143 -57 callsubr
          -1661 -107 421 -78 callgsubr
          -122 -46 -46 -140 -68 callsubr
          hvcurveto
          2 hlineto
          -143 -83 -104 callgsubr
          endchar
        </CharString>
        <CharString name="dvKx_PHxA">
          986 243 4 -104 callgsubr
          683 31 rmoveto
          5 -25 -25 2 -24 hhcurveto
          -25 -25 -84 callgsubr
          -3 -22 -1 -17 -15 vvcurveto
          -16 -61 callgsubr
          -5 25 24 -3 24 hhcurveto
          25 25 -81 callgsubr
          2 21 -70 callsubr
          -247 359 14 callsubr
          -97 -97 callsubr
          -497 -288 -89 callgsubr
          36 26 -2 -4 18 hvcurveto
          -118 10 53 -48 143 -57 callsubr
          -1651 -50 callgsubr
        </CharString>
        <CharString name="dvKx_R">
          130 182 -56 -104 callgsubr
          -207 556 82 callsubr
        </CharString>
        <CharString name="dvKx_RA">
          325 73 callsubr
          137 -656 -104 callgsubr
          endchar
        </CharString>
        <CharString name="dvKx_TA">
          678 922 412 rmoveto
          -53 -44 -6 -16 -33 hvcurveto
          10 -29 -37 4 -47 hhcurveto
          -19 callsubr
          531 -110 hlineto
          -2 -1 rlineto
          15 -35 -54 8 -52 hhcurveto
          -679 -408 -104 callgsubr
          143 5 rmoveto
          47 callsubr
          28 22 -1 -3 17 hvcurveto
          -2 0 -2 -3 vvcurveto
          -41 callsubr
          vhcurveto
          -87 callgsubr
          -1338 -93 callgsubr
        </CharString>
        <CharString name="dvL">
          -53 -10 -107 callsubr
          107 709 -107 vlineto
          -483 -486 rmoveto
          -5 -134 vlineto
          -32 73 -15 77 77 vvcurveto
          126 56 58 123 104 50 -37 -57 9 vhcurveto
          3 hlineto
          54 10 40 39 104 hhcurveto
          121 44 -70 -156 hvcurveto
          -100 hlineto
          81 -9 20 -63 -52 -25 -20 -81 vhcurveto
          -67 -132 67 vlineto
          81 -21 20 -46 -50 -23 -20 -71 -65 13 -63 25 -61 vhcurveto
          endchar
        </CharString>
        <CharString name="dvLA">
          199 -10 -107 callsubr
          595 148 callgsubr
          -844 vlineto
          endchar
        </CharString>
        <CharString name="dvLL">
          285 223 10 rmoveto
          213 callsubr
          164 59 41 163 164 -59 40 -164 -119 -61 -29 -52 -23 hvcurveto
          10 callsubr
          -164 69 -40 134 hvcurveto
          46 116 rmoveto
          -78 24 callsubr
          78 77 23 callsubr
          -77 hvcurveto
          -299 374 rmoveto
          940 107 -940 hlineto
          640 -481 rmoveto
          -68 24 callsubr
          68 87 23 callsubr
          -87 hvcurveto
          endchar
        </CharString>
</ttFont>
